{"glyphs":{"0":{"ha":803,"x_min":-3,"x_max":806,"o":"m 506 929 q 630 909 574 929 q 725 853 686 888 q 785 771 764 818 q 806 671 806 724 l 806 258 q 785 158 806 205 q 725 76 764 111 q 630 20 686 41 q 506 0 574 0 l 297 0 q 173 20 229 0 q 78 76 117 41 q 18 158 39 111 q -3 258 -3 205 l -3 671 q 18 771 -3 724 q 78 853 39 818 q 173 909 117 888 q 297 929 229 929 l 506 929 m 642 758 l 632 815 l 589 859 l 519 868 l 338 868 l 268 859 l 225 815 l 217 758 l 217 416 l 225 358 l 269 315 l 338 307 l 519 307 l 589 315 l 632 358 l 642 416 l 642 758 m 559 386 l 515 379 l 342 379 l 297 386 l 288 427 l 288 751 l 294 789 l 342 796 l 515 796 l 563 789 l 570 749 l 570 424 l 559 386 z "},"1":{"ha":803,"x_min":-3,"x_max":806,"o":"m 457 869 l 396 869 l 297 835 l 297 762 l 385 793 l 385 309 l 457 309 l 457 869 m 506 929 q 630 909 574 929 q 725 853 686 888 q 785 771 764 818 q 806 671 806 724 l 806 258 q 785 158 806 205 q 725 76 764 111 q 630 20 686 41 q 506 0 574 0 l 297 0 q 173 20 229 0 q 78 76 117 41 q 18 158 39 111 q -3 258 -3 205 l -3 671 q 18 771 -3 724 q 78 853 39 818 q 173 909 117 888 q 297 929 229 929 l 506 929 z "},"2":{"ha":803,"x_min":-3,"x_max":806,"o":"m 506 929 q 630 909 574 929 q 725 853 686 888 q 785 771 764 818 q 806 671 806 724 l 806 258 q 785 158 806 205 q 725 76 764 111 q 630 20 686 41 q 506 0 574 0 l 297 0 q 173 20 229 0 q 78 76 117 41 q 18 158 39 111 q -3 258 -3 205 l -3 671 q 18 771 -3 724 q 78 853 39 818 q 173 909 117 888 q 297 929 229 929 l 506 929 m 625 758 l 615 815 l 572 859 l 503 868 l 339 868 l 269 859 l 227 815 l 216 743 l 288 736 l 296 789 l 343 796 l 498 796 l 546 789 l 553 749 l 553 664 q 548 644 549 653 q 543 624 547 634 l 498 612 l 336 612 l 257 590 l 227 559 l 218 503 l 218 350 l 261 307 l 602 307 l 602 378 l 289 378 l 289 494 q 292 513 291 503 q 294 533 292 524 l 343 545 l 506 545 l 585 567 l 615 596 l 625 654 l 625 758 z "},"3":{"ha":803,"x_min":-3,"x_max":806,"o":"m 506 929 q 630 909 574 929 q 725 853 686 888 q 785 771 764 818 q 806 671 806 724 l 806 258 q 785 158 806 205 q 725 76 764 111 q 630 20 686 41 q 506 0 574 0 l 297 0 q 173 20 229 0 q 78 76 117 41 q 18 158 39 111 q -3 258 -3 205 l -3 671 q 18 771 -3 724 q 78 853 39 818 q 173 909 117 888 q 297 929 229 929 l 506 929 m 618 517 l 608 574 q 600 581 605 576 q 592 589 595 585 l 608 606 l 618 663 l 618 757 l 608 814 l 566 857 l 496 867 l 315 867 l 246 857 l 203 814 l 191 742 l 264 734 l 273 787 l 319 794 l 492 794 l 539 787 l 546 747 l 546 665 q 542 647 545 657 q 536 628 538 636 l 492 621 l 303 621 l 303 557 l 493 557 l 539 551 l 546 511 l 546 422 q 542 404 545 414 q 536 385 538 393 l 492 378 l 317 378 l 275 385 l 264 437 l 191 431 l 203 357 l 246 314 l 315 306 l 496 306 l 566 314 l 608 357 l 618 415 l 618 517 z "},"4":{"ha":803,"x_min":-3,"x_max":806,"o":"m 506 929 q 630 909 574 929 q 725 853 686 888 q 785 771 764 818 q 806 671 806 724 l 806 258 q 785 158 806 205 q 725 76 764 111 q 630 20 686 41 q 506 0 574 0 l 297 0 q 173 20 229 0 q 78 76 117 41 q 18 158 39 111 q -3 258 -3 205 l -3 671 q 18 771 -3 724 q 78 853 39 818 q 173 909 117 888 q 297 929 229 929 l 506 929 m 367 439 l 482 439 l 482 307 l 554 307 l 554 439 l 659 439 l 659 511 l 554 511 l 554 868 l 482 868 l 482 510 l 371 510 l 323 517 l 317 557 l 317 868 l 245 868 l 245 547 l 254 490 l 297 447 l 367 439 z "},"5":{"ha":803,"x_min":-3,"x_max":806,"o":"m 506 929 q 630 909 574 929 q 725 853 686 888 q 785 771 764 818 q 806 671 806 724 l 806 258 q 785 158 806 205 q 725 76 764 111 q 630 20 686 41 q 506 0 574 0 l 297 0 q 173 20 229 0 q 78 76 117 41 q 18 158 39 111 q -3 258 -3 205 l -3 671 q 18 771 -3 724 q 78 853 39 818 q 173 909 117 888 q 297 929 229 929 l 506 929 m 635 541 l 625 597 l 582 640 l 514 650 l 347 650 l 297 642 l 297 798 l 607 798 l 607 868 l 268 868 l 225 825 l 225 570 l 294 570 l 351 578 l 510 578 l 555 571 l 563 530 l 563 422 q 558 404 562 414 q 553 386 555 395 l 513 378 l 349 378 l 306 386 l 298 418 l 221 410 l 236 357 l 279 315 l 347 307 l 514 307 l 582 315 l 625 358 l 635 415 l 635 541 z "},"6":{"ha":803,"x_min":-3,"x_max":806,"o":"m 506 929 q 630 909 574 929 q 725 853 686 888 q 785 771 764 818 q 806 671 806 724 l 806 258 q 785 158 806 205 q 725 76 764 111 q 630 20 686 41 q 506 0 574 0 l 297 0 q 173 20 229 0 q 78 76 117 41 q 18 158 39 111 q -3 258 -3 205 l -3 671 q 18 771 -3 724 q 78 853 39 818 q 173 909 117 888 q 297 929 229 929 l 506 929 m 652 542 l 642 599 l 599 642 l 529 652 l 347 652 l 297 643 l 297 751 l 304 789 l 350 789 l 525 789 l 596 781 l 610 851 l 530 868 l 347 868 l 278 859 l 235 815 l 225 758 l 225 415 l 235 358 l 278 315 l 347 307 l 529 307 l 597 315 l 642 358 l 652 415 l 652 542 m 570 386 l 525 378 l 349 378 l 307 386 q 302 407 306 394 q 297 427 298 420 l 297 534 l 304 572 l 351 579 l 525 579 l 572 572 l 579 532 l 579 427 l 570 386 z "},"7":{"ha":803,"x_min":-3,"x_max":806,"o":"m 578 810 l 578 868 l 285 868 l 285 796 l 496 796 l 318 307 l 401 307 l 578 810 m 506 929 q 630 909 574 929 q 725 853 686 888 q 785 771 764 818 q 806 671 806 724 l 806 258 q 785 158 806 205 q 725 76 764 111 q 630 20 686 41 q 506 0 574 0 l 297 0 q 173 20 229 0 q 78 76 117 41 q 18 158 39 111 q -3 258 -3 205 l -3 671 q 18 771 -3 724 q 78 853 39 818 q 173 909 117 888 q 297 929 229 929 l 506 929 z "},"8":{"ha":803,"x_min":-3,"x_max":806,"o":"m 506 929 q 630 909 574 929 q 725 853 686 888 q 785 771 764 818 q 806 671 806 724 l 806 258 q 785 158 806 205 q 725 76 764 111 q 630 20 686 41 q 506 0 574 0 l 297 0 q 173 20 229 0 q 78 76 117 41 q 18 158 39 111 q -3 258 -3 205 l -3 671 q 18 771 -3 724 q 78 853 39 818 q 173 909 117 888 q 297 929 229 929 l 506 929 m 517 868 l 335 868 l 265 859 l 222 815 l 212 758 l 212 665 l 222 608 l 239 593 l 222 576 l 212 519 l 212 416 l 222 358 l 267 315 l 335 307 l 517 307 l 585 315 l 629 358 l 639 416 l 639 519 l 629 576 l 612 593 l 629 608 l 639 665 l 639 758 l 629 815 l 586 859 l 517 868 m 513 379 l 339 379 l 294 386 l 285 427 l 285 513 l 292 550 l 339 557 l 513 557 l 559 550 l 567 513 l 567 427 l 557 386 l 513 379 m 513 629 l 339 629 l 294 636 l 285 676 l 285 751 l 292 789 l 339 796 l 513 796 l 559 789 l 567 751 l 567 676 l 557 636 l 513 629 z "},"9":{"ha":803,"x_min":-3,"x_max":806,"o":"m 506 929 q 630 909 574 929 q 725 853 686 888 q 785 771 764 818 q 806 671 806 724 l 806 258 q 785 158 806 205 q 725 76 764 111 q 630 20 686 41 q 506 0 574 0 l 297 0 q 173 20 229 0 q 78 76 117 41 q 18 158 39 111 q -3 258 -3 205 l -3 671 q 18 771 -3 724 q 78 853 39 818 q 173 909 117 888 q 297 929 229 929 l 506 929 m 204 633 l 214 576 l 257 533 l 326 524 l 509 524 l 558 532 l 558 424 l 551 386 l 506 386 l 331 386 l 260 395 l 246 323 l 325 307 l 509 307 l 578 317 l 621 359 l 631 416 l 631 760 l 621 817 l 578 860 l 509 868 l 326 868 l 258 860 l 214 817 l 204 760 l 204 633 m 286 789 l 331 798 l 507 798 l 549 789 l 558 753 l 558 640 l 551 603 l 505 596 l 331 596 l 283 603 l 277 643 l 277 749 l 286 789 z "},"\r":{"ha":200,"x_min":0,"x_max":0,"o":""}," ":{"ha":200,"x_min":0,"x_max":0,"o":""},"!":{"ha":589,"x_min":-3,"x_max":592,"o":"m 297 929 q 419 907 364 928 q 512 851 473 886 q 571 770 551 817 q 592 671 592 724 l 592 258 q 571 158 592 205 q 511 76 550 111 q 416 20 471 41 q 292 0 361 0 q 170 21 224 0 q 77 77 115 41 q 18 159 39 113 q -3 258 -3 206 l -3 671 q 18 771 -3 724 q 78 853 39 818 q 173 909 117 888 q 297 929 229 929 m 252 868 l 279 425 l 319 425 l 347 868 l 252 868 m 264 297 l 347 297 l 336 370 l 264 370 l 264 297 z "},"\"":{"ha":589,"x_min":-3,"x_max":592,"o":"m 297 929 q 419 907 364 928 q 512 851 473 886 q 571 770 551 817 q 592 671 592 724 l 592 258 q 571 158 592 205 q 511 76 550 111 q 416 20 471 41 q 292 0 361 0 q 170 21 224 0 q 77 77 115 41 q 18 159 39 113 q -3 258 -3 206 l -3 671 q 18 771 -3 724 q 78 853 39 818 q 173 909 117 888 q 297 929 229 929 m 220 868 l 220 694 l 288 694 l 288 868 l 220 868 m 321 868 l 321 694 l 389 694 l 389 868 l 321 868 z "},"#":{"ha":671,"x_min":-3,"x_max":673,"o":"m 374 929 q 498 909 442 929 q 592 853 553 888 q 652 771 631 818 q 673 671 673 724 l 673 258 q 652 158 673 205 q 592 76 631 111 q 498 20 553 41 q 374 0 442 0 l 297 0 q 173 20 229 0 q 78 76 117 41 q 18 158 39 111 q -3 258 -3 205 l -3 671 q 18 771 -3 724 q 78 853 39 818 q 173 909 117 888 q 297 929 229 929 l 374 929 m 457 715 l 465 803 l 395 803 l 385 715 l 323 715 l 334 803 l 261 803 l 252 715 l 207 715 l 200 644 l 245 644 l 229 494 l 184 494 l 176 422 l 221 422 l 212 335 l 283 335 l 293 422 l 354 422 l 346 335 l 416 335 l 427 422 l 469 422 l 477 494 l 433 494 l 449 644 l 493 644 l 500 715 l 457 715 m 363 494 l 300 494 l 317 644 l 378 644 l 363 494 z "},"$":{"ha":803,"x_min":-3,"x_max":806,"o":"m 338 379 l 296 386 l 285 439 l 211 432 l 224 358 l 267 315 l 336 307 l 383 307 l 383 227 l 439 227 l 439 307 l 478 307 l 547 315 l 590 358 l 600 416 l 600 486 l 590 545 l 547 587 l 477 595 l 439 595 l 439 741 l 481 741 l 522 732 l 535 681 l 606 688 l 595 760 l 550 803 l 482 812 l 439 812 l 439 868 l 383 868 l 383 812 l 335 812 l 267 803 l 222 760 l 214 703 l 214 632 l 222 575 l 267 532 l 335 524 l 383 524 l 383 379 l 338 379 m 336 595 l 294 603 q 290 624 291 614 q 285 643 288 633 l 285 692 l 294 732 l 339 741 l 383 741 l 383 595 l 336 595 m 439 524 l 477 524 l 518 517 q 523 497 520 506 q 528 479 526 489 l 528 424 q 523 405 526 415 q 518 386 520 395 l 473 379 l 439 379 l 439 524 m 506 929 q 630 909 574 929 q 725 853 686 888 q 785 771 764 818 q 806 671 806 724 l 806 258 q 785 158 806 205 q 725 76 764 111 q 630 20 686 41 q 506 0 574 0 l 297 0 q 173 20 229 0 q 78 76 117 41 q 18 158 39 111 q -3 258 -3 205 l -3 671 q 18 771 -3 724 q 78 853 39 818 q 173 909 117 888 q 297 929 229 929 l 506 929 z "},"%":{"ha":803,"x_min":-3,"x_max":806,"o":"m 443 835 l 302 351 l 370 335 l 513 814 l 443 835 m 349 743 l 343 782 l 302 825 l 250 832 l 221 832 l 174 822 l 130 783 l 122 743 l 122 694 l 128 656 l 171 612 l 221 606 l 252 606 l 297 615 l 342 654 l 349 694 l 349 743 m 271 682 l 246 676 l 225 676 l 200 682 l 193 704 l 193 733 l 200 755 q 214 758 208 758 q 227 761 219 759 l 246 761 l 271 755 l 278 733 l 278 704 l 271 682 m 699 472 l 690 513 l 646 551 l 599 561 l 570 561 l 519 554 l 477 511 l 471 472 l 471 424 l 478 383 l 522 345 l 568 335 l 599 335 l 649 342 l 692 385 l 699 424 l 699 472 m 620 411 l 595 406 l 574 406 l 549 411 l 542 433 l 542 463 l 549 485 l 574 490 l 593 490 l 620 485 l 627 463 l 627 433 l 620 411 m 506 929 q 630 909 574 929 q 725 853 686 888 q 785 771 764 818 q 806 671 806 724 l 806 258 q 785 158 806 205 q 725 76 764 111 q 630 20 686 41 q 506 0 574 0 l 297 0 q 173 20 229 0 q 78 76 117 41 q 18 158 39 111 q -3 258 -3 205 l -3 671 q 18 771 -3 724 q 78 853 39 818 q 173 909 117 888 q 297 929 229 929 l 506 929 z "},"&":{"ha":803,"x_min":-3,"x_max":806,"o":"m 506 929 q 630 909 574 929 q 725 853 686 888 q 785 771 764 818 q 806 671 806 724 l 806 258 q 785 158 806 205 q 725 76 764 111 q 630 20 686 41 q 506 0 574 0 l 297 0 q 173 20 229 0 q 78 76 117 41 q 18 158 39 111 q -3 258 -3 205 l -3 671 q 18 771 -3 724 q 78 853 39 818 q 173 909 117 888 q 297 929 229 929 l 506 929 m 543 696 l 543 629 l 376 629 l 332 636 l 322 676 l 322 751 l 329 789 l 376 796 l 489 796 l 536 789 l 563 859 l 493 868 l 372 868 l 303 859 l 260 815 l 250 758 l 250 665 l 274 623 l 318 593 l 274 562 l 250 519 l 250 416 l 260 358 l 304 315 l 372 307 l 493 307 l 563 315 l 606 358 l 615 416 l 615 557 l 672 629 l 615 629 l 615 696 l 543 696 m 543 424 l 534 386 l 489 379 l 376 379 l 332 386 l 322 427 l 322 513 l 329 550 l 376 557 l 543 557 l 543 424 z "},"'":{"ha":589,"x_min":-3,"x_max":592,"o":"m 297 929 q 419 907 364 928 q 512 851 473 886 q 571 770 551 817 q 592 671 592 724 l 592 258 q 571 158 592 205 q 511 76 550 111 q 416 20 471 41 q 292 0 361 0 q 170 21 224 0 q 77 77 115 41 q 18 159 39 113 q -3 258 -3 206 l -3 671 q 18 771 -3 724 q 78 853 39 818 q 173 909 117 888 q 297 929 229 929 m 265 868 l 265 694 l 334 694 l 334 868 l 265 868 z "},"(":{"ha":672,"x_min":-3,"x_max":675,"o":"m 429 292 l 350 292 l 306 298 l 296 339 l 296 750 q 301 770 299 760 q 306 790 302 780 l 350 798 l 429 798 l 429 869 l 346 869 l 278 861 l 233 817 l 225 760 l 225 329 l 233 271 l 278 228 l 346 220 l 429 220 l 429 292 m 375 929 q 499 909 444 929 q 594 853 555 888 q 654 771 633 818 q 675 671 675 724 l 675 258 q 654 158 675 205 q 594 76 633 111 q 499 20 555 41 q 375 0 444 0 l 297 0 q 173 20 229 0 q 78 76 117 41 q 18 158 39 111 q -3 258 -3 205 l -3 671 q 18 771 -3 724 q 78 853 39 818 q 173 909 117 888 q 297 929 229 929 l 375 929 z "},")":{"ha":672,"x_min":-3,"x_max":675,"o":"m 243 292 l 243 220 l 326 220 l 394 228 l 439 271 l 447 329 l 447 760 l 439 817 l 394 861 l 326 869 l 243 869 l 243 798 l 322 798 l 366 790 q 371 770 370 780 q 376 750 373 760 l 376 339 l 366 298 l 322 292 l 243 292 m 297 929 l 375 929 q 499 909 444 929 q 594 853 555 888 q 654 771 633 818 q 675 671 675 724 l 675 258 q 654 158 675 205 q 594 76 633 111 q 499 20 555 41 q 375 0 444 0 l 297 0 q 173 20 229 0 q 78 76 117 41 q 18 158 39 111 q -3 258 -3 205 l -3 671 q 18 771 -3 724 q 78 853 39 818 q 173 909 117 888 q 297 929 229 929 z "},"*":{"ha":595,"x_min":-3,"x_max":597,"o":"m 493 743 l 389 743 l 443 833 l 380 869 l 325 779 l 271 869 l 207 833 l 260 743 l 159 743 l 159 671 l 261 671 l 207 581 l 271 545 q 297 589 282 564 q 325 635 313 613 l 380 545 l 443 581 l 391 671 l 493 671 l 493 743 m 297 0 q 173 20 229 0 q 78 76 117 41 q 18 158 39 111 q -3 258 -3 205 l -3 671 q 18 771 -3 724 q 78 853 39 818 q 173 909 117 888 q 297 929 229 929 q 421 909 366 929 q 516 853 477 888 q 576 771 555 818 q 597 671 597 724 l 597 258 q 576 158 597 205 q 516 76 555 111 q 421 20 477 41 q 297 0 366 0 z "},"+":{"ha":595,"x_min":-3,"x_max":597,"o":"m 471 736 l 338 736 l 338 869 l 267 869 l 267 736 l 135 736 l 135 664 l 267 664 l 267 532 l 338 532 l 338 664 l 471 664 l 471 736 m 297 0 q 173 20 229 0 q 78 76 117 41 q 18 158 39 111 q -3 258 -3 205 l -3 671 q 18 771 -3 724 q 78 853 39 818 q 173 909 117 888 q 297 929 229 929 q 421 909 366 929 q 516 853 477 888 q 576 771 555 818 q 597 671 597 724 l 597 258 q 576 158 597 205 q 516 76 555 111 q 421 20 477 41 q 297 0 366 0 z "},",":{"ha":595,"x_min":-3,"x_max":597,"o":"m 297 0 q 173 20 229 0 q 78 76 117 41 q 18 158 39 111 q -3 258 -3 205 l -3 671 q 18 771 -3 724 q 78 853 39 818 q 173 909 117 888 q 297 929 229 929 q 421 909 366 929 q 516 853 477 888 q 576 771 555 818 q 597 671 597 724 l 597 258 q 576 158 597 205 q 516 76 555 111 q 421 20 477 41 q 297 0 366 0 m 314 220 l 355 307 l 355 395 l 253 395 l 253 307 l 297 307 l 271 239 l 314 220 z "},"-":{"ha":595,"x_min":-3,"x_max":597,"o":"m 425 623 l 425 696 l 170 696 l 170 623 l 425 623 m 297 0 q 173 20 229 0 q 78 76 117 41 q 18 158 39 111 q -3 258 -3 205 l -3 671 q 18 771 -3 724 q 78 853 39 818 q 173 909 117 888 q 297 929 229 929 q 421 909 366 929 q 516 853 477 888 q 576 771 555 818 q 597 671 597 724 l 597 258 q 576 158 597 205 q 516 76 555 111 q 421 20 477 41 q 297 0 366 0 z "},".":{"ha":595,"x_min":-3,"x_max":597,"o":"m 342 307 l 342 395 l 253 395 l 253 307 l 342 307 m 297 0 q 173 20 229 0 q 78 76 117 41 q 18 158 39 111 q -3 258 -3 205 l -3 671 q 18 771 -3 724 q 78 853 39 818 q 173 909 117 888 q 297 929 229 929 q 421 909 366 929 q 516 853 477 888 q 576 771 555 818 q 597 671 597 724 l 597 258 q 576 158 597 205 q 516 76 555 111 q 421 20 477 41 q 297 0 366 0 z "},"/":{"ha":595,"x_min":-3,"x_max":597,"o":"m 297 929 q 421 909 366 929 q 516 853 477 888 q 576 771 555 818 q 597 671 597 724 l 597 258 q 576 158 597 205 q 516 76 555 111 q 421 20 477 41 q 297 0 366 0 q 173 20 229 0 q 78 76 117 41 q 18 158 39 111 q -3 258 -3 205 l -3 671 q 18 771 -3 724 q 78 853 39 818 q 173 909 117 888 q 297 929 229 929 m 307 847 l 214 289 l 288 289 l 380 847 l 307 847 z "},":":{"ha":595,"x_min":-3,"x_max":597,"o":"m 342 307 l 342 395 l 253 395 l 253 307 l 342 307 m 297 0 q 173 20 229 0 q 78 76 117 41 q 18 158 39 111 q -3 258 -3 205 l -3 671 q 18 771 -3 724 q 78 853 39 818 q 173 909 117 888 q 297 929 229 929 q 421 909 366 929 q 516 853 477 888 q 576 771 555 818 q 597 671 597 724 l 597 258 q 576 158 597 205 q 516 76 555 111 q 421 20 477 41 q 297 0 366 0 m 342 503 l 342 590 l 253 590 l 253 503 l 342 503 z "},";":{"ha":595,"x_min":-3,"x_max":597,"o":"m 297 0 q 173 20 229 0 q 78 76 117 41 q 18 158 39 111 q -3 258 -3 205 l -3 671 q 18 771 -3 724 q 78 853 39 818 q 173 909 117 888 q 297 929 229 929 q 421 909 366 929 q 516 853 477 888 q 576 771 555 818 q 597 671 597 724 l 597 258 q 576 158 597 205 q 516 76 555 111 q 421 20 477 41 q 297 0 366 0 m 314 220 l 355 307 l 355 395 l 253 395 l 253 307 l 297 307 l 271 239 l 314 220 m 353 503 l 353 590 l 264 590 l 264 503 l 353 503 z "},"<":{"ha":671,"x_min":-3,"x_max":673,"o":"m 331 1057 l 350 1057 q 484 1036 424 1057 q 586 976 544 1014 q 651 889 628 939 q 673 782 673 839 l 673 342 q 649 228 673 279 q 579 141 625 177 q 470 85 534 104 q 326 65 406 65 q 190 86 251 65 q 87 145 130 108 q 21 233 44 182 q -3 342 -3 283 l -3 782 q 20 889 -3 839 q 83 976 42 939 q 184 1036 125 1014 q 317 1057 243 1057 l 331 1057 m 404 277 l 436 307 l 233 541 l 436 774 l 404 806 l 183 550 l 183 532 l 404 277 z "},"=":{"ha":671,"x_min":-3,"x_max":673,"o":"m 318 65 q 185 87 244 65 q 84 146 125 109 q 20 234 42 184 q -3 342 -3 285 l -3 782 q 20 889 -3 839 q 85 976 43 939 q 186 1036 127 1014 q 321 1057 246 1057 l 354 1057 q 487 1036 427 1057 q 587 976 546 1014 q 651 889 629 939 q 673 782 673 839 l 673 342 q 650 233 673 283 q 585 145 627 182 q 481 86 542 108 q 346 65 421 65 l 318 65 m 481 521 l 216 521 l 216 475 l 481 475 l 481 521 m 481 653 l 216 653 l 216 610 l 481 610 l 481 653 z "},">":{"ha":671,"x_min":-3,"x_max":673,"o":"m 318 65 q 185 87 244 65 q 84 146 125 109 q 20 234 42 184 q -3 342 -3 285 l -3 782 q 20 889 -3 839 q 85 976 43 939 q 186 1036 127 1014 q 321 1057 246 1057 l 354 1057 q 487 1036 427 1057 q 587 976 546 1014 q 651 889 629 939 q 673 782 673 839 l 673 342 q 650 233 673 283 q 585 145 627 182 q 481 86 542 108 q 346 65 421 65 l 318 65 m 488 532 l 488 550 l 267 806 l 235 774 l 437 541 l 235 307 l 267 277 l 488 532 z "},"?":{"ha":803,"x_min":-3,"x_max":806,"o":"m 388 383 l 388 314 l 460 314 l 460 383 l 388 383 m 395 555 l 395 422 l 453 422 l 453 534 l 511 534 l 578 543 l 616 582 l 627 637 l 627 757 l 616 812 l 578 851 l 511 861 l 372 861 l 306 851 l 267 812 l 256 749 l 315 744 q 318 769 317 755 q 322 795 320 784 l 509 803 l 561 795 l 568 750 l 568 644 l 561 599 l 423 591 l 395 555 m 506 929 q 630 909 574 929 q 725 853 686 888 q 785 771 764 818 q 806 671 806 724 l 806 258 q 785 158 806 205 q 725 76 764 111 q 630 20 686 41 q 506 0 574 0 l 297 0 q 173 20 229 0 q 78 76 117 41 q 18 158 39 111 q -3 258 -3 205 l -3 671 q 18 771 -3 724 q 78 853 39 818 q 173 909 117 888 q 297 929 229 929 l 506 929 z "},"@":{"ha":803,"x_min":-3,"x_max":806,"o":"m 506 929 q 630 909 574 929 q 725 853 686 888 q 785 771 764 818 q 806 671 806 724 l 806 258 q 785 158 806 205 q 725 76 764 111 q 630 20 686 41 q 506 0 574 0 l 297 0 q 173 20 229 0 q 78 76 117 41 q 18 158 39 111 q -3 258 -3 205 l -3 671 q 18 771 -3 724 q 78 853 39 818 q 173 909 117 888 q 297 929 229 929 l 506 929 m 332 518 l 400 526 l 429 526 l 500 519 l 500 447 l 427 439 l 400 439 l 338 447 l 326 485 l 332 518 m 564 621 l 553 684 l 506 730 l 432 739 l 376 739 l 296 722 l 309 673 l 378 688 l 431 688 l 489 677 l 500 639 l 500 575 l 432 583 l 395 583 l 321 574 l 274 526 l 262 496 l 262 472 l 274 440 l 321 393 l 395 385 l 432 385 l 511 404 l 545 336 l 673 336 l 701 383 l 711 447 q 710 464 711 454 q 710 492 710 474 q 710 536 710 509 q 710 603 710 563 q 707 660 710 629 q 696 721 705 690 q 670 780 687 751 q 624 830 653 808 q 553 865 595 852 q 452 878 511 878 q 300 864 360 878 q 204 827 241 850 q 151 774 168 804 q 127 711 134 744 q 122 652 122 682 q 122 642 122 645 q 123 574 123 631 q 125 472 123 519 q 134 386 127 425 q 157 319 142 348 q 198 271 172 290 q 265 241 225 251 l 444 231 l 449 292 q 384 290 413 290 q 271 302 311 290 q 210 347 230 315 q 186 432 191 378 q 182 567 182 486 l 182 642 q 189 705 182 674 q 223 761 196 736 q 304 801 250 786 q 452 817 358 817 q 557 799 517 817 q 617 752 596 781 q 645 687 638 723 q 652 616 652 652 l 652 424 l 640 383 l 575 383 l 564 424 l 564 621 z "},"A":{"ha":803,"x_min":-3,"x_max":806,"o":"m 506 929 q 630 909 574 929 q 725 853 686 888 q 785 771 764 818 q 806 671 806 724 l 806 258 q 785 158 806 205 q 725 76 764 111 q 630 20 686 41 q 506 0 574 0 l 297 0 q 173 20 229 0 q 78 76 117 41 q 18 158 39 111 q -3 258 -3 205 l -3 671 q 18 771 -3 724 q 78 853 39 818 q 173 909 117 888 q 297 929 229 929 l 506 929 m 568 307 l 646 307 l 592 812 l 550 854 l 460 868 l 387 868 l 297 854 l 256 812 l 200 307 l 281 307 l 292 452 l 298 514 l 549 514 l 555 452 l 568 307 m 521 786 q 532 682 526 731 q 543 579 538 633 l 304 579 l 325 786 q 358 791 344 788 q 391 796 372 793 l 457 796 l 521 786 z "},"B":{"ha":803,"x_min":-3,"x_max":806,"o":"m 506 929 q 630 909 574 929 q 725 853 686 888 q 785 771 764 818 q 806 671 806 724 l 806 258 q 785 158 806 205 q 725 76 764 111 q 630 20 686 41 q 506 0 574 0 l 297 0 q 173 20 229 0 q 78 76 117 41 q 18 158 39 111 q -3 258 -3 205 l -3 671 q 18 771 -3 724 q 78 853 39 818 q 173 909 117 888 q 297 929 229 929 l 506 929 m 615 522 l 602 572 l 548 596 l 602 616 l 615 668 l 615 758 l 606 815 l 563 859 l 493 868 l 208 868 l 208 307 l 493 307 l 563 315 l 606 358 l 615 415 l 615 522 m 534 386 l 489 379 l 281 379 l 281 558 l 490 558 l 536 553 l 543 513 l 543 422 l 534 386 m 534 637 l 489 629 l 281 629 l 281 796 l 489 796 l 536 789 l 534 749 l 543 673 l 534 637 z "},"C":{"ha":803,"x_min":-3,"x_max":806,"o":"m 497 868 l 334 868 l 264 860 l 221 817 l 211 760 l 211 415 l 221 358 l 265 315 l 334 307 l 497 307 l 576 317 l 559 390 l 496 379 l 338 379 l 293 386 l 283 427 l 283 753 l 290 790 l 338 798 l 493 798 l 563 786 l 576 859 l 497 868 m 506 929 q 630 909 574 929 q 725 853 686 888 q 785 771 764 818 q 806 671 806 724 l 806 258 q 785 158 806 205 q 725 76 764 111 q 630 20 686 41 q 506 0 574 0 l 297 0 q 173 20 229 0 q 78 76 117 41 q 18 158 39 111 q -3 258 -3 205 l -3 671 q 18 771 -3 724 q 78 853 39 818 q 173 909 117 888 q 297 929 229 929 l 506 929 z "},"D":{"ha":803,"x_min":-3,"x_max":806,"o":"m 506 929 q 630 909 574 929 q 725 853 686 888 q 785 771 764 818 q 806 671 806 724 l 806 258 q 785 158 806 205 q 725 76 764 111 q 630 20 686 41 q 506 0 574 0 l 297 0 q 173 20 229 0 q 78 76 117 41 q 18 158 39 111 q -3 258 -3 205 l -3 671 q 18 771 -3 724 q 78 853 39 818 q 173 909 117 888 q 297 929 229 929 l 506 929 m 647 758 l 637 815 l 595 859 l 525 868 l 222 868 l 222 307 l 525 307 l 595 315 l 637 358 l 647 416 l 647 758 m 566 386 l 521 379 l 293 379 l 293 796 l 521 796 l 568 789 l 575 749 l 575 424 l 566 386 z "},"E":{"ha":803,"x_min":-3,"x_max":806,"o":"m 614 379 l 343 379 l 343 551 l 570 551 l 570 623 l 343 623 l 343 796 l 604 796 l 604 868 l 273 868 l 273 307 l 614 307 l 614 379 m 506 929 q 630 909 574 929 q 725 853 686 888 q 785 771 764 818 q 806 671 806 724 l 806 258 q 785 158 806 205 q 725 76 764 111 q 630 20 686 41 q 506 0 574 0 l 297 0 q 173 20 229 0 q 78 76 117 41 q 18 158 39 111 q -3 258 -3 205 l -3 671 q 18 771 -3 724 q 78 853 39 818 q 173 909 117 888 q 297 929 229 929 l 506 929 z "},"F":{"ha":803,"x_min":-3,"x_max":806,"o":"m 568 635 l 342 635 l 342 796 l 607 796 l 607 868 l 269 868 l 269 307 l 342 307 l 342 564 l 568 564 l 568 635 m 506 929 q 630 909 574 929 q 725 853 686 888 q 785 771 764 818 q 806 671 806 724 l 806 258 q 785 158 806 205 q 725 76 764 111 q 630 20 686 41 q 506 0 574 0 l 297 0 q 173 20 229 0 q 78 76 117 41 q 18 158 39 111 q -3 258 -3 205 l -3 671 q 18 771 -3 724 q 78 853 39 818 q 173 909 117 888 q 297 929 229 929 l 506 929 z "},"G":{"ha":803,"x_min":-3,"x_max":806,"o":"m 355 798 l 532 798 l 602 786 l 615 859 l 536 868 l 354 868 l 285 857 l 241 814 l 232 757 l 232 416 l 241 358 l 286 315 l 354 307 l 524 307 l 592 315 l 636 358 l 646 416 l 646 595 l 449 595 l 449 522 l 574 522 l 574 427 q 569 406 570 416 q 564 386 568 397 l 519 379 l 355 379 l 314 386 l 304 429 l 304 750 l 311 787 l 355 798 m 506 929 q 630 909 574 929 q 725 853 686 888 q 785 771 764 818 q 806 671 806 724 l 806 258 q 785 158 806 205 q 725 76 764 111 q 630 20 686 41 q 506 0 574 0 l 297 0 q 173 20 229 0 q 78 76 117 41 q 18 158 39 111 q -3 258 -3 205 l -3 671 q 18 771 -3 724 q 78 853 39 818 q 173 909 117 888 q 297 929 229 929 l 506 929 z "},"H":{"ha":803,"x_min":-3,"x_max":806,"o":"m 647 868 l 576 868 l 576 631 l 294 631 l 294 868 l 222 868 l 222 307 l 294 307 l 294 559 l 576 559 l 576 307 l 647 307 l 647 868 m 506 929 q 630 909 574 929 q 725 853 686 888 q 785 771 764 818 q 806 671 806 724 l 806 258 q 785 158 806 205 q 725 76 764 111 q 630 20 686 41 q 506 0 574 0 l 297 0 q 173 20 229 0 q 78 76 117 41 q 18 158 39 111 q -3 258 -3 205 l -3 671 q 18 771 -3 724 q 78 853 39 818 q 173 909 117 888 q 297 929 229 929 l 506 929 z "},"I":{"ha":803,"x_min":-3,"x_max":806,"o":"m 243 379 l 243 307 l 635 307 l 635 379 l 475 379 l 475 796 l 635 796 l 635 868 l 243 868 l 243 796 l 403 796 l 403 379 l 243 379 m 506 929 q 630 909 574 929 q 725 853 686 888 q 785 771 764 818 q 806 671 806 724 l 806 258 q 785 158 806 205 q 725 76 764 111 q 630 20 686 41 q 506 0 574 0 l 297 0 q 173 20 229 0 q 78 76 117 41 q 18 158 39 111 q -3 258 -3 205 l -3 671 q 18 771 -3 724 q 78 853 39 818 q 173 909 117 888 q 297 929 229 929 l 506 929 z "},"J":{"ha":803,"x_min":-3,"x_max":806,"o":"m 506 929 q 630 909 574 929 q 725 853 686 888 q 785 771 764 818 q 806 671 806 724 l 806 258 q 785 158 806 205 q 725 76 764 111 q 630 20 686 41 q 506 0 574 0 l 297 0 q 173 20 229 0 q 78 76 117 41 q 18 158 39 111 q -3 258 -3 205 l -3 671 q 18 771 -3 724 q 78 853 39 818 q 173 909 117 888 q 297 929 229 929 l 506 929 m 463 868 l 463 428 l 453 387 l 408 379 l 307 379 l 307 307 l 412 307 l 481 317 l 534 358 l 534 868 l 463 868 z "},"K":{"ha":803,"x_min":-3,"x_max":806,"o":"m 444 600 l 677 831 l 628 888 l 349 611 l 349 868 l 277 868 l 277 307 l 349 307 l 349 519 q 369 537 360 529 q 388 554 377 545 l 610 294 l 668 345 l 444 600 m 506 929 q 630 909 574 929 q 725 853 686 888 q 785 771 764 818 q 806 671 806 724 l 806 258 q 785 158 806 205 q 725 76 764 111 q 630 20 686 41 q 506 0 574 0 l 297 0 q 173 20 229 0 q 78 76 117 41 q 18 158 39 111 q -3 258 -3 205 l -3 671 q 18 771 -3 724 q 78 853 39 818 q 173 909 117 888 q 297 929 229 929 l 506 929 z "},"L":{"ha":803,"x_min":-3,"x_max":806,"o":"m 585 379 l 376 379 l 376 868 l 304 868 l 304 307 l 585 307 l 585 379 m 506 929 q 630 909 574 929 q 725 853 686 888 q 785 771 764 818 q 806 671 806 724 l 806 258 q 785 158 806 205 q 725 76 764 111 q 630 20 686 41 q 506 0 574 0 l 297 0 q 173 20 229 0 q 78 76 117 41 q 18 158 39 111 q -3 258 -3 205 l -3 671 q 18 771 -3 724 q 78 853 39 818 q 173 909 117 888 q 297 929 229 929 l 506 929 z "},"M":{"ha":803,"x_min":-3,"x_max":806,"o":"m 506 929 q 630 909 574 929 q 725 853 686 888 q 785 771 764 818 q 806 671 806 724 l 806 258 q 785 158 806 205 q 725 76 764 111 q 630 20 686 41 q 506 0 574 0 l 297 0 q 173 20 229 0 q 78 76 117 41 q 18 158 39 111 q -3 258 -3 205 l -3 671 q 18 771 -3 724 q 78 853 39 818 q 173 909 117 888 q 297 929 229 929 l 506 929 m 400 857 l 363 868 l 274 868 l 217 859 l 174 815 l 174 307 l 246 307 l 246 790 q 263 793 256 792 q 279 796 271 793 l 357 796 q 371 793 364 793 q 386 790 378 792 l 386 503 l 458 503 l 458 790 l 488 796 l 566 796 q 582 793 574 793 q 599 790 590 792 l 599 307 l 671 307 l 671 815 l 628 859 l 571 868 l 482 868 l 446 857 l 422 810 l 400 857 z "},"N":{"ha":803,"x_min":-3,"x_max":806,"o":"m 632 760 l 623 817 l 579 860 l 510 868 l 340 868 l 218 851 l 218 307 l 290 307 l 290 789 l 343 798 l 506 798 l 553 790 l 559 750 l 559 307 l 632 307 l 632 760 m 506 929 q 630 909 574 929 q 725 853 686 888 q 785 771 764 818 q 806 671 806 724 l 806 258 q 785 158 806 205 q 725 76 764 111 q 630 20 686 41 q 506 0 574 0 l 297 0 q 173 20 229 0 q 78 76 117 41 q 18 158 39 111 q -3 258 -3 205 l -3 671 q 18 771 -3 724 q 78 853 39 818 q 173 909 117 888 q 297 929 229 929 l 506 929 z "},"O":{"ha":803,"x_min":-3,"x_max":806,"o":"m 506 929 q 630 909 574 929 q 725 853 686 888 q 785 771 764 818 q 806 671 806 724 l 806 258 q 785 158 806 205 q 725 76 764 111 q 630 20 686 41 q 506 0 574 0 l 297 0 q 173 20 229 0 q 78 76 117 41 q 18 158 39 111 q -3 258 -3 205 l -3 671 q 18 771 -3 724 q 78 853 39 818 q 173 909 117 888 q 297 929 229 929 l 506 929 m 646 758 l 636 815 l 593 859 l 524 868 l 342 868 l 273 859 l 229 815 l 221 758 l 221 416 l 229 358 l 274 315 l 342 307 l 524 307 l 593 315 l 636 358 l 646 416 l 646 758 m 564 386 l 519 379 l 346 379 l 302 386 l 292 427 l 292 751 l 298 789 l 346 796 l 519 796 l 567 789 l 574 749 l 574 424 l 564 386 z "},"P":{"ha":803,"x_min":-3,"x_max":806,"o":"m 506 929 q 630 909 574 929 q 725 853 686 888 q 785 771 764 818 q 806 671 806 724 l 806 258 q 785 158 806 205 q 725 76 764 111 q 630 20 686 41 q 506 0 574 0 l 297 0 q 173 20 229 0 q 78 76 117 41 q 18 158 39 111 q -3 258 -3 205 l -3 671 q 18 771 -3 724 q 78 853 39 818 q 173 909 117 888 q 297 929 229 929 l 506 929 m 631 758 l 621 815 l 578 859 l 509 868 l 256 868 l 256 307 l 326 307 l 326 507 l 509 507 l 578 515 l 621 558 l 631 616 l 631 758 m 549 586 l 505 579 l 326 579 l 326 796 l 505 796 l 551 789 l 558 749 l 558 624 l 549 586 z "},"Q":{"ha":803,"x_min":-3,"x_max":806,"o":"m 506 929 q 630 909 574 929 q 725 853 686 888 q 785 771 764 818 q 806 671 806 724 l 806 258 q 785 158 806 205 q 725 76 764 111 q 630 20 686 41 q 506 0 574 0 l 297 0 q 173 20 229 0 q 78 76 117 41 q 18 158 39 111 q -3 258 -3 205 l -3 671 q 18 771 -3 724 q 78 853 39 818 q 173 909 117 888 q 297 929 229 929 l 506 929 m 647 758 l 637 815 l 595 859 l 525 868 l 343 868 l 274 859 l 231 815 l 222 758 l 222 416 l 231 358 l 275 315 l 343 307 l 464 307 l 517 203 l 581 233 l 543 310 l 595 315 l 637 358 l 647 416 l 647 758 m 566 386 l 521 379 l 507 379 l 467 458 l 404 424 l 425 379 l 347 379 l 303 386 l 293 427 l 293 751 l 300 789 l 347 796 l 521 796 l 568 789 l 575 749 l 575 424 l 566 386 z "},"R":{"ha":803,"x_min":-3,"x_max":806,"o":"m 506 929 q 630 909 574 929 q 725 853 686 888 q 785 771 764 818 q 806 671 806 724 l 806 258 q 785 158 806 205 q 725 76 764 111 q 630 20 686 41 q 506 0 574 0 l 297 0 q 173 20 229 0 q 78 76 117 41 q 18 158 39 111 q -3 258 -3 205 l -3 671 q 18 771 -3 724 q 78 853 39 818 q 173 909 117 888 q 297 929 229 929 l 506 929 m 541 475 l 541 307 l 612 307 l 612 482 l 589 545 l 511 572 l 586 608 l 607 669 l 607 745 l 599 802 l 554 859 l 486 868 l 233 868 l 233 307 l 306 307 l 306 533 l 482 533 l 530 511 l 541 475 m 482 796 l 530 775 l 535 736 l 535 664 l 525 627 l 482 606 l 306 606 l 306 796 l 482 796 z "},"S":{"ha":803,"x_min":-3,"x_max":806,"o":"m 506 929 q 630 909 574 929 q 725 853 686 888 q 785 771 764 818 q 806 671 806 724 l 806 258 q 785 158 806 205 q 725 76 764 111 q 630 20 686 41 q 506 0 574 0 l 297 0 q 173 20 229 0 q 78 76 117 41 q 18 158 39 111 q -3 258 -3 205 l -3 671 q 18 771 -3 724 q 78 853 39 818 q 173 909 117 888 q 297 929 229 929 l 506 929 m 633 519 l 624 578 l 581 621 l 510 628 l 358 628 l 317 636 q 312 657 313 648 q 307 676 311 666 l 307 747 l 317 787 l 361 796 l 534 796 l 597 783 l 614 857 l 535 868 l 357 868 l 289 859 l 245 815 l 236 758 l 236 665 l 245 608 l 289 566 l 357 557 l 510 557 l 551 550 q 556 531 553 540 q 561 513 559 522 l 561 424 q 556 405 559 415 q 551 386 553 395 l 507 379 l 339 379 l 273 390 l 256 317 l 335 307 l 511 307 l 581 315 l 624 358 l 633 416 l 633 519 z "},"T":{"ha":803,"x_min":-3,"x_max":806,"o":"m 635 868 l 243 868 l 243 796 l 403 796 l 403 307 l 475 307 l 475 796 l 635 796 l 635 868 m 506 929 q 630 909 574 929 q 725 853 686 888 q 785 771 764 818 q 806 671 806 724 l 806 258 q 785 158 806 205 q 725 76 764 111 q 630 20 686 41 q 506 0 574 0 l 297 0 q 173 20 229 0 q 78 76 117 41 q 18 158 39 111 q -3 258 -3 205 l -3 671 q 18 771 -3 724 q 78 853 39 818 q 173 909 117 888 q 297 929 229 929 l 506 929 z "},"U":{"ha":803,"x_min":-3,"x_max":806,"o":"m 506 929 q 630 909 574 929 q 725 853 686 888 q 785 771 764 818 q 806 671 806 724 l 806 258 q 785 158 806 205 q 725 76 764 111 q 630 20 686 41 q 506 0 574 0 l 297 0 q 173 20 229 0 q 78 76 117 41 q 18 158 39 111 q -3 258 -3 205 l -3 671 q 18 771 -3 724 q 78 853 39 818 q 173 909 117 888 q 297 929 229 929 l 506 929 m 642 868 l 570 868 l 570 424 q 565 405 568 415 q 559 386 562 395 l 515 379 l 342 379 l 297 386 l 288 427 l 288 868 l 217 868 l 217 416 l 225 358 l 269 315 l 338 307 l 519 307 l 589 315 l 632 358 l 642 416 l 642 868 z "},"V":{"ha":803,"x_min":-3,"x_max":806,"o":"m 427 302 l 472 315 l 513 355 l 646 854 l 567 868 l 444 383 l 429 378 l 411 382 l 289 868 l 210 854 l 343 355 l 383 315 l 427 302 m 506 929 q 630 909 574 929 q 725 853 686 888 q 785 771 764 818 q 806 671 806 724 l 806 258 q 785 158 806 205 q 725 76 764 111 q 630 20 686 41 q 506 0 574 0 l 297 0 q 173 20 229 0 q 78 76 117 41 q 18 158 39 111 q -3 258 -3 205 l -3 671 q 18 771 -3 724 q 78 853 39 818 q 173 909 117 888 q 297 929 229 929 l 506 929 z "},"W":{"ha":803,"x_min":-3,"x_max":806,"o":"m 453 846 l 386 846 l 306 383 l 290 378 l 273 382 l 227 868 l 149 854 l 203 357 l 245 315 l 289 304 l 334 315 l 375 357 l 420 656 l 464 357 l 506 315 l 550 304 l 595 315 l 636 357 l 690 854 l 612 868 l 567 382 l 549 378 l 534 383 l 453 846 m 297 0 q 173 20 229 0 q 78 76 117 41 q 18 158 39 111 q -3 258 -3 205 l -3 671 q 18 771 -3 724 q 78 853 39 818 q 173 909 117 888 q 297 929 229 929 l 506 929 q 630 909 574 929 q 725 853 686 888 q 785 771 764 818 q 806 671 806 724 l 806 258 q 785 158 806 205 q 725 76 764 111 q 630 20 686 41 q 506 0 574 0 l 297 0 z "},"X":{"ha":803,"x_min":-3,"x_max":806,"o":"m 506 929 q 630 909 574 929 q 725 853 686 888 q 785 771 764 818 q 806 671 806 724 l 806 258 q 785 158 806 205 q 725 76 764 111 q 630 20 686 41 q 506 0 574 0 l 297 0 q 173 20 229 0 q 78 76 117 41 q 18 158 39 111 q -3 258 -3 205 l -3 671 q 18 771 -3 724 q 78 853 39 818 q 173 909 117 888 q 297 929 229 929 l 506 929 m 589 869 l 435 625 l 285 869 l 220 842 l 378 586 l 221 332 l 285 306 l 435 542 l 589 306 l 653 332 l 496 586 l 656 844 l 589 869 z "},"Y":{"ha":803,"x_min":-3,"x_max":806,"o":"m 311 868 l 227 868 l 396 465 l 396 307 l 468 307 l 468 464 l 640 868 l 555 868 l 432 564 l 311 868 m 506 929 q 630 909 574 929 q 725 853 686 888 q 785 771 764 818 q 806 671 806 724 l 806 258 q 785 158 806 205 q 725 76 764 111 q 630 20 686 41 q 506 0 574 0 l 297 0 q 173 20 229 0 q 78 76 117 41 q 18 158 39 111 q -3 258 -3 205 l -3 671 q 18 771 -3 724 q 78 853 39 818 q 173 909 117 888 q 297 929 229 929 l 506 929 z "},"Z":{"ha":803,"x_min":-3,"x_max":806,"o":"m 600 378 l 345 378 l 585 808 l 557 868 l 267 868 l 267 796 l 496 796 l 256 366 l 278 307 l 600 307 l 600 378 m 506 929 q 630 909 574 929 q 725 853 686 888 q 785 771 764 818 q 806 671 806 724 l 806 258 q 785 158 806 205 q 725 76 764 111 q 630 20 686 41 q 506 0 574 0 l 297 0 q 173 20 229 0 q 78 76 117 41 q 18 158 39 111 q -3 258 -3 205 l -3 671 q 18 771 -3 724 q 78 853 39 818 q 173 909 117 888 q 297 929 229 929 l 506 929 z "},"[":{"ha":673,"x_min":-3,"x_max":676,"o":"m 401 311 l 357 311 l 357 814 l 401 814 l 401 885 l 284 885 l 284 240 l 401 240 l 401 311 m 376 929 q 500 909 445 929 q 595 853 556 888 q 655 771 634 818 q 676 671 676 724 l 676 258 q 655 158 676 205 q 595 76 634 111 q 500 20 556 41 q 376 0 445 0 l 297 0 q 173 20 229 0 q 78 76 117 41 q 18 158 39 111 q -3 258 -3 205 l -3 671 q 18 771 -3 724 q 78 853 39 818 q 173 909 117 888 q 297 929 229 929 l 376 929 z "},"\\":{"ha":717,"x_min":-3,"x_max":720,"o":"m 288 868 l 380 307 l 454 307 l 361 868 l 288 868 m 420 929 q 544 909 488 929 q 638 853 600 888 q 699 771 677 818 q 720 671 720 724 l 720 258 q 699 158 720 205 q 638 76 677 111 q 544 20 600 41 q 420 0 488 0 l 297 0 q 173 20 229 0 q 78 76 117 41 q 18 158 39 111 q -3 258 -3 205 l -3 671 q 18 771 -3 724 q 78 853 39 818 q 173 909 117 888 q 297 929 229 929 l 420 929 z "},"]":{"ha":673,"x_min":-3,"x_max":676,"o":"m 273 240 l 389 240 l 389 885 l 273 885 l 273 814 l 317 814 l 317 311 l 273 311 l 273 240 m 376 929 q 500 909 445 929 q 595 853 556 888 q 655 771 634 818 q 676 671 676 724 l 676 258 q 655 158 676 205 q 595 76 634 111 q 500 20 556 41 q 376 0 445 0 l 297 0 q 173 20 229 0 q 78 76 117 41 q 18 158 39 111 q -3 258 -3 205 l -3 671 q 18 771 -3 724 q 78 853 39 818 q 173 909 117 888 q 297 929 229 929 l 376 929 z "},"^":{"ha":494,"x_min":-3,"x_max":497,"o":"m 328 330 q 282 346 300 338 q 249 370 264 355 q 207 342 230 350 q 144 330 183 334 l 117 330 q -3 457 -3 362 q 9 521 -3 484 q 37 599 20 558 q 72 681 54 640 q 106 757 91 722 q 129 783 118 772 q 152 802 140 794 q 178 815 163 809 q 211 826 192 821 l 261 826 q 310 818 290 823 q 345 803 330 813 q 373 777 360 793 q 399 736 385 761 q 446 621 422 678 q 493 507 469 564 q 497 464 497 483 q 355 330 497 342 l 328 330 m 248 644 l 339 464 l 367 464 l 273 693 l 222 693 l 128 464 l 155 464 l 248 644 z "},"_":{"ha":595,"x_min":-3,"x_max":597,"o":"m 142 307 l 142 233 l 453 233 l 453 307 l 142 307 m 297 929 q 421 909 366 929 q 516 853 477 888 q 576 771 555 818 q 597 671 597 724 l 597 258 q 576 158 597 205 q 516 76 555 111 q 421 20 477 41 q 297 0 366 0 q 173 20 229 0 q 78 76 117 41 q 18 158 39 111 q -3 258 -3 205 l -3 671 q 18 771 -3 724 q 78 853 39 818 q 173 909 117 888 q 297 929 229 929 z "},"`":{"ha":428,"x_min":-3,"x_max":431,"o":"m 163 16 q 149 33 155 23 q 134 57 142 43 l 26 240 q 4 289 11 266 q -3 330 -3 311 q 14 389 -3 363 q 59 432 31 414 q 123 458 87 449 q 197 467 159 467 q 252 463 226 467 q 299 450 278 458 q 336 426 321 441 q 360 390 352 411 q 397 271 383 317 q 418 195 411 224 q 428 152 426 166 q 431 131 431 138 q 424 93 431 111 q 406 60 417 75 q 379 34 394 45 q 349 16 364 22 l 163 16 m 249 122 l 296 122 l 228 349 l 146 349 l 249 122 z "},"a":{"ha":803,"x_min":-3,"x_max":806,"o":"m 589 308 l 589 463 l 589 760 l 589 817 l 543 860 l 475 868 l 321 868 l 241 859 l 258 785 l 322 798 l 473 798 l 514 789 l 524 753 l 524 595 l 475 603 l 321 603 l 253 593 l 210 550 l 200 494 l 200 415 l 210 358 l 253 315 l 321 307 l 469 307 l 522 315 l 589 308 m 524 386 l 471 379 l 325 379 l 282 386 l 273 427 l 273 485 l 278 524 l 325 530 l 472 530 l 524 525 l 524 422 l 524 386 m 506 929 q 630 909 574 929 q 725 853 686 888 q 785 771 764 818 q 806 671 806 724 l 806 258 q 785 158 806 205 q 725 76 764 111 q 630 20 686 41 q 506 0 574 0 l 297 0 q 173 20 229 0 q 78 76 117 41 q 18 158 39 111 q -3 258 -3 205 l -3 671 q 18 771 -3 724 q 78 853 39 818 q 173 909 117 888 q 297 929 229 929 l 506 929 z "},"b":{"ha":803,"x_min":-3,"x_max":806,"o":"m 506 929 q 630 909 574 929 q 725 853 686 888 q 785 771 764 818 q 806 671 806 724 l 806 258 q 785 158 806 205 q 725 76 764 111 q 630 20 686 41 q 506 0 574 0 l 297 0 q 173 20 229 0 q 78 76 117 41 q 18 158 39 111 q -3 258 -3 205 l -3 671 q 18 771 -3 724 q 78 853 39 818 q 173 909 117 888 q 297 929 229 929 l 506 929 m 615 522 l 602 572 l 548 596 l 602 616 l 615 668 l 615 758 l 606 815 l 563 859 l 493 868 l 208 868 l 208 307 l 493 307 l 563 315 l 606 358 l 615 415 l 615 522 m 534 386 l 489 379 l 281 379 l 281 558 l 490 558 l 536 553 l 543 513 l 543 422 l 534 386 m 534 637 l 489 629 l 281 629 l 281 796 l 489 796 l 536 789 l 534 749 l 543 673 l 534 637 z "},"c":{"ha":803,"x_min":-3,"x_max":806,"o":"m 497 868 l 334 868 l 264 860 l 221 817 l 211 760 l 211 415 l 221 358 l 265 315 l 334 307 l 497 307 l 576 317 l 559 390 l 496 379 l 338 379 l 293 386 l 283 427 l 283 753 l 290 790 l 338 798 l 493 798 l 563 786 l 576 859 l 497 868 m 506 929 q 630 909 574 929 q 725 853 686 888 q 785 771 764 818 q 806 671 806 724 l 806 258 q 785 158 806 205 q 725 76 764 111 q 630 20 686 41 q 506 0 574 0 l 297 0 q 173 20 229 0 q 78 76 117 41 q 18 158 39 111 q -3 258 -3 205 l -3 671 q 18 771 -3 724 q 78 853 39 818 q 173 909 117 888 q 297 929 229 929 l 506 929 z "},"d":{"ha":803,"x_min":-3,"x_max":806,"o":"m 506 929 q 630 909 574 929 q 725 853 686 888 q 785 771 764 818 q 806 671 806 724 l 806 258 q 785 158 806 205 q 725 76 764 111 q 630 20 686 41 q 506 0 574 0 l 297 0 q 173 20 229 0 q 78 76 117 41 q 18 158 39 111 q -3 258 -3 205 l -3 671 q 18 771 -3 724 q 78 853 39 818 q 173 909 117 888 q 297 929 229 929 l 506 929 m 647 758 l 637 815 l 595 859 l 525 868 l 222 868 l 222 307 l 525 307 l 595 315 l 637 358 l 647 416 l 647 758 m 566 386 l 521 379 l 293 379 l 293 796 l 521 796 l 568 789 l 575 749 l 575 424 l 566 386 z "},"e":{"ha":803,"x_min":-3,"x_max":806,"o":"m 506 929 q 630 909 574 929 q 725 853 686 888 q 785 771 764 818 q 806 671 806 724 l 806 258 q 785 158 806 205 q 725 76 764 111 q 630 20 686 41 q 506 0 574 0 l 297 0 q 173 20 229 0 q 78 76 117 41 q 18 158 39 111 q -3 258 -3 205 l -3 671 q 18 771 -3 724 q 78 853 39 818 q 173 909 117 888 q 297 929 229 929 l 506 929 m 595 760 l 585 817 l 542 860 l 473 868 l 326 868 l 258 860 l 216 817 l 205 760 l 205 437 l 216 380 l 258 338 l 326 329 l 497 329 l 576 339 l 559 412 l 496 401 l 331 401 l 288 408 l 278 449 l 278 589 l 595 589 l 595 760 m 278 660 l 278 751 l 283 790 l 331 798 l 469 798 l 515 790 l 522 750 l 522 660 l 278 660 z "},"f":{"ha":803,"x_min":-3,"x_max":806,"o":"m 568 635 l 342 635 l 342 796 l 607 796 l 607 868 l 269 868 l 269 307 l 342 307 l 342 564 l 568 564 l 568 635 m 506 929 q 630 909 574 929 q 725 853 686 888 q 785 771 764 818 q 806 671 806 724 l 806 258 q 785 158 806 205 q 725 76 764 111 q 630 20 686 41 q 506 0 574 0 l 297 0 q 173 20 229 0 q 78 76 117 41 q 18 158 39 111 q -3 258 -3 205 l -3 671 q 18 771 -3 724 q 78 853 39 818 q 173 909 117 888 q 297 929 229 929 l 506 929 z "},"g":{"ha":803,"x_min":-3,"x_max":806,"o":"m 355 798 l 532 798 l 602 786 l 615 859 l 536 868 l 354 868 l 285 857 l 241 814 l 232 757 l 232 416 l 241 358 l 286 315 l 354 307 l 524 307 l 592 315 l 636 358 l 646 416 l 646 595 l 449 595 l 449 522 l 574 522 l 574 427 q 569 406 570 416 q 564 386 568 397 l 519 379 l 355 379 l 314 386 l 304 429 l 304 750 l 311 787 l 355 798 m 506 929 q 630 909 574 929 q 725 853 686 888 q 785 771 764 818 q 806 671 806 724 l 806 258 q 785 158 806 205 q 725 76 764 111 q 630 20 686 41 q 506 0 574 0 l 297 0 q 173 20 229 0 q 78 76 117 41 q 18 158 39 111 q -3 258 -3 205 l -3 671 q 18 771 -3 724 q 78 853 39 818 q 173 909 117 888 q 297 929 229 929 l 506 929 z "},"h":{"ha":803,"x_min":-3,"x_max":806,"o":"m 647 868 l 576 868 l 576 631 l 294 631 l 294 868 l 222 868 l 222 307 l 294 307 l 294 559 l 576 559 l 576 307 l 647 307 l 647 868 m 506 929 q 630 909 574 929 q 725 853 686 888 q 785 771 764 818 q 806 671 806 724 l 806 258 q 785 158 806 205 q 725 76 764 111 q 630 20 686 41 q 506 0 574 0 l 297 0 q 173 20 229 0 q 78 76 117 41 q 18 158 39 111 q -3 258 -3 205 l -3 671 q 18 771 -3 724 q 78 853 39 818 q 173 909 117 888 q 297 929 229 929 l 506 929 z "},"i":{"ha":803,"x_min":-3,"x_max":806,"o":"m 243 379 l 243 307 l 635 307 l 635 379 l 475 379 l 475 796 l 635 796 l 635 868 l 243 868 l 243 796 l 403 796 l 403 379 l 243 379 m 506 929 q 630 909 574 929 q 725 853 686 888 q 785 771 764 818 q 806 671 806 724 l 806 258 q 785 158 806 205 q 725 76 764 111 q 630 20 686 41 q 506 0 574 0 l 297 0 q 173 20 229 0 q 78 76 117 41 q 18 158 39 111 q -3 258 -3 205 l -3 671 q 18 771 -3 724 q 78 853 39 818 q 173 909 117 888 q 297 929 229 929 l 506 929 z "},"j":{"ha":803,"x_min":-3,"x_max":806,"o":"m 506 929 q 630 909 574 929 q 725 853 686 888 q 785 771 764 818 q 806 671 806 724 l 806 258 q 785 158 806 205 q 725 76 764 111 q 630 20 686 41 q 506 0 574 0 l 297 0 q 173 20 229 0 q 78 76 117 41 q 18 158 39 111 q -3 258 -3 205 l -3 671 q 18 771 -3 724 q 78 853 39 818 q 173 909 117 888 q 297 929 229 929 l 506 929 m 463 868 l 463 428 l 453 387 l 408 379 l 307 379 l 307 307 l 412 307 l 481 317 l 534 358 l 534 868 l 463 868 z "},"k":{"ha":803,"x_min":-3,"x_max":806,"o":"m 444 600 l 677 831 l 628 888 l 349 611 l 349 868 l 277 868 l 277 307 l 349 307 l 349 519 q 369 537 360 529 q 388 554 377 545 l 610 294 l 668 345 l 444 600 m 506 929 q 630 909 574 929 q 725 853 686 888 q 785 771 764 818 q 806 671 806 724 l 806 258 q 785 158 806 205 q 725 76 764 111 q 630 20 686 41 q 506 0 574 0 l 297 0 q 173 20 229 0 q 78 76 117 41 q 18 158 39 111 q -3 258 -3 205 l -3 671 q 18 771 -3 724 q 78 853 39 818 q 173 909 117 888 q 297 929 229 929 l 506 929 z "},"l":{"ha":803,"x_min":-3,"x_max":806,"o":"m 585 379 l 376 379 l 376 868 l 304 868 l 304 307 l 585 307 l 585 379 m 506 929 q 630 909 574 929 q 725 853 686 888 q 785 771 764 818 q 806 671 806 724 l 806 258 q 785 158 806 205 q 725 76 764 111 q 630 20 686 41 q 506 0 574 0 l 297 0 q 173 20 229 0 q 78 76 117 41 q 18 158 39 111 q -3 258 -3 205 l -3 671 q 18 771 -3 724 q 78 853 39 818 q 173 909 117 888 q 297 929 229 929 l 506 929 z "},"m":{"ha":803,"x_min":-3,"x_max":806,"o":"m 506 929 q 630 909 574 929 q 725 853 686 888 q 785 771 764 818 q 806 671 806 724 l 806 258 q 785 158 806 205 q 725 76 764 111 q 630 20 686 41 q 506 0 574 0 l 297 0 q 173 20 229 0 q 78 76 117 41 q 18 158 39 111 q -3 258 -3 205 l -3 671 q 18 771 -3 724 q 78 853 39 818 q 173 909 117 888 q 297 929 229 929 l 506 929 m 400 857 l 363 868 l 274 868 l 217 859 l 174 815 l 174 307 l 246 307 l 246 790 q 263 793 256 792 q 279 796 271 793 l 357 796 q 371 793 364 793 q 386 790 378 792 l 386 503 l 458 503 l 458 790 l 488 796 l 566 796 q 582 793 574 793 q 599 790 590 792 l 599 307 l 671 307 l 671 815 l 628 859 l 571 868 l 482 868 l 446 857 l 422 810 l 400 857 z "},"n":{"ha":803,"x_min":-3,"x_max":806,"o":"m 632 760 l 623 817 l 579 860 l 510 868 l 340 868 l 218 851 l 218 307 l 290 307 l 290 789 l 343 798 l 506 798 l 553 790 l 559 750 l 559 307 l 632 307 l 632 760 m 506 929 q 630 909 574 929 q 725 853 686 888 q 785 771 764 818 q 806 671 806 724 l 806 258 q 785 158 806 205 q 725 76 764 111 q 630 20 686 41 q 506 0 574 0 l 297 0 q 173 20 229 0 q 78 76 117 41 q 18 158 39 111 q -3 258 -3 205 l -3 671 q 18 771 -3 724 q 78 853 39 818 q 173 909 117 888 q 297 929 229 929 l 506 929 z "},"o":{"ha":803,"x_min":-3,"x_max":806,"o":"m 506 929 q 630 909 574 929 q 725 853 686 888 q 785 771 764 818 q 806 671 806 724 l 806 258 q 785 158 806 205 q 725 76 764 111 q 630 20 686 41 q 506 0 574 0 l 297 0 q 173 20 229 0 q 78 76 117 41 q 18 158 39 111 q -3 258 -3 205 l -3 671 q 18 771 -3 724 q 78 853 39 818 q 173 909 117 888 q 297 929 229 929 l 506 929 m 646 758 l 636 815 l 593 859 l 524 868 l 342 868 l 273 859 l 229 815 l 221 758 l 221 416 l 229 358 l 274 315 l 342 307 l 524 307 l 593 315 l 636 358 l 646 416 l 646 758 m 564 386 l 519 379 l 346 379 l 302 386 l 292 427 l 292 751 l 298 789 l 346 796 l 519 796 l 567 789 l 574 749 l 574 424 l 564 386 z "},"p":{"ha":803,"x_min":-3,"x_max":806,"o":"m 506 929 q 630 909 574 929 q 725 853 686 888 q 785 771 764 818 q 806 671 806 724 l 806 258 q 785 158 806 205 q 725 76 764 111 q 630 20 686 41 q 506 0 574 0 l 297 0 q 173 20 229 0 q 78 76 117 41 q 18 158 39 111 q -3 258 -3 205 l -3 671 q 18 771 -3 724 q 78 853 39 818 q 173 909 117 888 q 297 929 229 929 l 506 929 m 631 758 l 621 815 l 578 859 l 509 868 l 256 868 l 256 307 l 326 307 l 326 507 l 509 507 l 578 515 l 621 558 l 631 616 l 631 758 m 549 586 l 505 579 l 326 579 l 326 796 l 505 796 l 551 789 l 558 749 l 558 624 l 549 586 z "},"q":{"ha":803,"x_min":-3,"x_max":806,"o":"m 506 929 q 630 909 574 929 q 725 853 686 888 q 785 771 764 818 q 806 671 806 724 l 806 258 q 785 158 806 205 q 725 76 764 111 q 630 20 686 41 q 506 0 574 0 l 297 0 q 173 20 229 0 q 78 76 117 41 q 18 158 39 111 q -3 258 -3 205 l -3 671 q 18 771 -3 724 q 78 853 39 818 q 173 909 117 888 q 297 929 229 929 l 506 929 m 647 758 l 637 815 l 595 859 l 525 868 l 343 868 l 274 859 l 231 815 l 222 758 l 222 416 l 231 358 l 275 315 l 343 307 l 464 307 l 517 203 l 581 233 l 543 310 l 595 315 l 637 358 l 647 416 l 647 758 m 566 386 l 521 379 l 507 379 l 467 458 l 404 424 l 425 379 l 347 379 l 303 386 l 293 427 l 293 751 l 300 789 l 347 796 l 521 796 l 568 789 l 575 749 l 575 424 l 566 386 z "},"r":{"ha":803,"x_min":-3,"x_max":806,"o":"m 506 929 q 630 909 574 929 q 725 853 686 888 q 785 771 764 818 q 806 671 806 724 l 806 258 q 785 158 806 205 q 725 76 764 111 q 630 20 686 41 q 506 0 574 0 l 297 0 q 173 20 229 0 q 78 76 117 41 q 18 158 39 111 q -3 258 -3 205 l -3 671 q 18 771 -3 724 q 78 853 39 818 q 173 909 117 888 q 297 929 229 929 l 506 929 m 541 475 l 541 307 l 612 307 l 612 482 l 589 545 l 511 572 l 586 608 l 607 669 l 607 745 l 599 802 l 554 859 l 486 868 l 233 868 l 233 307 l 306 307 l 306 533 l 482 533 l 530 511 l 541 475 m 482 796 l 530 775 l 535 736 l 535 664 l 525 627 l 482 606 l 306 606 l 306 796 l 482 796 z "},"s":{"ha":803,"x_min":-3,"x_max":806,"o":"m 506 929 q 630 909 574 929 q 725 853 686 888 q 785 771 764 818 q 806 671 806 724 l 806 258 q 785 158 806 205 q 725 76 764 111 q 630 20 686 41 q 506 0 574 0 l 297 0 q 173 20 229 0 q 78 76 117 41 q 18 158 39 111 q -3 258 -3 205 l -3 671 q 18 771 -3 724 q 78 853 39 818 q 173 909 117 888 q 297 929 229 929 l 506 929 m 633 519 l 624 578 l 581 621 l 510 628 l 358 628 l 317 636 q 312 657 313 648 q 307 676 311 666 l 307 747 l 317 787 l 361 796 l 534 796 l 597 783 l 614 857 l 535 868 l 357 868 l 289 859 l 245 815 l 236 758 l 236 665 l 245 608 l 289 566 l 357 557 l 510 557 l 551 550 q 556 531 553 540 q 561 513 559 522 l 561 424 q 556 405 559 415 q 551 386 553 395 l 507 379 l 339 379 l 273 390 l 256 317 l 335 307 l 511 307 l 581 315 l 624 358 l 633 416 l 633 519 z "},"t":{"ha":803,"x_min":-3,"x_max":806,"o":"m 635 868 l 243 868 l 243 796 l 403 796 l 403 307 l 475 307 l 475 796 l 635 796 l 635 868 m 506 929 q 630 909 574 929 q 725 853 686 888 q 785 771 764 818 q 806 671 806 724 l 806 258 q 785 158 806 205 q 725 76 764 111 q 630 20 686 41 q 506 0 574 0 l 297 0 q 173 20 229 0 q 78 76 117 41 q 18 158 39 111 q -3 258 -3 205 l -3 671 q 18 771 -3 724 q 78 853 39 818 q 173 909 117 888 q 297 929 229 929 l 506 929 z "},"u":{"ha":803,"x_min":-3,"x_max":806,"o":"m 506 929 q 630 909 574 929 q 725 853 686 888 q 785 771 764 818 q 806 671 806 724 l 806 258 q 785 158 806 205 q 725 76 764 111 q 630 20 686 41 q 506 0 574 0 l 297 0 q 173 20 229 0 q 78 76 117 41 q 18 158 39 111 q -3 258 -3 205 l -3 671 q 18 771 -3 724 q 78 853 39 818 q 173 909 117 888 q 297 929 229 929 l 506 929 m 642 868 l 570 868 l 570 424 q 565 405 568 415 q 559 386 562 395 l 515 379 l 342 379 l 297 386 l 288 427 l 288 868 l 217 868 l 217 416 l 225 358 l 269 315 l 338 307 l 519 307 l 589 315 l 632 358 l 642 416 l 642 868 z "},"v":{"ha":803,"x_min":-3,"x_max":806,"o":"m 427 302 l 472 315 l 513 355 l 646 854 l 567 868 l 444 383 l 429 378 l 411 382 l 289 868 l 210 854 l 343 355 l 383 315 l 427 302 m 506 929 q 630 909 574 929 q 725 853 686 888 q 785 771 764 818 q 806 671 806 724 l 806 258 q 785 158 806 205 q 725 76 764 111 q 630 20 686 41 q 506 0 574 0 l 297 0 q 173 20 229 0 q 78 76 117 41 q 18 158 39 111 q -3 258 -3 205 l -3 671 q 18 771 -3 724 q 78 853 39 818 q 173 909 117 888 q 297 929 229 929 l 506 929 z "},"w":{"ha":803,"x_min":-3,"x_max":806,"o":"m 453 846 l 386 846 l 306 383 l 290 378 l 273 382 l 227 868 l 149 854 l 203 357 l 245 315 l 289 304 l 334 315 l 375 357 l 420 656 l 464 357 l 506 315 l 550 304 l 595 315 l 636 357 l 690 854 l 612 868 l 567 382 l 549 378 l 534 383 l 453 846 m 297 0 q 173 20 229 0 q 78 76 117 41 q 18 158 39 111 q -3 258 -3 205 l -3 671 q 18 771 -3 724 q 78 853 39 818 q 173 909 117 888 q 297 929 229 929 l 506 929 q 630 909 574 929 q 725 853 686 888 q 785 771 764 818 q 806 671 806 724 l 806 258 q 785 158 806 205 q 725 76 764 111 q 630 20 686 41 q 506 0 574 0 l 297 0 z "},"x":{"ha":803,"x_min":-3,"x_max":806,"o":"m 506 929 q 630 909 574 929 q 725 853 686 888 q 785 771 764 818 q 806 671 806 724 l 806 258 q 785 158 806 205 q 725 76 764 111 q 630 20 686 41 q 506 0 574 0 l 297 0 q 173 20 229 0 q 78 76 117 41 q 18 158 39 111 q -3 258 -3 205 l -3 671 q 18 771 -3 724 q 78 853 39 818 q 173 909 117 888 q 297 929 229 929 l 506 929 m 589 869 l 435 625 l 285 869 l 220 842 l 378 586 l 221 332 l 285 306 l 435 542 l 589 306 l 653 332 l 496 586 l 656 844 l 589 869 z "},"y":{"ha":803,"x_min":-3,"x_max":806,"o":"m 311 868 l 227 868 l 396 465 l 396 307 l 468 307 l 468 464 l 640 868 l 555 868 l 432 564 l 311 868 m 506 929 q 630 909 574 929 q 725 853 686 888 q 785 771 764 818 q 806 671 806 724 l 806 258 q 785 158 806 205 q 725 76 764 111 q 630 20 686 41 q 506 0 574 0 l 297 0 q 173 20 229 0 q 78 76 117 41 q 18 158 39 111 q -3 258 -3 205 l -3 671 q 18 771 -3 724 q 78 853 39 818 q 173 909 117 888 q 297 929 229 929 l 506 929 z "},"z":{"ha":803,"x_min":-3,"x_max":806,"o":"m 600 378 l 345 378 l 585 808 l 557 868 l 267 868 l 267 796 l 496 796 l 256 366 l 278 307 l 600 307 l 600 378 m 506 929 q 630 909 574 929 q 725 853 686 888 q 785 771 764 818 q 806 671 806 724 l 806 258 q 785 158 806 205 q 725 76 764 111 q 630 20 686 41 q 506 0 574 0 l 297 0 q 173 20 229 0 q 78 76 117 41 q 18 158 39 111 q -3 258 -3 205 l -3 671 q 18 771 -3 724 q 78 853 39 818 q 173 909 117 888 q 297 929 229 929 l 506 929 z "},"{":{"ha":673,"x_min":-3,"x_max":676,"o":"m 376 929 q 500 909 445 929 q 595 853 556 888 q 655 771 634 818 q 676 671 676 724 l 676 258 q 655 158 676 205 q 595 76 634 111 q 500 20 556 41 q 376 0 445 0 l 297 0 q 173 20 229 0 q 78 76 117 41 q 18 158 39 111 q -3 258 -3 205 l -3 671 q 18 771 -3 724 q 78 853 39 818 q 173 909 117 888 q 297 929 229 929 l 376 929 m 245 478 l 245 347 l 254 289 l 298 245 l 367 237 l 450 237 l 450 310 l 371 310 l 326 317 l 317 357 l 317 489 l 307 546 l 292 561 l 307 576 l 315 635 l 315 764 l 326 804 l 371 811 l 450 811 l 450 884 l 367 884 l 298 875 l 254 831 l 246 774 l 246 644 l 233 604 l 191 597 l 111 597 l 111 525 l 191 525 l 235 518 l 245 478 z "},"|":{"ha":673,"x_min":-3,"x_max":676,"o":"m 308 929 l 308 256 l 366 256 l 366 929 l 376 929 q 500 909 445 929 q 595 853 556 888 q 655 771 634 818 q 676 671 676 724 l 676 258 q 655 158 676 205 q 595 76 634 111 q 500 20 556 41 q 376 0 445 0 l 297 0 q 173 20 229 0 q 78 76 117 41 q 18 158 39 111 q -3 258 -3 205 l -3 671 q 18 771 -3 724 q 78 853 39 818 q 173 909 117 888 q 297 929 229 929 l 308 929 z "},"}":{"ha":673,"x_min":-3,"x_max":676,"o":"m 376 929 q 500 909 445 929 q 595 853 556 888 q 655 771 634 818 q 676 671 676 724 l 676 258 q 655 158 676 205 q 595 76 634 111 q 500 20 556 41 q 376 0 445 0 l 297 0 q 173 20 229 0 q 78 76 117 41 q 18 158 39 111 q -3 258 -3 205 l -3 671 q 18 771 -3 724 q 78 853 39 818 q 173 909 117 888 q 297 929 229 929 l 376 929 m 439 518 l 483 525 l 562 525 l 562 597 l 483 597 l 440 604 l 427 644 l 427 774 l 419 831 l 375 875 l 307 884 l 223 884 l 223 811 l 302 811 l 347 804 l 358 764 l 358 635 l 366 576 l 382 561 l 366 546 l 357 489 l 357 357 l 347 317 l 302 310 l 223 310 l 223 237 l 307 237 l 375 245 l 419 289 l 429 347 l 429 478 l 439 518 z "},"~":{"ha":803,"x_min":-3,"x_max":806,"o":"m 543 721 q 540 683 543 696 q 531 664 536 670 q 520 657 526 658 q 510 656 515 656 q 486 664 508 656 q 433 681 465 671 q 365 699 401 691 q 296 707 328 707 q 264 703 279 707 q 238 690 249 699 q 220 666 227 681 q 214 629 214 651 q 220 585 214 610 l 281 585 q 283 618 281 606 q 291 636 286 630 q 300 643 295 642 q 310 644 305 644 q 348 635 323 644 q 404 616 373 627 q 468 596 435 605 q 529 587 500 587 q 562 593 547 587 q 586 611 576 598 q 601 646 595 625 q 606 700 606 667 q 606 710 606 705 q 604 721 606 715 l 543 721 m 506 929 q 630 909 574 929 q 725 853 686 888 q 785 771 764 818 q 806 671 806 724 l 806 258 q 785 158 806 205 q 725 76 764 111 q 630 20 686 41 q 506 0 574 0 l 297 0 q 173 20 229 0 q 78 76 117 41 q 18 158 39 111 q -3 258 -3 205 l -3 671 q 18 771 -3 724 q 78 853 39 818 q 173 909 117 888 q 297 929 229 929 l 506 929 z "},"":{"ha":211,"x_min":0,"x_max":0,"o":""},"":{"ha":589,"x_min":-3,"x_max":592,"o":"m 297 929 q 419 907 364 928 q 512 851 473 886 q 571 770 551 817 q 592 671 592 724 l 592 258 q 571 158 592 205 q 511 76 550 111 q 416 20 471 41 q 292 0 361 0 q 170 21 224 0 q 77 77 115 41 q 18 159 39 113 q -3 258 -3 206 l -3 671 q 18 771 -3 724 q 78 853 39 818 q 173 909 117 888 q 297 929 229 929 m 334 297 l 334 741 l 279 741 l 279 297 l 334 297 m 264 796 l 336 796 l 336 868 l 264 868 l 264 796 z "},"":{"ha":803,"x_min":-3,"x_max":806,"o":"m 506 929 q 630 909 574 929 q 725 853 686 888 q 785 771 764 818 q 806 671 806 724 l 806 258 q 785 158 806 205 q 725 76 764 111 q 630 20 686 41 q 506 0 574 0 l 297 0 q 173 20 229 0 q 78 76 117 41 q 18 158 39 111 q -3 258 -3 205 l -3 671 q 18 771 -3 724 q 78 853 39 818 q 173 909 117 888 q 297 929 229 929 l 506 929 m 448 729 l 481 729 l 550 718 l 564 790 l 485 800 l 448 800 l 448 897 l 393 897 l 393 800 l 368 800 l 298 791 l 256 749 l 246 692 l 246 440 l 256 383 l 300 340 l 368 332 l 393 332 l 393 237 l 448 237 l 448 332 l 485 332 l 564 342 l 547 415 l 484 404 l 448 404 l 448 729 m 372 404 l 328 404 q 323 431 324 421 q 318 452 321 441 l 318 685 l 325 722 l 372 729 l 393 729 l 393 404 l 372 404 z "},"":{"ha":803,"x_min":-3,"x_max":806,"o":"m 506 929 q 630 909 574 929 q 725 853 686 888 q 785 771 764 818 q 806 671 806 724 l 806 258 q 785 158 806 205 q 725 76 764 111 q 630 20 686 41 q 506 0 574 0 l 297 0 q 173 20 229 0 q 78 76 117 41 q 18 158 39 111 q -3 258 -3 205 l -3 671 q 18 771 -3 724 q 78 853 39 818 q 173 909 117 888 q 297 929 229 929 l 506 929 m 290 549 l 290 307 l 571 307 l 571 379 l 363 379 l 363 549 l 536 549 l 536 602 l 363 602 l 363 787 l 414 798 l 452 798 l 501 789 l 501 705 l 574 705 l 574 808 l 521 860 l 450 869 l 343 860 l 290 808 l 290 602 l 241 602 l 241 549 l 290 549 z "},"":{"ha":803,"x_min":-3,"x_max":806,"o":"m 592 717 l 583 762 l 637 821 l 595 864 l 543 808 l 543 810 l 478 818 l 376 818 l 313 810 l 262 864 l 220 821 l 269 765 l 264 717 l 264 555 l 271 501 l 220 447 l 264 403 l 317 460 l 376 453 l 478 453 l 539 460 l 593 403 l 637 447 l 582 504 l 592 555 l 592 717 m 521 522 l 479 515 l 375 515 l 334 522 l 323 559 l 323 715 l 331 750 l 375 757 l 479 757 l 524 750 l 529 713 l 529 557 l 521 522 m 506 929 q 630 909 574 929 q 725 853 686 888 q 785 771 764 818 q 806 671 806 724 l 806 258 q 785 158 806 205 q 725 76 764 111 q 630 20 686 41 q 506 0 574 0 l 297 0 q 173 20 229 0 q 78 76 117 41 q 18 158 39 111 q -3 258 -3 205 l -3 671 q 18 771 -3 724 q 78 853 39 818 q 173 909 117 888 q 297 929 229 929 l 506 929 z "},"":{"ha":803,"x_min":-3,"x_max":806,"o":"m 506 929 q 630 909 574 929 q 725 853 686 888 q 785 771 764 818 q 806 671 806 724 l 806 258 q 785 158 806 205 q 725 76 764 111 q 630 20 686 41 q 506 0 574 0 l 297 0 q 173 20 229 0 q 78 76 117 41 q 18 158 39 111 q -3 258 -3 205 l -3 671 q 18 771 -3 724 q 78 853 39 818 q 173 909 117 888 q 297 929 229 929 l 506 929 m 372 467 l 372 449 l 273 449 l 273 392 l 372 392 l 372 309 l 444 309 l 444 392 l 545 392 l 545 449 l 444 449 q 444 461 444 458 q 443 465 443 464 l 444 467 l 545 467 l 545 524 l 469 524 l 616 867 l 532 867 l 408 564 l 288 867 l 203 867 l 347 524 l 273 524 l 273 467 l 372 467 z "},"":{"ha":673,"x_min":-3,"x_max":676,"o":"m 375 633 l 375 868 l 302 868 l 302 633 l 375 633 m 375 307 l 375 555 l 302 555 l 302 307 l 375 307 m 376 929 q 500 909 445 929 q 595 853 556 888 q 655 771 634 818 q 676 671 676 724 l 676 258 q 655 158 676 205 q 595 76 634 111 q 500 20 556 41 q 376 0 445 0 l 297 0 q 173 20 229 0 q 78 76 117 41 q 18 158 39 111 q -3 258 -3 205 l -3 671 q 18 771 -3 724 q 78 853 39 818 q 173 909 117 888 q 297 929 229 929 l 376 929 z "},"":{"ha":803,"x_min":-3,"x_max":806,"o":"m 290 550 l 300 493 l 339 454 l 406 448 l 474 448 l 522 439 l 534 394 l 534 353 l 522 309 l 475 300 l 300 300 l 242 311 l 227 252 l 299 242 l 476 242 l 542 252 l 582 290 l 590 346 l 590 401 l 582 457 l 542 496 q 535 496 538 496 q 529 496 532 496 l 543 550 l 543 574 l 533 631 l 494 669 l 427 676 l 358 676 l 311 685 l 300 729 l 300 750 l 311 794 l 358 803 l 534 803 l 591 792 l 606 850 l 535 861 l 357 861 l 292 851 l 252 812 l 243 757 l 243 722 l 252 667 l 292 628 l 302 626 l 290 574 l 290 550 m 408 504 l 359 511 l 349 557 l 349 568 q 353 594 351 581 q 359 620 356 607 l 427 620 l 475 612 l 485 568 l 485 551 q 480 528 483 540 q 475 504 477 515 l 408 504 m 506 929 q 630 909 574 929 q 725 853 686 888 q 785 771 764 818 q 806 671 806 724 l 806 258 q 785 158 806 205 q 725 76 764 111 q 630 20 686 41 q 506 0 574 0 l 297 0 q 173 20 229 0 q 78 76 117 41 q 18 158 39 111 q -3 258 -3 205 l -3 671 q 18 771 -3 724 q 78 853 39 818 q 173 909 117 888 q 297 929 229 929 l 506 929 z "},"":{"ha":539,"x_min":-3,"x_max":542,"o":"m 397 140 l 397 228 l 309 228 l 309 140 l 397 140 m 87 28 q 20 101 43 57 q -3 197 -3 144 q 16 275 -3 238 q 71 339 35 311 q 157 384 106 368 q 269 400 207 400 q 382 384 332 400 q 468 339 433 368 q 523 275 504 311 q 542 197 542 238 q 518 100 542 144 q 450 28 495 57 l 87 28 m 220 140 l 220 228 l 131 228 l 131 140 l 220 140 z "},"":{"ha":803,"x_min":-3,"x_max":806,"o":"m 506 929 q 630 909 574 929 q 725 853 686 888 q 785 771 764 818 q 806 671 806 724 l 806 258 q 785 158 806 205 q 725 76 764 111 q 630 20 686 41 q 506 0 574 0 l 297 0 q 173 20 229 0 q 78 76 117 41 q 18 158 39 111 q -3 258 -3 205 l -3 671 q 18 771 -3 724 q 78 853 39 818 q 173 909 117 888 q 297 929 229 929 l 506 929 m 143 550 q 165 657 143 607 q 224 744 186 707 q 311 804 261 782 q 418 825 361 825 q 525 804 475 825 q 612 744 575 782 q 671 657 650 707 q 693 550 693 607 q 671 443 693 493 q 612 356 650 393 q 525 297 575 319 q 418 275 475 275 q 311 297 361 275 q 224 356 261 319 q 165 443 186 393 q 143 550 143 493 m 97 550 q 122 425 97 484 q 191 323 147 366 q 293 254 235 279 q 418 229 351 229 q 544 254 485 229 q 646 323 602 279 q 714 425 689 366 q 739 550 739 484 q 714 675 739 616 q 646 777 689 734 q 544 846 602 821 q 418 871 485 871 q 293 846 351 871 q 191 777 235 821 q 122 675 147 734 q 97 550 97 616 m 489 751 l 374 751 l 325 746 l 296 715 l 289 675 l 289 435 l 296 395 l 326 364 l 374 358 l 489 358 l 545 366 l 534 416 l 488 408 l 378 408 l 346 414 l 339 441 l 339 671 l 345 697 l 378 701 l 486 701 l 535 694 l 545 745 l 489 751 z "},"":{"ha":803,"x_min":-3,"x_max":806,"o":"m 506 929 q 630 909 574 929 q 725 853 686 888 q 785 771 764 818 q 806 671 806 724 l 806 258 q 785 158 806 205 q 725 76 764 111 q 630 20 686 41 q 506 0 574 0 l 297 0 q 173 20 229 0 q 78 76 117 41 q 18 158 39 111 q -3 258 -3 205 l -3 671 q 18 771 -3 724 q 78 853 39 818 q 173 909 117 888 q 297 929 229 929 l 506 929 m 596 760 l 586 817 l 543 860 l 475 868 l 371 868 l 292 859 l 309 785 q 322 787 314 785 q 339 791 330 789 q 357 794 348 793 q 372 798 366 796 l 473 798 l 514 789 l 524 753 l 524 653 l 475 661 l 371 661 l 303 652 l 260 608 l 250 553 l 250 513 l 260 456 l 303 412 l 371 404 l 475 404 l 543 412 l 586 456 l 596 513 l 596 760 m 514 484 l 471 476 l 375 476 l 332 484 q 330 493 332 488 q 327 505 329 498 q 324 516 326 511 q 322 524 323 521 l 322 543 q 325 562 324 551 q 328 582 326 572 l 375 589 l 472 589 q 498 586 485 587 q 524 583 511 585 l 524 519 l 514 484 z "},"":{"ha":803,"x_min":-3,"x_max":806,"o":"m 547 277 l 579 307 l 404 541 l 579 774 l 547 806 l 354 550 l 354 532 l 547 277 m 380 277 l 412 307 l 252 541 l 412 774 l 380 806 l 201 550 l 201 532 l 380 277 m 506 929 q 630 909 574 929 q 725 853 686 888 q 785 771 764 818 q 806 671 806 724 l 806 258 q 785 158 806 205 q 725 76 764 111 q 630 20 686 41 q 506 0 574 0 l 297 0 q 173 20 229 0 q 78 76 117 41 q 18 158 39 111 q -3 258 -3 205 l -3 671 q 18 771 -3 724 q 78 853 39 818 q 173 909 117 888 q 297 929 229 929 l 506 929 z "},"":{"ha":595,"x_min":-3,"x_max":597,"o":"m 425 623 l 425 696 l 170 696 l 170 623 l 425 623 m 297 0 q 173 20 229 0 q 78 76 117 41 q 18 158 39 111 q -3 258 -3 205 l -3 671 q 18 771 -3 724 q 78 853 39 818 q 173 909 117 888 q 297 929 229 929 q 421 909 366 929 q 516 853 477 888 q 576 771 555 818 q 597 671 597 724 l 597 258 q 576 158 597 205 q 516 76 555 111 q 421 20 477 41 q 297 0 366 0 z "},"":{"ha":803,"x_min":-3,"x_max":806,"o":"m 506 929 q 630 909 574 929 q 725 853 686 888 q 785 771 764 818 q 806 671 806 724 l 806 258 q 785 158 806 205 q 725 76 764 111 q 630 20 686 41 q 506 0 574 0 l 297 0 q 173 20 229 0 q 78 76 117 41 q 18 158 39 111 q -3 258 -3 205 l -3 671 q 18 771 -3 724 q 78 853 39 818 q 173 909 117 888 q 297 929 229 929 l 506 929 m 143 550 q 165 657 143 607 q 224 744 186 707 q 311 804 261 782 q 418 825 361 825 q 525 804 475 825 q 612 744 575 782 q 671 657 650 707 q 693 550 693 607 q 671 443 693 493 q 612 356 650 393 q 525 297 575 319 q 418 275 475 275 q 311 297 361 275 q 224 356 261 319 q 165 443 186 393 q 143 550 143 493 m 97 550 q 122 425 97 484 q 191 323 147 366 q 293 254 235 279 q 418 229 351 229 q 544 254 485 229 q 646 323 602 279 q 714 425 689 366 q 739 550 739 484 q 714 675 739 616 q 646 777 689 734 q 544 846 602 821 q 418 871 485 871 q 293 846 351 871 q 191 777 235 821 q 122 675 147 734 q 97 550 97 616 m 510 478 l 510 359 l 559 359 l 559 482 l 543 526 l 489 546 l 542 571 l 555 614 l 555 667 l 550 705 l 519 746 l 471 753 l 294 753 l 294 359 l 345 359 l 345 518 l 468 518 l 503 503 l 510 478 m 468 703 l 503 688 l 506 660 l 506 610 l 498 583 l 468 570 l 345 570 l 345 703 l 468 703 z "},"":{"ha":595,"x_min":-3,"x_max":597,"o":"m 415 142 l 415 215 l 160 215 l 160 142 l 415 142 m 115 0 q 27 81 58 35 q -3 189 -3 127 q 18 273 -3 233 q 78 341 39 312 q 173 388 117 371 q 297 406 229 406 q 421 388 366 406 q 516 341 477 371 q 576 273 555 312 q 597 189 597 233 q 567 81 597 127 q 479 0 536 35 l 115 0 z "},"":{"ha":595,"x_min":-3,"x_max":597,"o":"m 297 0 q 173 20 229 0 q 78 76 117 41 q 18 158 39 111 q -3 258 -3 205 l -3 671 q 18 771 -3 724 q 78 853 39 818 q 173 909 117 888 q 297 929 229 929 q 421 909 366 929 q 516 853 477 888 q 576 771 555 818 q 597 671 597 724 l 597 258 q 576 158 597 205 q 516 76 555 111 q 421 20 477 41 q 297 0 366 0 m 274 859 l 221 848 l 182 810 l 174 746 l 182 675 l 221 636 l 274 628 l 322 628 l 375 636 l 415 676 l 422 739 l 415 810 l 375 848 l 322 859 l 274 859 m 355 787 l 363 743 l 355 699 l 315 689 l 279 689 l 241 696 l 235 743 l 241 790 l 282 798 l 318 798 l 355 787 z "},"":{"ha":595,"x_min":-3,"x_max":597,"o":"m 425 404 l 425 478 l 170 478 l 170 404 l 425 404 m 471 736 l 338 736 l 338 869 l 267 869 l 267 736 l 135 736 l 135 664 l 267 664 l 267 532 l 338 532 l 338 664 l 471 664 l 471 736 m 297 0 q 173 20 229 0 q 78 76 117 41 q 18 158 39 111 q -3 258 -3 205 l -3 671 q 18 771 -3 724 q 78 853 39 818 q 173 909 117 888 q 297 929 229 929 q 421 909 366 929 q 516 853 477 888 q 576 771 555 818 q 597 671 597 724 l 597 258 q 576 158 597 205 q 516 76 555 111 q 421 20 477 41 q 297 0 366 0 z "},"":{"ha":803,"x_min":-3,"x_max":806,"o":"m 506 929 q 630 909 574 929 q 725 853 686 888 q 785 771 764 818 q 806 671 806 724 l 806 258 q 785 158 806 205 q 725 76 764 111 q 630 20 686 41 q 506 0 574 0 l 297 0 q 173 20 229 0 q 78 76 117 41 q 18 158 39 111 q -3 258 -3 205 l -3 671 q 18 771 -3 724 q 78 853 39 818 q 173 909 117 888 q 297 929 229 929 l 506 929 m 487 755 l 477 728 l 385 717 l 307 694 l 276 664 l 267 608 l 267 546 l 311 503 l 530 503 l 530 574 l 338 574 l 338 600 l 344 637 l 439 648 l 519 671 l 549 700 l 559 746 l 559 765 l 549 815 l 506 859 l 437 868 l 388 868 l 319 859 l 276 815 l 264 757 l 337 750 l 345 789 l 393 796 l 433 796 l 480 789 l 487 755 z "},"":{"ha":803,"x_min":-3,"x_max":806,"o":"m 506 929 q 630 909 574 929 q 725 853 686 888 q 785 771 764 818 q 806 671 806 724 l 806 258 q 785 158 806 205 q 725 76 764 111 q 630 20 686 41 q 506 0 574 0 l 297 0 q 173 20 229 0 q 78 76 117 41 q 18 158 39 111 q -3 258 -3 205 l -3 671 q 18 771 -3 724 q 78 853 39 818 q 173 909 117 888 q 297 929 229 929 l 506 929 m 521 728 l 477 721 l 387 721 l 387 661 l 478 661 l 524 656 l 530 618 l 521 582 l 477 575 l 401 575 l 360 582 l 349 619 l 275 612 l 288 554 l 331 511 l 400 503 l 481 503 l 550 511 l 593 554 l 603 611 l 603 624 l 593 677 l 576 693 l 593 710 l 603 760 l 603 772 l 593 815 l 550 859 l 481 868 l 400 868 l 331 859 l 288 815 l 275 770 l 349 762 l 357 789 l 404 796 l 477 796 l 524 789 l 530 762 l 521 728 z "},"":{"ha":428,"x_min":-3,"x_max":431,"o":"m 79 16 q 49 34 64 22 q 22 60 34 45 q 4 93 11 75 q -3 131 -3 111 q -1 152 -3 138 q 9 195 1 166 q 30 271 16 224 q 68 390 44 317 q 92 426 76 411 q 129 450 107 441 q 176 463 150 458 q 231 467 202 467 q 304 458 269 467 q 369 432 340 449 q 414 389 397 414 q 431 330 431 363 q 424 289 430 311 q 401 240 417 266 l 294 57 q 279 33 286 43 q 265 16 273 23 l 79 16 m 282 349 l 200 349 l 132 122 l 179 122 l 282 349 z "},"":{"ha":803,"x_min":-3,"x_max":806,"o":"m 506 929 q 630 909 574 929 q 725 853 686 888 q 785 771 764 818 q 806 671 806 724 l 806 258 q 785 158 806 205 q 725 76 764 111 q 630 20 686 41 q 506 0 574 0 l 297 0 q 173 20 229 0 q 78 76 117 41 q 18 158 39 111 q -3 258 -3 205 l -3 671 q 18 771 -3 724 q 78 853 39 818 q 173 909 117 888 q 297 929 229 929 l 506 929 m 624 867 l 551 867 l 551 425 q 547 406 550 416 q 542 387 544 396 l 497 380 l 323 380 l 279 387 l 269 428 l 269 867 l 199 867 l 199 218 l 269 218 l 269 317 l 319 309 l 501 309 l 571 317 l 614 359 l 624 418 l 624 867 z "},"":{"ha":803,"x_min":-3,"x_max":806,"o":"m 216 667 l 225 611 l 260 576 l 325 568 l 431 568 l 431 322 l 473 322 l 473 808 l 539 808 l 539 322 l 582 322 l 582 854 l 325 854 l 260 844 l 225 810 l 216 755 l 216 667 m 506 929 q 630 909 574 929 q 725 853 686 888 q 785 771 764 818 q 806 671 806 724 l 806 258 q 785 158 806 205 q 725 76 764 111 q 630 20 686 41 q 506 0 574 0 l 297 0 q 173 20 229 0 q 78 76 117 41 q 18 158 39 111 q -3 258 -3 205 l -3 671 q 18 771 -3 724 q 78 853 39 818 q 173 909 117 888 q 297 929 229 929 l 506 929 z "},"":{"ha":595,"x_min":-3,"x_max":597,"o":"m 342 608 l 342 696 l 253 696 l 253 608 l 342 608 m 297 0 q 173 20 229 0 q 78 76 117 41 q 18 158 39 111 q -3 258 -3 205 l -3 671 q 18 771 -3 724 q 78 853 39 818 q 173 909 117 888 q 297 929 229 929 q 421 909 366 929 q 516 853 477 888 q 576 771 555 818 q 597 671 597 724 l 597 258 q 576 158 597 205 q 516 76 555 111 q 421 20 477 41 q 297 0 366 0 z "},"":{"ha":140,"x_min":-3,"x_max":143,"o":"m 68 -146 l 143 -153 l 143 -214 l 46 -205 l 5 -165 l -3 -113 l -3 -100 l 5 -61 l 45 -22 l 93 -22 l 93 4 l 140 4 l 140 -75 l 65 -82 l 58 -106 l 68 -146 z "},"":{"ha":803,"x_min":-3,"x_max":806,"o":"m 457 869 l 396 869 l 297 835 l 297 762 l 385 793 l 385 503 l 457 503 l 457 869 m 506 929 q 630 909 574 929 q 725 853 686 888 q 785 771 764 818 q 806 671 806 724 l 806 258 q 785 158 806 205 q 725 76 764 111 q 630 20 686 41 q 506 0 574 0 l 297 0 q 173 20 229 0 q 78 76 117 41 q 18 158 39 111 q -3 258 -3 205 l -3 671 q 18 771 -3 724 q 78 853 39 818 q 173 909 117 888 q 297 929 229 929 l 506 929 z "},"":{"ha":803,"x_min":-3,"x_max":806,"o":"m 506 929 q 630 909 574 929 q 725 853 686 888 q 785 771 764 818 q 806 671 806 724 l 806 258 q 785 158 806 205 q 725 76 764 111 q 630 20 686 41 q 506 0 574 0 l 297 0 q 173 20 229 0 q 78 76 117 41 q 18 158 39 111 q -3 258 -3 205 l -3 671 q 18 771 -3 724 q 78 853 39 818 q 173 909 117 888 q 297 929 229 929 l 506 929 m 631 758 l 621 815 l 578 859 l 509 868 l 368 868 l 298 859 l 256 815 l 248 758 l 248 514 l 256 456 l 300 412 l 368 404 l 509 404 l 578 412 l 621 456 l 631 514 l 631 758 m 549 484 l 505 476 l 372 476 l 328 484 l 318 524 l 318 751 l 325 789 l 372 796 l 505 796 l 551 789 l 558 749 l 558 521 l 549 484 z "},"":{"ha":803,"x_min":-3,"x_max":806,"o":"m 449 532 l 449 550 l 256 806 l 224 774 l 399 541 l 224 307 l 256 277 l 449 532 m 602 532 l 602 550 l 422 806 l 391 774 l 551 541 l 391 307 l 422 277 l 602 532 m 506 929 q 630 909 574 929 q 725 853 686 888 q 785 771 764 818 q 806 671 806 724 l 806 258 q 785 158 806 205 q 725 76 764 111 q 630 20 686 41 q 506 0 574 0 l 297 0 q 173 20 229 0 q 78 76 117 41 q 18 158 39 111 q -3 258 -3 205 l -3 671 q 18 771 -3 724 q 78 853 39 818 q 173 909 117 888 q 297 929 229 929 l 506 929 z "},"":{"ha":803,"x_min":-3,"x_max":806,"o":"m 389 868 l 253 307 l 326 307 l 463 868 l 389 868 m 264 869 l 203 869 l 104 835 l 104 762 l 192 793 l 192 503 l 264 503 l 264 869 m 506 929 q 630 909 574 929 q 725 853 686 888 q 785 771 764 818 q 806 671 806 724 l 806 258 q 785 158 806 205 q 725 76 764 111 q 630 20 686 41 q 506 0 574 0 l 297 0 q 173 20 229 0 q 78 76 117 41 q 18 158 39 111 q -3 258 -3 205 l -3 671 q 18 771 -3 724 q 78 853 39 818 q 173 909 117 888 q 297 929 229 929 l 506 929 m 556 346 l 605 346 l 605 241 l 677 241 l 677 346 l 761 346 l 761 418 l 677 418 l 677 631 l 605 631 l 605 417 l 560 417 l 513 424 l 506 464 l 506 631 l 434 631 l 434 454 l 444 397 l 486 354 l 556 346 z "},"":{"ha":803,"x_min":-3,"x_max":806,"o":"m 659 561 l 649 533 l 557 522 l 478 500 l 448 469 l 439 414 l 439 351 l 482 309 l 701 309 l 701 379 l 510 379 l 510 406 l 515 443 l 611 454 l 690 476 l 721 505 l 730 551 l 730 571 l 721 621 l 678 664 l 608 673 l 559 673 l 490 664 l 448 621 l 436 562 l 509 555 l 517 595 l 564 602 l 604 602 l 652 595 l 659 561 m 389 868 l 253 307 l 326 307 l 463 868 l 389 868 m 264 869 l 203 869 l 104 835 l 104 762 l 192 793 l 192 503 l 264 503 l 264 869 m 506 929 q 630 909 574 929 q 725 853 686 888 q 785 771 764 818 q 806 671 806 724 l 806 258 q 785 158 806 205 q 725 76 764 111 q 630 20 686 41 q 506 0 574 0 l 297 0 q 173 20 229 0 q 78 76 117 41 q 18 158 39 111 q -3 258 -3 205 l -3 671 q 18 771 -3 724 q 78 853 39 818 q 173 909 117 888 q 297 929 229 929 l 506 929 z "},"":{"ha":803,"x_min":-3,"x_max":806,"o":"m 389 868 l 253 307 l 326 307 l 463 868 l 389 868 m 264 869 l 203 869 l 104 835 l 104 762 l 192 793 l 192 503 l 264 503 l 264 869 m 506 929 q 630 909 574 929 q 725 853 686 888 q 785 771 764 818 q 806 671 806 724 l 806 258 q 785 158 806 205 q 725 76 764 111 q 630 20 686 41 q 506 0 574 0 l 297 0 q 173 20 229 0 q 78 76 117 41 q 18 158 39 111 q -3 258 -3 205 l -3 671 q 18 771 -3 724 q 78 853 39 818 q 173 909 117 888 q 297 929 229 929 l 506 929 m 672 530 l 628 524 l 539 524 l 539 464 l 629 464 l 675 458 l 682 421 l 672 385 l 628 378 l 553 378 l 511 385 l 500 422 l 427 415 l 439 357 l 482 314 l 551 306 l 632 306 l 701 314 l 745 357 l 754 414 l 754 427 l 745 481 l 728 496 l 745 513 l 754 562 l 754 575 l 745 618 l 701 661 l 632 671 l 551 671 l 482 661 l 439 618 l 427 572 l 500 566 l 509 591 l 555 599 l 628 599 l 675 591 l 682 566 l 672 530 z "},"":{"ha":803,"x_min":-3,"x_max":806,"o":"m 489 802 l 489 871 l 417 871 l 417 802 l 489 802 m 297 0 q 173 20 229 0 q 78 76 117 41 q 18 158 39 111 q -3 258 -3 205 l -3 671 q 18 771 -3 724 q 78 853 39 818 q 173 909 117 888 q 297 929 229 929 l 506 929 q 630 909 574 929 q 725 853 686 888 q 785 771 764 818 q 806 671 806 724 l 806 258 q 785 158 806 205 q 725 76 764 111 q 630 20 686 41 q 506 0 574 0 l 297 0 m 482 630 l 482 763 l 424 763 l 424 651 l 366 651 l 299 642 l 260 603 l 250 547 l 250 428 l 260 372 l 299 334 l 366 323 l 505 323 l 571 334 l 610 372 l 621 435 l 562 441 q 558 415 560 430 q 555 389 557 401 l 368 382 l 316 389 l 309 435 l 309 541 l 316 586 l 454 593 l 482 630 z "},"":{"ha":803,"x_min":-3,"x_max":806,"o":"m 506 929 q 630 909 574 929 q 725 853 686 888 q 785 771 764 818 q 806 671 806 724 l 806 258 q 785 158 806 205 q 725 76 764 111 q 630 20 686 41 q 506 0 574 0 l 297 0 q 173 20 229 0 q 78 76 117 41 q 18 158 39 111 q -3 258 -3 205 l -3 671 q 18 771 -3 724 q 78 853 39 818 q 173 909 117 888 q 297 929 229 929 l 506 929 m 568 307 l 646 307 l 592 812 l 550 854 l 460 868 l 387 868 l 297 854 l 256 812 l 200 307 l 281 307 l 292 452 l 298 514 l 549 514 l 555 452 l 568 307 m 521 786 q 532 682 526 731 q 543 579 538 633 l 304 579 l 325 786 q 358 791 344 788 q 391 796 372 793 l 457 796 l 521 786 m 294 877 q 279 895 286 884 q 264 918 273 905 l 157 1101 q 135 1150 142 1127 q 128 1192 128 1173 q 145 1250 128 1225 q 190 1293 162 1276 q 254 1319 218 1310 q 328 1328 290 1328 q 383 1324 357 1328 q 430 1311 409 1320 q 467 1287 452 1302 q 491 1251 483 1272 q 528 1132 514 1179 q 549 1056 542 1085 q 559 1013 557 1027 q 562 992 562 999 q 555 954 562 972 q 536 921 548 936 q 510 895 525 906 q 479 877 495 884 l 294 877 m 380 983 l 427 983 l 359 1210 l 277 1210 l 380 983 z "},"":{"ha":803,"x_min":-3,"x_max":806,"o":"m 506 929 q 630 909 574 929 q 725 853 686 888 q 785 771 764 818 q 806 671 806 724 l 806 258 q 785 158 806 205 q 725 76 764 111 q 630 20 686 41 q 506 0 574 0 l 297 0 q 173 20 229 0 q 78 76 117 41 q 18 158 39 111 q -3 258 -3 205 l -3 671 q 18 771 -3 724 q 78 853 39 818 q 173 909 117 888 q 297 929 229 929 l 506 929 m 568 307 l 646 307 l 592 812 l 550 854 l 460 868 l 387 868 l 297 854 l 256 812 l 200 307 l 281 307 l 292 452 l 298 514 l 549 514 l 555 452 l 568 307 m 521 786 q 532 682 526 731 q 543 579 538 633 l 304 579 l 325 786 q 358 791 344 788 q 391 796 372 793 l 457 796 l 521 786 m 331 877 q 300 895 315 884 q 274 921 286 906 q 256 954 262 936 q 249 992 249 972 q 251 1013 249 999 q 260 1056 253 1027 q 282 1132 268 1085 q 319 1251 296 1179 q 343 1287 328 1272 q 380 1311 359 1302 q 428 1324 401 1320 q 482 1328 454 1328 q 556 1319 520 1328 q 620 1293 592 1310 q 665 1250 648 1276 q 682 1192 682 1225 q 675 1150 682 1173 q 653 1101 669 1127 l 546 918 q 531 895 538 905 q 517 877 524 884 l 331 877 m 534 1210 l 452 1210 l 384 983 l 431 983 l 534 1210 z "},"":{"ha":803,"x_min":-3,"x_max":806,"o":"m 506 929 q 630 909 574 929 q 725 853 686 888 q 785 771 764 818 q 806 671 806 724 l 806 258 q 785 158 806 205 q 725 76 764 111 q 630 20 686 41 q 506 0 574 0 l 297 0 q 173 20 229 0 q 78 76 117 41 q 18 158 39 111 q -3 258 -3 205 l -3 671 q 18 771 -3 724 q 78 853 39 818 q 173 909 117 888 q 297 929 229 929 l 506 929 m 568 307 l 646 307 l 592 812 l 550 854 l 460 868 l 387 868 l 297 854 l 256 812 l 200 307 l 281 307 l 292 452 l 298 514 l 549 514 l 555 452 l 568 307 m 521 786 q 532 682 526 731 q 543 579 538 633 l 304 579 l 325 786 q 358 791 344 788 q 391 796 372 793 l 457 796 l 521 786 m 211 889 q 180 933 190 907 q 170 987 170 959 q 179 1047 170 1012 q 205 1123 189 1082 q 240 1206 221 1163 q 278 1288 260 1249 q 332 1340 298 1322 q 422 1357 366 1357 q 473 1352 451 1357 q 513 1337 496 1348 q 545 1309 531 1326 q 571 1267 559 1292 q 620 1157 598 1208 q 638 1111 629 1135 q 654 1066 647 1088 q 665 1026 661 1045 q 669 995 669 1008 q 623 889 669 926 l 211 889 m 420 1193 l 484 995 l 539 995 l 450 1224 l 389 1224 l 300 995 l 355 995 l 420 1193 z "},"":{"ha":803,"x_min":-3,"x_max":806,"o":"m 506 929 q 630 909 574 929 q 725 853 686 888 q 785 771 764 818 q 806 671 806 724 l 806 258 q 785 158 806 205 q 725 76 764 111 q 630 20 686 41 q 506 0 574 0 l 297 0 q 173 20 229 0 q 78 76 117 41 q 18 158 39 111 q -3 258 -3 205 l -3 671 q 18 771 -3 724 q 78 853 39 818 q 173 909 117 888 q 297 929 229 929 l 506 929 m 568 307 l 646 307 l 592 812 l 550 854 l 460 868 l 387 868 l 297 854 l 256 812 l 200 307 l 281 307 l 292 452 l 298 514 l 549 514 l 555 452 l 568 307 m 521 786 q 532 682 526 731 q 543 579 538 633 l 304 579 l 325 786 q 358 791 344 788 q 391 796 372 793 l 457 796 l 521 786 m 212 889 q 145 973 168 926 q 122 1078 122 1021 q 143 1178 122 1131 q 203 1260 164 1225 q 298 1316 242 1295 q 422 1336 353 1336 q 546 1316 491 1336 q 641 1260 602 1295 q 701 1178 680 1225 q 722 1078 722 1131 q 699 974 722 1023 q 633 889 676 926 l 212 889 m 505 970 q 536 979 524 970 q 553 1002 547 988 q 561 1031 559 1015 q 562 1059 562 1046 l 562 1081 l 501 1081 q 485 1040 492 1050 q 468 1029 477 1029 q 449 1036 460 1029 q 420 1052 437 1043 q 378 1067 403 1060 q 318 1074 353 1074 q 287 1063 298 1074 q 270 1037 275 1052 q 262 1006 264 1021 q 261 981 261 990 l 261 972 l 322 972 q 335 1008 328 998 q 351 1018 342 1018 q 375 1010 361 1018 q 406 994 388 1003 q 449 977 425 985 q 505 970 473 970 z "},"":{"ha":803,"x_min":-3,"x_max":806,"o":"m 506 929 q 630 909 574 929 q 725 853 686 888 q 785 771 764 818 q 806 671 806 724 l 806 258 q 785 158 806 205 q 725 76 764 111 q 630 20 686 41 q 506 0 574 0 l 297 0 q 173 20 229 0 q 78 76 117 41 q 18 158 39 111 q -3 258 -3 205 l -3 671 q 18 771 -3 724 q 78 853 39 818 q 173 909 117 888 q 297 929 229 929 l 506 929 m 568 307 l 646 307 l 592 812 l 550 854 l 460 868 l 387 868 l 297 854 l 256 812 l 200 307 l 281 307 l 292 452 l 298 514 l 549 514 l 555 452 l 568 307 m 521 786 q 532 682 526 731 q 543 579 538 633 l 304 579 l 325 786 q 358 791 344 788 q 391 796 372 793 l 457 796 l 521 786 m 550 1003 l 550 1090 l 461 1090 l 461 1003 l 550 1003 m 240 890 q 173 963 195 920 q 150 1060 150 1007 q 169 1137 150 1101 q 223 1202 188 1174 q 309 1246 259 1230 q 422 1263 359 1263 q 535 1246 484 1263 q 621 1202 585 1230 q 675 1137 656 1174 q 694 1060 694 1101 q 671 963 694 1006 q 603 890 648 920 l 240 890 m 372 1003 l 372 1090 l 283 1090 l 283 1003 l 372 1003 z "},"":{"ha":803,"x_min":-3,"x_max":806,"o":"m 506 929 q 630 909 574 929 q 725 853 686 888 q 785 771 764 818 q 806 671 806 724 l 806 258 q 785 158 806 205 q 725 76 764 111 q 630 20 686 41 q 506 0 574 0 l 297 0 q 173 20 229 0 q 78 76 117 41 q 18 158 39 111 q -3 258 -3 205 l -3 671 q 18 771 -3 724 q 78 853 39 818 q 173 909 117 888 q 297 929 229 929 l 506 929 m 568 307 l 646 307 l 592 812 l 550 854 l 460 868 l 387 868 l 297 854 l 256 812 l 200 307 l 281 307 l 292 452 l 298 514 l 549 514 l 555 452 l 568 307 m 521 786 q 532 682 526 731 q 543 579 538 633 l 304 579 l 325 786 q 358 791 344 788 q 391 796 372 793 l 457 796 l 521 786 m 217 889 q 172 969 186 924 q 157 1063 157 1014 q 175 1163 157 1116 q 227 1245 193 1210 q 308 1301 260 1280 q 416 1321 356 1321 q 523 1301 475 1321 q 604 1245 570 1280 q 656 1163 637 1210 q 674 1063 674 1116 q 659 968 674 1012 q 614 889 643 924 l 217 889 m 392 1198 l 342 1187 l 306 1152 l 298 1092 l 306 1025 l 342 989 l 392 981 l 438 981 l 486 989 l 526 1027 l 531 1085 l 526 1152 l 486 1187 l 438 1198 l 392 1198 m 471 1133 l 478 1089 l 471 1044 l 431 1035 l 395 1035 l 357 1042 l 351 1089 l 357 1137 l 397 1143 l 434 1143 l 471 1133 z "},"":{"ha":803,"x_min":-3,"x_max":806,"o":"m 506 929 q 630 909 574 929 q 725 853 686 888 q 785 771 764 818 q 806 671 806 724 l 806 258 q 785 158 806 205 q 725 76 764 111 q 630 20 686 41 q 506 0 574 0 l 297 0 q 173 20 229 0 q 78 76 117 41 q 18 158 39 111 q -3 258 -3 205 l -3 671 q 18 771 -3 724 q 78 853 39 818 q 173 909 117 888 q 297 929 229 929 l 506 929 m 640 382 l 463 382 l 463 555 l 640 555 l 640 627 l 463 627 l 463 798 l 640 798 l 640 869 l 355 869 l 265 856 l 224 814 l 168 311 l 240 311 l 252 400 l 391 400 l 391 311 l 640 311 l 640 382 m 260 472 l 293 787 q 326 792 312 789 q 358 798 340 795 l 391 798 l 391 472 l 260 472 z "},"":{"ha":803,"x_min":-3,"x_max":806,"o":"m 506 929 q 630 909 574 929 q 725 853 686 888 q 785 771 764 818 q 806 671 806 724 l 806 258 q 785 158 806 205 q 725 76 764 111 q 630 20 686 41 q 506 0 574 0 l 297 0 q 173 20 229 0 q 78 76 117 41 q 18 158 39 111 q -3 258 -3 205 l -3 671 q 18 771 -3 724 q 78 853 39 818 q 173 909 117 888 q 297 929 229 929 l 506 929 m 497 868 l 334 868 l 264 860 l 221 817 l 211 760 l 211 415 l 221 358 l 265 315 l 334 307 l 401 307 l 401 283 l 353 283 l 314 242 l 306 203 l 306 191 l 314 138 l 355 98 l 452 90 l 452 151 l 376 157 l 367 197 l 374 221 l 449 228 l 449 307 l 497 307 l 576 317 l 559 390 l 496 379 l 338 379 l 293 386 l 283 427 l 283 753 l 290 790 l 338 798 l 493 798 l 563 786 l 576 859 l 497 868 z "},"":{"ha":803,"x_min":-3,"x_max":806,"o":"m 614 379 l 343 379 l 343 551 l 570 551 l 570 623 l 343 623 l 343 796 l 604 796 l 604 868 l 273 868 l 273 307 l 614 307 l 614 379 m 506 929 q 630 909 574 929 q 725 853 686 888 q 785 771 764 818 q 806 671 806 724 l 806 258 q 785 158 806 205 q 725 76 764 111 q 630 20 686 41 q 506 0 574 0 l 297 0 q 173 20 229 0 q 78 76 117 41 q 18 158 39 111 q -3 258 -3 205 l -3 671 q 18 771 -3 724 q 78 853 39 818 q 173 909 117 888 q 297 929 229 929 l 506 929 m 307 877 q 293 895 300 884 q 278 918 286 905 l 171 1101 q 149 1150 155 1127 q 142 1192 142 1173 q 159 1250 142 1225 q 203 1293 176 1276 q 268 1319 231 1310 q 342 1328 304 1328 q 396 1324 370 1328 q 444 1311 422 1320 q 481 1287 465 1302 q 505 1251 496 1272 q 542 1132 528 1179 q 563 1056 555 1085 q 573 1013 570 1027 q 575 992 575 999 q 568 954 575 972 q 550 921 562 936 q 524 895 538 906 q 493 877 509 884 l 307 877 m 393 983 l 440 983 l 372 1210 l 290 1210 l 393 983 z "},"":{"ha":803,"x_min":-3,"x_max":806,"o":"m 614 379 l 343 379 l 343 551 l 570 551 l 570 623 l 343 623 l 343 796 l 604 796 l 604 868 l 273 868 l 273 307 l 614 307 l 614 379 m 506 929 q 630 909 574 929 q 725 853 686 888 q 785 771 764 818 q 806 671 806 724 l 806 258 q 785 158 806 205 q 725 76 764 111 q 630 20 686 41 q 506 0 574 0 l 297 0 q 173 20 229 0 q 78 76 117 41 q 18 158 39 111 q -3 258 -3 205 l -3 671 q 18 771 -3 724 q 78 853 39 818 q 173 909 117 888 q 297 929 229 929 l 506 929 m 345 877 q 314 895 329 884 q 288 921 299 906 q 269 954 276 936 q 262 992 262 972 q 264 1013 262 999 q 274 1056 267 1027 q 295 1132 281 1085 q 333 1251 309 1179 q 357 1287 341 1272 q 394 1311 372 1302 q 441 1324 415 1320 q 496 1328 467 1328 q 570 1319 534 1328 q 634 1293 606 1310 q 679 1250 662 1276 q 696 1192 696 1225 q 689 1150 695 1173 q 667 1101 682 1127 l 559 918 q 545 895 551 905 q 530 877 538 884 l 345 877 m 547 1210 l 465 1210 l 397 983 l 444 983 l 547 1210 z "},"":{"ha":803,"x_min":-3,"x_max":806,"o":"m 614 379 l 343 379 l 343 551 l 570 551 l 570 623 l 343 623 l 343 796 l 604 796 l 604 868 l 273 868 l 273 307 l 614 307 l 614 379 m 506 929 q 630 909 574 929 q 725 853 686 888 q 785 771 764 818 q 806 671 806 724 l 806 258 q 785 158 806 205 q 725 76 764 111 q 630 20 686 41 q 506 0 574 0 l 297 0 q 173 20 229 0 q 78 76 117 41 q 18 158 39 111 q -3 258 -3 205 l -3 671 q 18 771 -3 724 q 78 853 39 818 q 173 909 117 888 q 297 929 229 929 l 506 929 m 224 889 q 193 933 203 907 q 183 987 183 959 q 193 1047 183 1012 q 219 1123 203 1082 q 254 1206 235 1163 q 292 1288 273 1249 q 345 1340 311 1322 q 436 1357 379 1357 q 487 1352 465 1357 q 527 1337 509 1348 q 558 1309 545 1326 q 585 1267 572 1292 q 633 1157 612 1208 q 651 1111 642 1135 q 667 1066 661 1088 q 679 1026 674 1045 q 683 995 683 1008 q 636 889 683 926 l 224 889 m 433 1193 l 497 995 l 553 995 l 464 1224 l 403 1224 l 314 995 l 369 995 l 433 1193 z "},"":{"ha":803,"x_min":-3,"x_max":806,"o":"m 614 379 l 343 379 l 343 551 l 570 551 l 570 623 l 343 623 l 343 796 l 604 796 l 604 868 l 273 868 l 273 307 l 614 307 l 614 379 m 506 929 q 630 909 574 929 q 725 853 686 888 q 785 771 764 818 q 806 671 806 724 l 806 258 q 785 158 806 205 q 725 76 764 111 q 630 20 686 41 q 506 0 574 0 l 297 0 q 173 20 229 0 q 78 76 117 41 q 18 158 39 111 q -3 258 -3 205 l -3 671 q 18 771 -3 724 q 78 853 39 818 q 173 909 117 888 q 297 929 229 929 l 506 929 m 564 1003 l 564 1090 l 475 1090 l 475 1003 l 564 1003 m 254 890 q 187 963 210 920 q 164 1060 164 1007 q 183 1137 164 1101 q 238 1202 202 1174 q 323 1246 273 1230 q 436 1263 374 1263 q 549 1246 498 1263 q 635 1202 600 1230 q 690 1137 671 1174 q 709 1060 709 1101 q 685 963 709 1006 q 617 890 662 920 l 254 890 m 387 1003 l 387 1090 l 298 1090 l 298 1003 l 387 1003 z "},"":{"ha":803,"x_min":-3,"x_max":806,"o":"m 243 379 l 243 307 l 635 307 l 635 379 l 475 379 l 475 796 l 635 796 l 635 868 l 243 868 l 243 796 l 403 796 l 403 379 l 243 379 m 506 929 q 630 909 574 929 q 725 853 686 888 q 785 771 764 818 q 806 671 806 724 l 806 258 q 785 158 806 205 q 725 76 764 111 q 630 20 686 41 q 506 0 574 0 l 297 0 q 173 20 229 0 q 78 76 117 41 q 18 158 39 111 q -3 258 -3 205 l -3 671 q 18 771 -3 724 q 78 853 39 818 q 173 909 117 888 q 297 929 229 929 l 506 929 m 313 877 q 298 895 305 884 q 283 918 292 905 l 176 1101 q 154 1150 161 1127 q 147 1192 147 1173 q 164 1250 147 1225 q 209 1293 181 1276 q 273 1319 237 1310 q 347 1328 309 1328 q 402 1324 376 1328 q 449 1311 428 1320 q 486 1287 471 1302 q 510 1251 502 1272 q 547 1132 533 1179 q 568 1056 561 1085 q 578 1013 576 1027 q 581 992 581 999 q 574 954 581 972 q 555 921 567 936 q 529 895 544 906 q 498 877 514 884 l 313 877 m 399 983 l 446 983 l 378 1210 l 296 1210 l 399 983 z "},"":{"ha":803,"x_min":-3,"x_max":806,"o":"m 243 379 l 243 307 l 635 307 l 635 379 l 475 379 l 475 796 l 635 796 l 635 868 l 243 868 l 243 796 l 403 796 l 403 379 l 243 379 m 506 929 q 630 909 574 929 q 725 853 686 888 q 785 771 764 818 q 806 671 806 724 l 806 258 q 785 158 806 205 q 725 76 764 111 q 630 20 686 41 q 506 0 574 0 l 297 0 q 173 20 229 0 q 78 76 117 41 q 18 158 39 111 q -3 258 -3 205 l -3 671 q 18 771 -3 724 q 78 853 39 818 q 173 909 117 888 q 297 929 229 929 l 506 929 m 350 877 q 319 895 334 884 q 293 921 304 906 q 275 954 281 936 q 268 992 268 972 q 270 1013 268 999 q 279 1056 272 1027 q 301 1132 287 1085 q 338 1251 315 1179 q 362 1287 347 1272 q 399 1311 378 1302 q 447 1324 420 1320 q 501 1328 473 1328 q 575 1319 539 1328 q 639 1293 611 1310 q 684 1250 667 1276 q 701 1192 701 1225 q 694 1150 701 1173 q 672 1101 688 1127 l 565 918 q 550 895 557 905 q 536 877 543 884 l 350 877 m 553 1210 l 471 1210 l 403 983 l 450 983 l 553 1210 z "},"":{"ha":803,"x_min":-3,"x_max":806,"o":"m 243 379 l 243 307 l 635 307 l 635 379 l 475 379 l 475 796 l 635 796 l 635 868 l 243 868 l 243 796 l 403 796 l 403 379 l 243 379 m 506 929 q 630 909 574 929 q 725 853 686 888 q 785 771 764 818 q 806 671 806 724 l 806 258 q 785 158 806 205 q 725 76 764 111 q 630 20 686 41 q 506 0 574 0 l 297 0 q 173 20 229 0 q 78 76 117 41 q 18 158 39 111 q -3 258 -3 205 l -3 671 q 18 771 -3 724 q 78 853 39 818 q 173 909 117 888 q 297 929 229 929 l 506 929 m 231 889 q 199 933 210 907 q 189 987 189 959 q 199 1047 189 1012 q 225 1123 209 1082 q 260 1206 241 1163 q 298 1288 279 1249 q 351 1340 317 1322 q 442 1357 385 1357 q 493 1352 471 1357 q 533 1337 515 1348 q 565 1309 551 1326 q 591 1267 578 1292 q 640 1157 618 1208 q 657 1111 648 1135 q 673 1066 667 1088 q 685 1026 680 1045 q 689 995 689 1008 q 642 889 689 926 l 231 889 m 439 1193 l 503 995 l 559 995 l 470 1224 l 409 1224 l 320 995 l 375 995 l 439 1193 z "},"":{"ha":803,"x_min":-3,"x_max":806,"o":"m 243 379 l 243 307 l 635 307 l 635 379 l 475 379 l 475 796 l 635 796 l 635 868 l 243 868 l 243 796 l 403 796 l 403 379 l 243 379 m 506 929 q 630 909 574 929 q 725 853 686 888 q 785 771 764 818 q 806 671 806 724 l 806 258 q 785 158 806 205 q 725 76 764 111 q 630 20 686 41 q 506 0 574 0 l 297 0 q 173 20 229 0 q 78 76 117 41 q 18 158 39 111 q -3 258 -3 205 l -3 671 q 18 771 -3 724 q 78 853 39 818 q 173 909 117 888 q 297 929 229 929 l 506 929 m 570 1003 l 570 1090 l 481 1090 l 481 1003 l 570 1003 m 260 890 q 192 963 215 920 q 170 1060 170 1007 q 189 1137 170 1101 q 243 1202 208 1174 q 329 1246 279 1230 q 441 1263 379 1263 q 554 1246 504 1263 q 641 1202 605 1230 q 695 1137 676 1174 q 714 1060 714 1101 q 691 963 714 1006 q 623 890 667 920 l 260 890 m 392 1003 l 392 1090 l 303 1090 l 303 1003 l 392 1003 z "},"":{"ha":803,"x_min":-3,"x_max":806,"o":"m 647 758 l 637 815 l 595 859 l 525 868 l 222 868 l 222 615 l 174 615 l 174 571 l 222 571 l 222 307 l 525 307 l 595 315 l 637 358 l 647 416 l 647 758 m 566 386 l 521 379 l 293 379 l 293 571 l 350 571 l 350 615 l 293 615 l 293 796 l 521 796 l 568 789 l 575 749 l 575 424 l 566 386 m 506 929 q 630 909 574 929 q 725 853 686 888 q 785 771 764 818 q 806 671 806 724 l 806 258 q 785 158 806 205 q 725 76 764 111 q 630 20 686 41 q 506 0 574 0 l 297 0 q 173 20 229 0 q 78 76 117 41 q 18 158 39 111 q -3 258 -3 205 l -3 671 q 18 771 -3 724 q 78 853 39 818 q 173 909 117 888 q 297 929 229 929 l 506 929 z "},"":{"ha":803,"x_min":-3,"x_max":806,"o":"m 632 760 l 623 817 l 579 860 l 510 868 l 340 868 l 218 851 l 218 307 l 290 307 l 290 789 l 343 798 l 506 798 l 553 790 l 559 750 l 559 307 l 632 307 l 632 760 m 506 929 q 630 909 574 929 q 725 853 686 888 q 785 771 764 818 q 806 671 806 724 l 806 258 q 785 158 806 205 q 725 76 764 111 q 630 20 686 41 q 506 0 574 0 l 297 0 q 173 20 229 0 q 78 76 117 41 q 18 158 39 111 q -3 258 -3 205 l -3 671 q 18 771 -3 724 q 78 853 39 818 q 173 909 117 888 q 297 929 229 929 l 506 929 m 199 887 q 131 971 154 924 q 109 1076 109 1019 q 130 1176 109 1129 q 190 1258 151 1223 q 284 1314 229 1293 q 408 1334 340 1334 q 533 1314 477 1334 q 627 1258 588 1293 q 688 1176 667 1223 q 709 1076 709 1129 q 686 972 709 1021 q 620 887 663 924 l 199 887 m 492 968 q 522 977 511 968 q 539 1000 534 986 q 547 1029 545 1013 q 549 1057 549 1044 l 549 1079 l 488 1079 q 471 1038 478 1048 q 454 1027 464 1027 q 435 1034 446 1027 q 407 1049 424 1041 q 365 1065 389 1058 q 304 1072 340 1072 q 273 1061 285 1072 q 256 1035 262 1050 q 249 1004 250 1019 q 248 979 248 988 l 248 970 l 309 970 q 321 1006 314 996 q 338 1016 328 1016 q 361 1008 348 1016 q 393 992 374 1001 q 435 975 411 983 q 492 968 460 968 z "},"":{"ha":803,"x_min":-3,"x_max":806,"o":"m 506 929 q 630 909 574 929 q 725 853 686 888 q 785 771 764 818 q 806 671 806 724 l 806 258 q 785 158 806 205 q 725 76 764 111 q 630 20 686 41 q 506 0 574 0 l 297 0 q 173 20 229 0 q 78 76 117 41 q 18 158 39 111 q -3 258 -3 205 l -3 671 q 18 771 -3 724 q 78 853 39 818 q 173 909 117 888 q 297 929 229 929 l 506 929 m 646 758 l 636 815 l 593 859 l 524 868 l 342 868 l 273 859 l 229 815 l 221 758 l 221 416 l 229 358 l 274 315 l 342 307 l 524 307 l 593 315 l 636 358 l 646 416 l 646 758 m 564 386 l 519 379 l 346 379 l 302 386 l 292 427 l 292 751 l 298 789 l 346 796 l 519 796 l 567 789 l 574 749 l 574 424 l 564 386 m 303 877 q 289 895 296 884 q 274 918 282 905 l 167 1101 q 144 1150 151 1127 q 138 1192 138 1173 q 155 1250 138 1225 q 199 1293 172 1276 q 263 1319 227 1310 q 338 1328 300 1328 q 392 1324 366 1328 q 440 1311 418 1320 q 477 1287 461 1302 q 500 1251 492 1272 q 537 1132 524 1179 q 559 1056 551 1085 q 569 1013 566 1027 q 571 992 571 999 q 564 954 571 972 q 546 921 557 936 q 519 895 534 906 q 489 877 505 884 l 303 877 m 389 983 l 436 983 l 368 1210 l 286 1210 l 389 983 z "},"":{"ha":803,"x_min":-3,"x_max":806,"o":"m 506 929 q 630 909 574 929 q 725 853 686 888 q 785 771 764 818 q 806 671 806 724 l 806 258 q 785 158 806 205 q 725 76 764 111 q 630 20 686 41 q 506 0 574 0 l 297 0 q 173 20 229 0 q 78 76 117 41 q 18 158 39 111 q -3 258 -3 205 l -3 671 q 18 771 -3 724 q 78 853 39 818 q 173 909 117 888 q 297 929 229 929 l 506 929 m 646 758 l 636 815 l 593 859 l 524 868 l 342 868 l 273 859 l 229 815 l 221 758 l 221 416 l 229 358 l 274 315 l 342 307 l 524 307 l 593 315 l 636 358 l 646 416 l 646 758 m 564 386 l 519 379 l 346 379 l 302 386 l 292 427 l 292 751 l 298 789 l 346 796 l 519 796 l 567 789 l 574 749 l 574 424 l 564 386 m 340 877 q 310 895 325 884 q 283 921 295 906 q 265 954 272 936 q 258 992 258 972 q 260 1013 258 999 q 270 1056 262 1027 q 291 1132 277 1085 q 329 1251 305 1179 q 353 1287 337 1272 q 390 1311 368 1302 q 437 1324 411 1320 q 492 1328 463 1328 q 566 1319 530 1328 q 630 1293 602 1310 q 675 1250 658 1276 q 692 1192 692 1225 q 685 1150 691 1173 q 663 1101 678 1127 l 555 918 q 541 895 547 905 q 526 877 534 884 l 340 877 m 543 1210 l 461 1210 l 393 983 l 440 983 l 543 1210 z "},"":{"ha":803,"x_min":-3,"x_max":806,"o":"m 506 929 q 630 909 574 929 q 725 853 686 888 q 785 771 764 818 q 806 671 806 724 l 806 258 q 785 158 806 205 q 725 76 764 111 q 630 20 686 41 q 506 0 574 0 l 297 0 q 173 20 229 0 q 78 76 117 41 q 18 158 39 111 q -3 258 -3 205 l -3 671 q 18 771 -3 724 q 78 853 39 818 q 173 909 117 888 q 297 929 229 929 l 506 929 m 646 758 l 636 815 l 593 859 l 524 868 l 342 868 l 273 859 l 229 815 l 221 758 l 221 416 l 229 358 l 274 315 l 342 307 l 524 307 l 593 315 l 636 358 l 646 416 l 646 758 m 564 386 l 519 379 l 346 379 l 302 386 l 292 427 l 292 751 l 298 789 l 346 796 l 519 796 l 567 789 l 574 749 l 574 424 l 564 386 m 220 889 q 189 933 199 907 q 179 987 179 959 q 189 1047 179 1012 q 215 1123 199 1082 q 250 1206 231 1163 q 288 1288 269 1249 q 341 1340 307 1322 q 432 1357 375 1357 q 483 1352 460 1357 q 523 1337 505 1348 q 554 1309 541 1326 q 581 1267 568 1292 q 629 1157 608 1208 q 647 1111 638 1135 q 663 1066 656 1088 q 674 1026 670 1045 q 679 995 679 1008 q 632 889 679 926 l 220 889 m 429 1193 l 493 995 l 549 995 l 460 1224 l 399 1224 l 310 995 l 365 995 l 429 1193 z "},"":{"ha":803,"x_min":-3,"x_max":806,"o":"m 506 929 q 630 909 574 929 q 725 853 686 888 q 785 771 764 818 q 806 671 806 724 l 806 258 q 785 158 806 205 q 725 76 764 111 q 630 20 686 41 q 506 0 574 0 l 297 0 q 173 20 229 0 q 78 76 117 41 q 18 158 39 111 q -3 258 -3 205 l -3 671 q 18 771 -3 724 q 78 853 39 818 q 173 909 117 888 q 297 929 229 929 l 506 929 m 646 758 l 636 815 l 593 859 l 524 868 l 342 868 l 273 859 l 229 815 l 221 758 l 221 416 l 229 358 l 274 315 l 342 307 l 524 307 l 593 315 l 636 358 l 646 416 l 646 758 m 564 386 l 519 379 l 346 379 l 302 386 l 292 427 l 292 751 l 298 789 l 346 796 l 519 796 l 567 789 l 574 749 l 574 424 l 564 386 m 222 889 q 155 973 178 926 q 132 1078 132 1021 q 153 1178 132 1131 q 213 1260 174 1225 q 308 1316 252 1295 q 432 1336 363 1336 q 556 1316 501 1336 q 651 1260 612 1295 q 711 1178 690 1225 q 732 1078 732 1131 q 709 974 732 1023 q 644 889 686 926 l 222 889 m 515 970 q 546 979 534 970 q 563 1002 557 988 q 571 1031 569 1015 q 572 1059 572 1046 l 572 1081 l 511 1081 q 495 1040 502 1050 q 478 1029 488 1029 q 459 1036 470 1029 q 430 1052 448 1043 q 388 1067 413 1060 q 328 1074 363 1074 q 297 1063 309 1074 q 280 1037 286 1052 q 273 1006 274 1021 q 271 981 271 990 l 271 972 l 332 972 q 345 1008 338 998 q 361 1018 352 1018 q 385 1010 372 1018 q 416 994 398 1003 q 459 977 435 985 q 515 970 484 970 z "},"":{"ha":803,"x_min":-3,"x_max":806,"o":"m 506 929 q 630 909 574 929 q 725 853 686 888 q 785 771 764 818 q 806 671 806 724 l 806 258 q 785 158 806 205 q 725 76 764 111 q 630 20 686 41 q 506 0 574 0 l 297 0 q 173 20 229 0 q 78 76 117 41 q 18 158 39 111 q -3 258 -3 205 l -3 671 q 18 771 -3 724 q 78 853 39 818 q 173 909 117 888 q 297 929 229 929 l 506 929 m 646 758 l 636 815 l 593 859 l 524 868 l 342 868 l 273 859 l 229 815 l 221 758 l 221 416 l 229 358 l 274 315 l 342 307 l 524 307 l 593 315 l 636 358 l 646 416 l 646 758 m 564 386 l 519 379 l 346 379 l 302 386 l 292 427 l 292 751 l 298 789 l 346 796 l 519 796 l 567 789 l 574 749 l 574 424 l 564 386 m 560 1003 l 560 1090 l 471 1090 l 471 1003 l 560 1003 m 250 890 q 183 963 205 920 q 160 1060 160 1007 q 179 1137 160 1101 q 234 1202 198 1174 q 319 1246 269 1230 q 432 1263 370 1263 q 545 1246 494 1263 q 631 1202 595 1230 q 686 1137 667 1174 q 705 1060 705 1101 q 681 963 705 1006 q 613 890 658 920 l 250 890 m 382 1003 l 382 1090 l 294 1090 l 294 1003 l 382 1003 z "},"":{"ha":803,"x_min":-3,"x_max":806,"o":"m 506 929 q 630 909 574 929 q 725 853 686 888 q 785 771 764 818 q 806 671 806 724 l 806 258 q 785 158 806 205 q 725 76 764 111 q 630 20 686 41 q 506 0 574 0 l 297 0 q 173 20 229 0 q 78 76 117 41 q 18 158 39 111 q -3 258 -3 205 l -3 671 q 18 771 -3 724 q 78 853 39 818 q 173 909 117 888 q 297 929 229 929 l 506 929 m 564 501 l 469 596 l 564 690 l 524 730 l 429 636 l 336 729 l 296 688 l 389 595 l 296 501 l 335 461 l 429 555 l 524 460 l 564 501 z "},"":{"ha":803,"x_min":-3,"x_max":806,"o":"m 638 760 l 629 816 l 586 859 l 516 869 l 334 869 l 264 859 l 222 816 l 212 760 l 212 420 l 222 362 l 266 319 l 334 311 l 516 311 l 586 319 l 629 362 l 638 420 l 638 760 m 284 752 l 291 790 l 338 797 l 513 797 q 519 796 515 797 q 524 795 522 795 l 284 434 l 284 752 m 557 390 l 512 383 l 336 383 q 332 384 334 383 q 329 385 330 385 l 566 752 l 566 427 l 557 390 m 506 929 q 630 909 574 929 q 725 853 686 888 q 785 771 764 818 q 806 671 806 724 l 806 258 q 785 158 806 205 q 725 76 764 111 q 630 20 686 41 q 506 0 574 0 l 297 0 q 173 20 229 0 q 78 76 117 41 q 18 158 39 111 q -3 258 -3 205 l -3 671 q 18 771 -3 724 q 78 853 39 818 q 173 909 117 888 q 297 929 229 929 l 506 929 z "},"":{"ha":803,"x_min":-3,"x_max":806,"o":"m 506 929 q 630 909 574 929 q 725 853 686 888 q 785 771 764 818 q 806 671 806 724 l 806 258 q 785 158 806 205 q 725 76 764 111 q 630 20 686 41 q 506 0 574 0 l 297 0 q 173 20 229 0 q 78 76 117 41 q 18 158 39 111 q -3 258 -3 205 l -3 671 q 18 771 -3 724 q 78 853 39 818 q 173 909 117 888 q 297 929 229 929 l 506 929 m 642 868 l 570 868 l 570 424 q 565 405 568 415 q 559 386 562 395 l 515 379 l 342 379 l 297 386 l 288 427 l 288 868 l 217 868 l 217 416 l 225 358 l 269 315 l 338 307 l 519 307 l 589 315 l 632 358 l 642 416 l 642 868 m 307 877 q 293 895 300 884 q 278 918 286 905 l 171 1101 q 149 1150 155 1127 q 142 1192 142 1173 q 159 1250 142 1225 q 203 1293 176 1276 q 268 1319 231 1310 q 342 1328 304 1328 q 396 1324 370 1328 q 444 1311 422 1320 q 481 1287 465 1302 q 505 1251 496 1272 q 542 1132 528 1179 q 563 1056 555 1085 q 573 1013 570 1027 q 575 992 575 999 q 568 954 575 972 q 550 921 562 936 q 524 895 538 906 q 493 877 509 884 l 307 877 m 393 983 l 440 983 l 372 1210 l 290 1210 l 393 983 z "},"":{"ha":803,"x_min":-3,"x_max":806,"o":"m 506 929 q 630 909 574 929 q 725 853 686 888 q 785 771 764 818 q 806 671 806 724 l 806 258 q 785 158 806 205 q 725 76 764 111 q 630 20 686 41 q 506 0 574 0 l 297 0 q 173 20 229 0 q 78 76 117 41 q 18 158 39 111 q -3 258 -3 205 l -3 671 q 18 771 -3 724 q 78 853 39 818 q 173 909 117 888 q 297 929 229 929 l 506 929 m 642 868 l 570 868 l 570 424 q 565 405 568 415 q 559 386 562 395 l 515 379 l 342 379 l 297 386 l 288 427 l 288 868 l 217 868 l 217 416 l 225 358 l 269 315 l 338 307 l 519 307 l 589 315 l 632 358 l 642 416 l 642 868 m 345 877 q 314 895 329 884 q 288 921 299 906 q 269 954 276 936 q 262 992 262 972 q 264 1013 262 999 q 274 1056 267 1027 q 295 1132 281 1085 q 333 1251 309 1179 q 357 1287 341 1272 q 394 1311 372 1302 q 441 1324 415 1320 q 496 1328 467 1328 q 570 1319 534 1328 q 634 1293 606 1310 q 679 1250 662 1276 q 696 1192 696 1225 q 689 1150 695 1173 q 667 1101 682 1127 l 559 918 q 545 895 551 905 q 530 877 538 884 l 345 877 m 547 1210 l 465 1210 l 397 983 l 444 983 l 547 1210 z "},"":{"ha":803,"x_min":-3,"x_max":806,"o":"m 506 929 q 630 909 574 929 q 725 853 686 888 q 785 771 764 818 q 806 671 806 724 l 806 258 q 785 158 806 205 q 725 76 764 111 q 630 20 686 41 q 506 0 574 0 l 297 0 q 173 20 229 0 q 78 76 117 41 q 18 158 39 111 q -3 258 -3 205 l -3 671 q 18 771 -3 724 q 78 853 39 818 q 173 909 117 888 q 297 929 229 929 l 506 929 m 642 868 l 570 868 l 570 424 q 565 405 568 415 q 559 386 562 395 l 515 379 l 342 379 l 297 386 l 288 427 l 288 868 l 217 868 l 217 416 l 225 358 l 269 315 l 338 307 l 519 307 l 589 315 l 632 358 l 642 416 l 642 868 m 224 889 q 193 933 203 907 q 183 987 183 959 q 193 1047 183 1012 q 219 1123 203 1082 q 254 1206 235 1163 q 292 1288 273 1249 q 345 1340 311 1322 q 436 1357 379 1357 q 487 1352 465 1357 q 527 1337 509 1348 q 558 1309 545 1326 q 585 1267 572 1292 q 633 1157 612 1208 q 651 1111 642 1135 q 667 1066 661 1088 q 679 1026 674 1045 q 683 995 683 1008 q 636 889 683 926 l 224 889 m 433 1193 l 497 995 l 553 995 l 464 1224 l 403 1224 l 314 995 l 369 995 l 433 1193 z "},"":{"ha":803,"x_min":-3,"x_max":806,"o":"m 506 929 q 630 909 574 929 q 725 853 686 888 q 785 771 764 818 q 806 671 806 724 l 806 258 q 785 158 806 205 q 725 76 764 111 q 630 20 686 41 q 506 0 574 0 l 297 0 q 173 20 229 0 q 78 76 117 41 q 18 158 39 111 q -3 258 -3 205 l -3 671 q 18 771 -3 724 q 78 853 39 818 q 173 909 117 888 q 297 929 229 929 l 506 929 m 642 868 l 570 868 l 570 424 q 565 405 568 415 q 559 386 562 395 l 515 379 l 342 379 l 297 386 l 288 427 l 288 868 l 217 868 l 217 416 l 225 358 l 269 315 l 338 307 l 519 307 l 589 315 l 632 358 l 642 416 l 642 868 m 564 1003 l 564 1090 l 475 1090 l 475 1003 l 564 1003 m 254 890 q 187 963 210 920 q 164 1060 164 1007 q 183 1137 164 1101 q 238 1202 202 1174 q 323 1246 273 1230 q 436 1263 374 1263 q 549 1246 498 1263 q 635 1202 600 1230 q 690 1137 671 1174 q 709 1060 709 1101 q 685 963 709 1006 q 617 890 662 920 l 254 890 m 387 1003 l 387 1090 l 298 1090 l 298 1003 l 387 1003 z "},"":{"ha":803,"x_min":-3,"x_max":806,"o":"m 311 868 l 227 868 l 396 465 l 396 307 l 468 307 l 468 464 l 640 868 l 555 868 l 432 564 l 311 868 m 506 929 q 630 909 574 929 q 725 853 686 888 q 785 771 764 818 q 806 671 806 724 l 806 258 q 785 158 806 205 q 725 76 764 111 q 630 20 686 41 q 506 0 574 0 l 297 0 q 173 20 229 0 q 78 76 117 41 q 18 158 39 111 q -3 258 -3 205 l -3 671 q 18 771 -3 724 q 78 853 39 818 q 173 909 117 888 q 297 929 229 929 l 506 929 m 342 877 q 311 895 326 884 q 285 921 296 906 q 267 954 273 936 q 260 992 260 972 q 262 1013 260 999 q 271 1056 264 1027 q 293 1132 279 1085 q 330 1251 307 1179 q 354 1287 338 1272 q 391 1311 370 1302 q 438 1324 412 1320 q 493 1328 465 1328 q 567 1319 531 1328 q 631 1293 603 1310 q 676 1250 659 1276 q 693 1192 693 1225 q 686 1150 692 1173 q 664 1101 680 1127 l 557 918 q 542 895 549 905 q 528 877 535 884 l 342 877 m 545 1210 l 463 1210 l 395 983 l 441 983 l 545 1210 z "},"":{"ha":803,"x_min":-3,"x_max":806,"o":"m 631 660 l 621 717 l 578 760 l 509 770 l 326 770 l 326 889 l 256 889 l 256 307 l 326 307 l 326 464 l 509 464 l 578 472 l 621 515 l 631 574 l 631 660 m 549 543 l 505 536 l 326 536 l 326 697 l 505 697 l 551 690 l 558 650 l 558 581 l 549 543 m 506 929 q 630 909 574 929 q 725 853 686 888 q 785 771 764 818 q 806 671 806 724 l 806 258 q 785 158 806 205 q 725 76 764 111 q 630 20 686 41 q 506 0 574 0 l 297 0 q 173 20 229 0 q 78 76 117 41 q 18 158 39 111 q -3 258 -3 205 l -3 671 q 18 771 -3 724 q 78 853 39 818 q 173 909 117 888 q 297 929 229 929 l 506 929 z "},"":{"ha":803,"x_min":-3,"x_max":806,"o":"m 642 519 l 618 587 q 606 592 614 588 q 589 600 598 595 q 571 608 579 604 q 558 614 562 612 l 578 633 l 610 693 l 610 760 l 600 817 l 555 860 l 488 868 l 338 868 l 269 859 l 227 815 l 217 758 l 217 307 l 289 307 l 289 751 q 293 769 290 760 q 298 787 296 779 l 339 796 l 486 796 l 528 789 l 538 753 l 538 688 q 533 669 536 679 q 528 652 530 660 l 484 643 l 458 643 l 458 571 l 515 571 l 559 561 l 570 524 l 570 424 q 565 405 568 413 q 559 386 562 397 l 517 379 l 374 379 l 374 307 l 521 307 l 589 315 l 633 358 l 642 416 l 642 519 m 506 929 q 630 909 574 929 q 725 853 686 888 q 785 771 764 818 q 806 671 806 724 l 806 258 q 785 158 806 205 q 725 76 764 111 q 630 20 686 41 q 506 0 574 0 l 297 0 q 173 20 229 0 q 78 76 117 41 q 18 158 39 111 q -3 258 -3 205 l -3 671 q 18 771 -3 724 q 78 853 39 818 q 173 909 117 888 q 297 929 229 929 l 506 929 z "},"":{"ha":803,"x_min":-3,"x_max":806,"o":"m 589 308 l 589 463 l 589 760 l 589 817 l 543 860 l 475 868 l 321 868 l 241 859 l 258 785 l 322 798 l 473 798 l 514 789 l 524 753 l 524 595 l 475 603 l 321 603 l 253 593 l 210 550 l 200 494 l 200 415 l 210 358 l 253 315 l 321 307 l 469 307 l 522 315 l 589 308 m 524 386 l 471 379 l 325 379 l 282 386 l 273 427 l 273 485 l 278 524 l 325 530 l 472 530 l 524 525 l 524 422 l 524 386 m 506 929 q 630 909 574 929 q 725 853 686 888 q 785 771 764 818 q 806 671 806 724 l 806 258 q 785 158 806 205 q 725 76 764 111 q 630 20 686 41 q 506 0 574 0 l 297 0 q 173 20 229 0 q 78 76 117 41 q 18 158 39 111 q -3 258 -3 205 l -3 671 q 18 771 -3 724 q 78 853 39 818 q 173 909 117 888 q 297 929 229 929 l 506 929 m 306 877 q 292 895 298 884 q 277 918 285 905 l 170 1101 q 147 1150 154 1127 q 140 1192 140 1173 q 157 1250 140 1225 q 202 1293 174 1276 q 266 1319 230 1310 q 340 1328 302 1328 q 395 1324 369 1328 q 443 1311 421 1320 q 479 1287 464 1302 q 503 1251 495 1272 q 540 1132 526 1179 q 562 1056 554 1085 q 571 1013 569 1027 q 574 992 574 999 q 567 954 574 972 q 549 921 560 936 q 522 895 537 906 q 492 877 507 884 l 306 877 m 392 983 l 439 983 l 371 1210 l 289 1210 l 392 983 z "},"":{"ha":803,"x_min":-3,"x_max":806,"o":"m 589 308 l 589 463 l 589 760 l 589 817 l 543 860 l 475 868 l 321 868 l 241 859 l 258 785 l 322 798 l 473 798 l 514 789 l 524 753 l 524 595 l 475 603 l 321 603 l 253 593 l 210 550 l 200 494 l 200 415 l 210 358 l 253 315 l 321 307 l 469 307 l 522 315 l 589 308 m 524 386 l 471 379 l 325 379 l 282 386 l 273 427 l 273 485 l 278 524 l 325 530 l 472 530 l 524 525 l 524 422 l 524 386 m 506 929 q 630 909 574 929 q 725 853 686 888 q 785 771 764 818 q 806 671 806 724 l 806 258 q 785 158 806 205 q 725 76 764 111 q 630 20 686 41 q 506 0 574 0 l 297 0 q 173 20 229 0 q 78 76 117 41 q 18 158 39 111 q -3 258 -3 205 l -3 671 q 18 771 -3 724 q 78 853 39 818 q 173 909 117 888 q 297 929 229 929 l 506 929 m 343 877 q 313 895 328 884 q 286 921 298 906 q 268 954 275 936 q 261 992 261 972 q 263 1013 261 999 q 273 1056 265 1027 q 294 1132 280 1085 q 332 1251 308 1179 q 355 1287 340 1272 q 392 1311 371 1302 q 440 1324 414 1320 q 494 1328 466 1328 q 568 1319 532 1328 q 632 1293 604 1310 q 677 1250 661 1276 q 694 1192 694 1225 q 687 1150 694 1173 q 665 1101 681 1127 l 558 918 q 543 895 550 905 q 529 877 536 884 l 343 877 m 546 1210 l 464 1210 l 396 983 l 443 983 l 546 1210 z "},"":{"ha":803,"x_min":-3,"x_max":806,"o":"m 589 308 l 589 463 l 589 760 l 589 817 l 543 860 l 475 868 l 321 868 l 241 859 l 258 785 l 322 798 l 473 798 l 514 789 l 524 753 l 524 595 l 475 603 l 321 603 l 253 593 l 210 550 l 200 494 l 200 415 l 210 358 l 253 315 l 321 307 l 469 307 l 522 315 l 589 308 m 524 386 l 471 379 l 325 379 l 282 386 l 273 427 l 273 485 l 278 524 l 325 530 l 472 530 l 524 525 l 524 422 l 524 386 m 506 929 q 630 909 574 929 q 725 853 686 888 q 785 771 764 818 q 806 671 806 724 l 806 258 q 785 158 806 205 q 725 76 764 111 q 630 20 686 41 q 506 0 574 0 l 297 0 q 173 20 229 0 q 78 76 117 41 q 18 158 39 111 q -3 258 -3 205 l -3 671 q 18 771 -3 724 q 78 853 39 818 q 173 909 117 888 q 297 929 229 929 l 506 929 m 223 889 q 192 933 202 907 q 182 987 182 959 q 192 1047 182 1012 q 217 1123 201 1082 q 253 1206 233 1163 q 290 1288 272 1249 q 344 1340 310 1322 q 435 1357 378 1357 q 486 1352 463 1357 q 526 1337 508 1348 q 557 1309 543 1326 q 583 1267 571 1292 q 632 1157 610 1208 q 650 1111 641 1135 q 666 1066 659 1088 q 677 1026 673 1045 q 682 995 682 1008 q 635 889 682 926 l 223 889 m 432 1193 l 496 995 l 551 995 l 463 1224 l 401 1224 l 313 995 l 368 995 l 432 1193 z "},"":{"ha":803,"x_min":-3,"x_max":806,"o":"m 589 308 l 589 463 l 589 760 l 589 817 l 543 860 l 475 868 l 321 868 l 241 859 l 258 785 l 322 798 l 473 798 l 514 789 l 524 753 l 524 595 l 475 603 l 321 603 l 253 593 l 210 550 l 200 494 l 200 415 l 210 358 l 253 315 l 321 307 l 469 307 l 522 315 l 589 308 m 524 386 l 471 379 l 325 379 l 282 386 l 273 427 l 273 485 l 278 524 l 325 530 l 472 530 l 524 525 l 524 422 l 524 386 m 506 929 q 630 909 574 929 q 725 853 686 888 q 785 771 764 818 q 806 671 806 724 l 806 258 q 785 158 806 205 q 725 76 764 111 q 630 20 686 41 q 506 0 574 0 l 297 0 q 173 20 229 0 q 78 76 117 41 q 18 158 39 111 q -3 258 -3 205 l -3 671 q 18 771 -3 724 q 78 853 39 818 q 173 909 117 888 q 297 929 229 929 l 506 929 m 225 889 q 158 973 180 926 q 135 1078 135 1021 q 156 1178 135 1131 q 216 1260 177 1225 q 311 1316 255 1295 q 435 1336 366 1336 q 559 1316 504 1336 q 654 1260 614 1295 q 714 1178 693 1225 q 735 1078 735 1131 q 712 974 735 1023 q 646 889 689 926 l 225 889 m 518 970 q 549 979 537 970 q 566 1002 560 988 q 573 1031 572 1015 q 575 1059 575 1046 l 575 1081 l 514 1081 q 497 1040 505 1050 q 481 1029 490 1029 q 461 1036 473 1029 q 433 1052 450 1043 q 391 1067 416 1060 q 331 1074 366 1074 q 300 1063 311 1074 q 282 1037 288 1052 q 275 1006 277 1021 q 274 981 274 990 l 274 972 l 335 972 q 348 1008 340 998 q 364 1018 355 1018 q 388 1010 374 1018 q 419 994 401 1003 q 462 977 437 985 q 518 970 486 970 z "},"":{"ha":803,"x_min":-3,"x_max":806,"o":"m 589 308 l 589 463 l 589 760 l 589 817 l 543 860 l 475 868 l 321 868 l 241 859 l 258 785 l 322 798 l 473 798 l 514 789 l 524 753 l 524 595 l 475 603 l 321 603 l 253 593 l 210 550 l 200 494 l 200 415 l 210 358 l 253 315 l 321 307 l 469 307 l 522 315 l 589 308 m 524 386 l 471 379 l 325 379 l 282 386 l 273 427 l 273 485 l 278 524 l 325 530 l 472 530 l 524 525 l 524 422 l 524 386 m 506 929 q 630 909 574 929 q 725 853 686 888 q 785 771 764 818 q 806 671 806 724 l 806 258 q 785 158 806 205 q 725 76 764 111 q 630 20 686 41 q 506 0 574 0 l 297 0 q 173 20 229 0 q 78 76 117 41 q 18 158 39 111 q -3 258 -3 205 l -3 671 q 18 771 -3 724 q 78 853 39 818 q 173 909 117 888 q 297 929 229 929 l 506 929 m 563 1003 l 563 1090 l 474 1090 l 474 1003 l 563 1003 m 253 890 q 185 963 208 920 q 163 1060 163 1007 q 182 1137 163 1101 q 236 1202 201 1174 q 322 1246 272 1230 q 435 1263 372 1263 q 548 1246 497 1263 q 634 1202 598 1230 q 688 1137 669 1174 q 707 1060 707 1101 q 684 963 707 1006 q 616 890 661 920 l 253 890 m 385 1003 l 385 1090 l 296 1090 l 296 1003 l 385 1003 z "},"":{"ha":803,"x_min":-3,"x_max":806,"o":"m 589 308 l 589 463 l 589 760 l 589 817 l 543 860 l 475 868 l 321 868 l 241 859 l 258 785 l 322 798 l 473 798 l 514 789 l 524 753 l 524 595 l 475 603 l 321 603 l 253 593 l 210 550 l 200 494 l 200 415 l 210 358 l 253 315 l 321 307 l 469 307 l 522 315 l 589 308 m 524 386 l 471 379 l 325 379 l 282 386 l 273 427 l 273 485 l 278 524 l 325 530 l 472 530 l 524 525 l 524 422 l 524 386 m 506 929 q 630 909 574 929 q 725 853 686 888 q 785 771 764 818 q 806 671 806 724 l 806 258 q 785 158 806 205 q 725 76 764 111 q 630 20 686 41 q 506 0 574 0 l 297 0 q 173 20 229 0 q 78 76 117 41 q 18 158 39 111 q -3 258 -3 205 l -3 671 q 18 771 -3 724 q 78 853 39 818 q 173 909 117 888 q 297 929 229 929 l 506 929 m 229 889 q 184 969 199 924 q 170 1063 170 1014 q 188 1163 170 1116 q 239 1245 205 1210 q 320 1301 273 1280 q 428 1321 368 1321 q 535 1301 487 1321 q 616 1245 583 1280 q 668 1163 650 1210 q 686 1063 686 1116 q 671 968 686 1012 q 627 889 655 924 l 229 889 m 404 1198 l 354 1187 l 318 1152 l 310 1092 l 318 1025 l 354 989 l 404 981 l 450 981 l 498 989 l 538 1027 l 543 1085 l 538 1152 l 498 1187 l 450 1198 l 404 1198 m 484 1133 l 490 1089 l 484 1044 l 443 1035 l 407 1035 l 370 1042 l 363 1089 l 370 1137 l 410 1143 l 446 1143 l 484 1133 z "},"":{"ha":803,"x_min":-3,"x_max":806,"o":"m 506 929 q 630 909 574 929 q 725 853 686 888 q 785 771 764 818 q 806 671 806 724 l 806 258 q 785 158 806 205 q 725 76 764 111 q 630 20 686 41 q 506 0 574 0 l 297 0 q 173 20 229 0 q 78 76 117 41 q 18 158 39 111 q -3 258 -3 205 l -3 671 q 18 771 -3 724 q 78 853 39 818 q 173 909 117 888 q 297 929 229 929 l 506 929 m 640 382 l 463 382 l 463 555 l 640 555 l 640 627 l 463 627 l 463 798 l 640 798 l 640 869 l 355 869 l 265 856 l 224 814 l 168 311 l 240 311 l 252 400 l 391 400 l 391 311 l 640 311 l 640 382 m 260 472 l 293 787 q 326 792 312 789 q 358 798 340 795 l 391 798 l 391 472 l 260 472 z "},"":{"ha":803,"x_min":-3,"x_max":806,"o":"m 506 929 q 630 909 574 929 q 725 853 686 888 q 785 771 764 818 q 806 671 806 724 l 806 258 q 785 158 806 205 q 725 76 764 111 q 630 20 686 41 q 506 0 574 0 l 297 0 q 173 20 229 0 q 78 76 117 41 q 18 158 39 111 q -3 258 -3 205 l -3 671 q 18 771 -3 724 q 78 853 39 818 q 173 909 117 888 q 297 929 229 929 l 506 929 m 497 868 l 372 868 l 264 860 l 221 817 l 211 760 l 211 415 l 221 358 l 265 315 l 334 307 l 397 307 l 397 283 l 349 283 l 310 242 l 302 203 l 302 191 l 310 138 l 351 98 l 448 90 l 448 151 l 372 157 l 363 197 l 370 221 l 445 228 l 445 307 l 497 307 l 576 317 l 559 390 l 496 379 l 338 379 l 293 386 l 283 427 l 283 753 l 290 790 l 338 798 l 493 798 l 563 786 l 576 859 l 497 868 z "},"":{"ha":803,"x_min":-3,"x_max":806,"o":"m 506 929 q 630 909 574 929 q 725 853 686 888 q 785 771 764 818 q 806 671 806 724 l 806 258 q 785 158 806 205 q 725 76 764 111 q 630 20 686 41 q 506 0 574 0 l 297 0 q 173 20 229 0 q 78 76 117 41 q 18 158 39 111 q -3 258 -3 205 l -3 671 q 18 771 -3 724 q 78 853 39 818 q 173 909 117 888 q 297 929 229 929 l 506 929 m 595 760 l 585 817 l 542 860 l 473 868 l 326 868 l 258 860 l 216 817 l 205 760 l 205 437 l 216 380 l 258 338 l 326 329 l 497 329 l 576 339 l 559 412 l 496 401 l 331 401 l 288 408 l 278 449 l 278 589 l 595 589 l 595 760 m 278 660 l 278 751 l 283 790 l 331 798 l 469 798 l 515 790 l 522 750 l 522 660 l 278 660 m 301 892 q 287 909 294 899 q 272 933 280 920 l 165 1116 q 142 1165 149 1142 q 136 1206 136 1187 q 153 1265 136 1240 q 197 1308 170 1291 q 261 1334 225 1325 q 336 1343 298 1343 q 390 1339 364 1343 q 438 1326 416 1335 q 475 1302 459 1317 q 498 1266 490 1287 q 535 1147 522 1194 q 557 1071 549 1100 q 567 1028 564 1042 q 569 1007 569 1014 q 562 969 569 987 q 544 936 555 951 q 517 910 532 921 q 487 892 503 899 l 301 892 m 387 998 l 434 998 l 366 1225 l 284 1225 l 387 998 z "},"":{"ha":803,"x_min":-3,"x_max":806,"o":"m 506 929 q 630 909 574 929 q 725 853 686 888 q 785 771 764 818 q 806 671 806 724 l 806 258 q 785 158 806 205 q 725 76 764 111 q 630 20 686 41 q 506 0 574 0 l 297 0 q 173 20 229 0 q 78 76 117 41 q 18 158 39 111 q -3 258 -3 205 l -3 671 q 18 771 -3 724 q 78 853 39 818 q 173 909 117 888 q 297 929 229 929 l 506 929 m 595 760 l 585 817 l 542 860 l 473 868 l 326 868 l 258 860 l 216 817 l 205 760 l 205 437 l 216 380 l 258 338 l 326 329 l 497 329 l 576 339 l 559 412 l 496 401 l 331 401 l 288 408 l 278 449 l 278 589 l 595 589 l 595 760 m 278 660 l 278 751 l 283 790 l 331 798 l 469 798 l 515 790 l 522 750 l 522 660 l 278 660 m 325 894 q 294 912 309 901 q 268 938 279 923 q 250 971 256 953 q 243 1009 243 989 q 245 1030 243 1016 q 254 1073 247 1044 q 276 1149 262 1102 q 313 1268 290 1196 q 337 1304 321 1289 q 374 1328 353 1319 q 421 1341 395 1337 q 476 1345 448 1345 q 550 1336 514 1345 q 614 1310 586 1327 q 659 1267 642 1293 q 676 1208 676 1242 q 669 1167 675 1190 q 647 1118 663 1144 l 540 935 q 525 911 532 922 q 511 894 518 901 l 325 894 m 528 1227 l 446 1227 l 378 1000 l 425 1000 l 528 1227 z "},"":{"ha":803,"x_min":-3,"x_max":806,"o":"m 506 929 q 630 909 574 929 q 725 853 686 888 q 785 771 764 818 q 806 671 806 724 l 806 258 q 785 158 806 205 q 725 76 764 111 q 630 20 686 41 q 506 0 574 0 l 297 0 q 173 20 229 0 q 78 76 117 41 q 18 158 39 111 q -3 258 -3 205 l -3 671 q 18 771 -3 724 q 78 853 39 818 q 173 909 117 888 q 297 929 229 929 l 506 929 m 595 760 l 585 817 l 542 860 l 473 868 l 326 868 l 258 860 l 216 817 l 205 760 l 205 437 l 216 380 l 258 338 l 326 329 l 497 329 l 576 339 l 559 412 l 496 401 l 331 401 l 288 408 l 278 449 l 278 589 l 595 589 l 595 760 m 278 660 l 278 751 l 283 790 l 331 798 l 469 798 l 515 790 l 522 750 l 522 660 l 278 660 m 194 888 q 163 931 173 905 q 153 986 153 958 q 162 1046 153 1010 q 188 1121 172 1081 q 223 1204 204 1162 q 261 1286 243 1247 q 315 1338 281 1321 q 406 1356 349 1356 q 456 1351 434 1356 q 496 1336 479 1346 q 528 1308 514 1325 q 554 1265 542 1291 q 603 1156 581 1207 q 621 1110 612 1133 q 637 1065 630 1086 q 648 1025 644 1044 q 652 994 652 1006 q 606 888 652 924 l 194 888 m 403 1192 l 467 994 l 522 994 l 433 1223 l 372 1223 l 283 994 l 338 994 l 403 1192 z "},"":{"ha":803,"x_min":-3,"x_max":806,"o":"m 506 929 q 630 909 574 929 q 725 853 686 888 q 785 771 764 818 q 806 671 806 724 l 806 258 q 785 158 806 205 q 725 76 764 111 q 630 20 686 41 q 506 0 574 0 l 297 0 q 173 20 229 0 q 78 76 117 41 q 18 158 39 111 q -3 258 -3 205 l -3 671 q 18 771 -3 724 q 78 853 39 818 q 173 909 117 888 q 297 929 229 929 l 506 929 m 595 760 l 585 817 l 542 860 l 473 868 l 326 868 l 258 860 l 216 817 l 205 760 l 205 437 l 216 380 l 258 338 l 326 329 l 497 329 l 576 339 l 559 412 l 496 401 l 331 401 l 288 408 l 278 449 l 278 589 l 595 589 l 595 760 m 278 660 l 278 751 l 283 790 l 331 798 l 469 798 l 515 790 l 522 750 l 522 660 l 278 660 m 526 1007 l 526 1095 l 437 1095 l 437 1007 l 526 1007 m 216 895 q 148 967 171 924 q 125 1064 125 1011 q 144 1141 125 1105 q 199 1206 163 1178 q 285 1251 235 1234 q 397 1267 335 1267 q 510 1251 460 1267 q 596 1206 561 1234 q 651 1141 632 1178 q 670 1064 670 1105 q 647 967 670 1010 q 578 895 623 924 l 216 895 m 348 1007 l 348 1095 l 259 1095 l 259 1007 l 348 1007 z "},"":{"ha":803,"x_min":-3,"x_max":806,"o":"m 243 379 l 243 307 l 635 307 l 635 379 l 475 379 l 475 796 l 635 796 l 635 868 l 243 868 l 243 796 l 403 796 l 403 379 l 243 379 m 506 929 q 630 909 574 929 q 725 853 686 888 q 785 771 764 818 q 806 671 806 724 l 806 258 q 785 158 806 205 q 725 76 764 111 q 630 20 686 41 q 506 0 574 0 l 297 0 q 173 20 229 0 q 78 76 117 41 q 18 158 39 111 q -3 258 -3 205 l -3 671 q 18 771 -3 724 q 78 853 39 818 q 173 909 117 888 q 297 929 229 929 l 506 929 m 309 877 q 294 895 301 884 q 279 918 288 905 l 172 1101 q 150 1150 157 1127 q 143 1192 143 1173 q 160 1250 143 1225 q 205 1293 177 1276 q 269 1319 233 1310 q 343 1328 305 1328 q 398 1324 372 1328 q 445 1311 424 1320 q 482 1287 467 1302 q 506 1251 498 1272 q 543 1132 529 1179 q 564 1056 557 1085 q 574 1013 572 1027 q 576 992 576 999 q 570 954 576 972 q 551 921 563 936 q 525 895 540 906 q 494 877 510 884 l 309 877 m 395 983 l 441 983 l 374 1210 l 292 1210 l 395 983 z "},"":{"ha":803,"x_min":-3,"x_max":806,"o":"m 243 379 l 243 307 l 635 307 l 635 379 l 475 379 l 475 796 l 635 796 l 635 868 l 243 868 l 243 796 l 403 796 l 403 379 l 243 379 m 506 929 q 630 909 574 929 q 725 853 686 888 q 785 771 764 818 q 806 671 806 724 l 806 258 q 785 158 806 205 q 725 76 764 111 q 630 20 686 41 q 506 0 574 0 l 297 0 q 173 20 229 0 q 78 76 117 41 q 18 158 39 111 q -3 258 -3 205 l -3 671 q 18 771 -3 724 q 78 853 39 818 q 173 909 117 888 q 297 929 229 929 l 506 929 m 346 877 q 315 895 330 884 q 289 921 300 906 q 271 954 277 936 q 264 992 264 972 q 266 1013 264 999 q 275 1056 268 1027 q 297 1132 283 1085 q 334 1251 311 1179 q 358 1287 342 1272 q 395 1311 374 1302 q 443 1324 416 1320 q 497 1328 469 1328 q 571 1319 535 1328 q 635 1293 607 1310 q 680 1250 663 1276 q 697 1192 697 1225 q 690 1150 696 1173 q 668 1101 684 1127 l 561 918 q 546 895 553 905 q 532 877 539 884 l 346 877 m 549 1210 l 467 1210 l 399 983 l 446 983 l 549 1210 z "},"":{"ha":803,"x_min":-3,"x_max":806,"o":"m 243 379 l 243 307 l 635 307 l 635 379 l 475 379 l 475 796 l 635 796 l 635 868 l 243 868 l 243 796 l 403 796 l 403 379 l 243 379 m 506 929 q 630 909 574 929 q 725 853 686 888 q 785 771 764 818 q 806 671 806 724 l 806 258 q 785 158 806 205 q 725 76 764 111 q 630 20 686 41 q 506 0 574 0 l 297 0 q 173 20 229 0 q 78 76 117 41 q 18 158 39 111 q -3 258 -3 205 l -3 671 q 18 771 -3 724 q 78 853 39 818 q 173 909 117 888 q 297 929 229 929 l 506 929 m 226 889 q 195 933 205 907 q 184 987 184 959 q 194 1047 184 1012 q 220 1123 204 1082 q 255 1206 236 1163 q 293 1288 275 1249 q 347 1340 313 1322 q 437 1357 380 1357 q 488 1352 466 1357 q 528 1337 511 1348 q 560 1309 546 1326 q 586 1267 574 1292 q 635 1157 613 1208 q 653 1111 644 1135 q 669 1066 662 1088 q 680 1026 675 1045 q 684 995 684 1008 q 637 889 684 926 l 226 889 m 435 1193 l 498 995 l 554 995 l 465 1224 l 404 1224 l 315 995 l 370 995 l 435 1193 z "},"":{"ha":803,"x_min":-3,"x_max":806,"o":"m 243 379 l 243 307 l 635 307 l 635 379 l 475 379 l 475 796 l 635 796 l 635 868 l 243 868 l 243 796 l 403 796 l 403 379 l 243 379 m 506 929 q 630 909 574 929 q 725 853 686 888 q 785 771 764 818 q 806 671 806 724 l 806 258 q 785 158 806 205 q 725 76 764 111 q 630 20 686 41 q 506 0 574 0 l 297 0 q 173 20 229 0 q 78 76 117 41 q 18 158 39 111 q -3 258 -3 205 l -3 671 q 18 771 -3 724 q 78 853 39 818 q 173 909 117 888 q 297 929 229 929 l 506 929 m 566 1003 l 566 1090 l 477 1090 l 477 1003 l 566 1003 m 256 890 q 188 963 211 920 q 165 1060 165 1007 q 184 1137 165 1101 q 239 1202 203 1174 q 325 1246 275 1230 q 437 1263 375 1263 q 550 1246 500 1263 q 636 1202 601 1230 q 691 1137 672 1174 q 710 1060 710 1101 q 687 963 710 1006 q 618 890 663 920 l 256 890 m 388 1003 l 388 1090 l 299 1090 l 299 1003 l 388 1003 z "},"":{"ha":803,"x_min":-3,"x_max":806,"o":"m 647 758 l 637 815 l 595 859 l 525 868 l 222 868 l 222 615 l 174 615 l 174 571 l 222 571 l 222 307 l 525 307 l 595 315 l 637 358 l 647 416 l 647 758 m 566 386 l 521 379 l 293 379 l 293 571 l 350 571 l 350 615 l 293 615 l 293 796 l 521 796 l 568 789 l 575 749 l 575 424 l 566 386 m 506 929 q 630 909 574 929 q 725 853 686 888 q 785 771 764 818 q 806 671 806 724 l 806 258 q 785 158 806 205 q 725 76 764 111 q 630 20 686 41 q 506 0 574 0 l 297 0 q 173 20 229 0 q 78 76 117 41 q 18 158 39 111 q -3 258 -3 205 l -3 671 q 18 771 -3 724 q 78 853 39 818 q 173 909 117 888 q 297 929 229 929 l 506 929 z "},"":{"ha":803,"x_min":-3,"x_max":806,"o":"m 632 760 l 623 817 l 579 860 l 510 868 l 340 868 l 218 851 l 218 307 l 290 307 l 290 789 l 343 798 l 506 798 l 553 790 l 559 750 l 559 307 l 632 307 l 632 760 m 506 929 q 630 909 574 929 q 725 853 686 888 q 785 771 764 818 q 806 671 806 724 l 806 258 q 785 158 806 205 q 725 76 764 111 q 630 20 686 41 q 506 0 574 0 l 297 0 q 173 20 229 0 q 78 76 117 41 q 18 158 39 111 q -3 258 -3 205 l -3 671 q 18 771 -3 724 q 78 853 39 818 q 173 909 117 888 q 297 929 229 929 l 506 929 m 197 891 q 130 975 153 928 q 107 1080 107 1023 q 128 1180 107 1133 q 188 1262 149 1227 q 283 1318 227 1297 q 407 1338 338 1338 q 531 1318 476 1338 q 626 1262 587 1297 q 686 1180 665 1227 q 707 1080 707 1133 q 684 976 707 1025 q 618 891 661 928 l 197 891 m 490 972 q 521 981 509 972 q 538 1004 532 990 q 546 1033 544 1017 q 547 1061 547 1048 l 547 1083 l 486 1083 q 470 1042 477 1053 q 453 1031 463 1031 q 434 1038 445 1031 q 405 1054 422 1045 q 363 1069 388 1062 q 303 1076 338 1076 q 272 1065 283 1076 q 255 1039 260 1054 q 248 1008 249 1023 q 246 983 246 992 l 246 975 l 307 975 q 320 1010 313 1000 q 336 1020 327 1020 q 360 1013 347 1020 q 391 996 373 1005 q 434 979 410 987 q 490 972 458 972 z "},"":{"ha":803,"x_min":-3,"x_max":806,"o":"m 506 929 q 630 909 574 929 q 725 853 686 888 q 785 771 764 818 q 806 671 806 724 l 806 258 q 785 158 806 205 q 725 76 764 111 q 630 20 686 41 q 506 0 574 0 l 297 0 q 173 20 229 0 q 78 76 117 41 q 18 158 39 111 q -3 258 -3 205 l -3 671 q 18 771 -3 724 q 78 853 39 818 q 173 909 117 888 q 297 929 229 929 l 506 929 m 646 758 l 636 815 l 593 859 l 524 868 l 342 868 l 273 859 l 229 815 l 221 758 l 221 416 l 229 358 l 274 315 l 342 307 l 524 307 l 593 315 l 636 358 l 646 416 l 646 758 m 564 386 l 519 379 l 346 379 l 302 386 l 292 427 l 292 751 l 298 789 l 346 796 l 519 796 l 567 789 l 574 749 l 574 424 l 564 386 m 327 882 q 296 900 311 889 q 270 926 281 911 q 252 959 258 941 q 245 998 245 977 q 247 1019 245 1004 q 256 1062 249 1033 q 278 1137 264 1090 q 315 1257 292 1184 q 339 1293 323 1278 q 376 1316 355 1308 q 424 1329 397 1325 q 478 1333 450 1333 q 552 1324 516 1333 q 616 1298 588 1316 q 661 1256 644 1281 q 678 1197 678 1230 q 671 1155 677 1178 q 649 1107 665 1133 l 542 924 q 527 900 534 910 q 513 882 520 890 l 327 882 m 530 1215 l 448 1215 l 380 989 l 427 989 l 530 1215 z "},"":{"ha":803,"x_min":-3,"x_max":806,"o":"m 506 929 q 630 909 574 929 q 725 853 686 888 q 785 771 764 818 q 806 671 806 724 l 806 258 q 785 158 806 205 q 725 76 764 111 q 630 20 686 41 q 506 0 574 0 l 297 0 q 173 20 229 0 q 78 76 117 41 q 18 158 39 111 q -3 258 -3 205 l -3 671 q 18 771 -3 724 q 78 853 39 818 q 173 909 117 888 q 297 929 229 929 l 506 929 m 646 758 l 636 815 l 593 859 l 524 868 l 342 868 l 273 859 l 229 815 l 221 758 l 221 416 l 229 358 l 274 315 l 342 307 l 524 307 l 593 315 l 636 358 l 646 416 l 646 758 m 564 386 l 519 379 l 346 379 l 302 386 l 292 427 l 292 751 l 298 789 l 346 796 l 519 796 l 567 789 l 574 749 l 574 424 l 564 386 m 224 886 q 193 929 203 903 q 182 984 182 956 q 192 1044 182 1008 q 218 1119 202 1079 q 253 1202 234 1160 q 291 1284 273 1245 q 345 1336 311 1319 q 435 1354 378 1354 q 486 1349 464 1354 q 526 1334 509 1344 q 558 1306 544 1323 q 584 1263 572 1289 q 633 1154 611 1205 q 651 1108 642 1131 q 667 1063 660 1084 q 678 1023 673 1042 q 682 991 682 1004 q 635 886 682 922 l 224 886 m 433 1190 l 496 991 l 552 991 l 463 1221 l 402 1221 l 313 991 l 368 991 l 433 1190 z "},"":{"ha":803,"x_min":-3,"x_max":806,"o":"m 506 929 q 630 909 574 929 q 725 853 686 888 q 785 771 764 818 q 806 671 806 724 l 806 258 q 785 158 806 205 q 725 76 764 111 q 630 20 686 41 q 506 0 574 0 l 297 0 q 173 20 229 0 q 78 76 117 41 q 18 158 39 111 q -3 258 -3 205 l -3 671 q 18 771 -3 724 q 78 853 39 818 q 173 909 117 888 q 297 929 229 929 l 506 929 m 646 758 l 636 815 l 593 859 l 524 868 l 342 868 l 273 859 l 229 815 l 221 758 l 221 416 l 229 358 l 274 315 l 342 307 l 524 307 l 593 315 l 636 358 l 646 416 l 646 758 m 564 386 l 519 379 l 346 379 l 302 386 l 292 427 l 292 751 l 298 789 l 346 796 l 519 796 l 567 789 l 574 749 l 574 424 l 564 386 m 217 885 q 150 969 172 922 q 127 1074 127 1017 q 148 1174 127 1127 q 208 1256 169 1221 q 302 1312 247 1291 q 427 1332 358 1332 q 551 1312 496 1332 q 646 1256 606 1291 q 706 1174 685 1221 q 727 1074 727 1127 q 704 970 727 1019 q 638 885 681 922 l 217 885 m 510 966 q 541 975 529 966 q 558 998 552 984 q 565 1027 564 1011 q 567 1055 567 1042 l 567 1077 l 506 1077 q 489 1036 496 1046 q 473 1025 482 1025 q 453 1032 465 1025 q 425 1047 442 1039 q 383 1063 408 1056 q 323 1069 358 1069 q 292 1059 303 1069 q 274 1033 280 1048 q 267 1002 269 1017 q 266 977 266 986 l 266 968 l 327 968 q 339 1004 332 994 q 356 1014 347 1014 q 379 1006 366 1014 q 411 990 393 999 q 454 973 429 981 q 510 966 478 966 z "},"":{"ha":803,"x_min":-3,"x_max":806,"o":"m 506 929 q 630 909 574 929 q 725 853 686 888 q 785 771 764 818 q 806 671 806 724 l 806 258 q 785 158 806 205 q 725 76 764 111 q 630 20 686 41 q 506 0 574 0 l 297 0 q 173 20 229 0 q 78 76 117 41 q 18 158 39 111 q -3 258 -3 205 l -3 671 q 18 771 -3 724 q 78 853 39 818 q 173 909 117 888 q 297 929 229 929 l 506 929 m 646 758 l 636 815 l 593 859 l 524 868 l 342 868 l 273 859 l 229 815 l 221 758 l 221 416 l 229 358 l 274 315 l 342 307 l 524 307 l 593 315 l 636 358 l 646 416 l 646 758 m 564 386 l 519 379 l 346 379 l 302 386 l 292 427 l 292 751 l 298 789 l 346 796 l 519 796 l 567 789 l 574 749 l 574 424 l 564 386 m 564 996 l 564 1084 l 475 1084 l 475 996 l 564 996 m 254 884 q 187 957 210 913 q 164 1053 164 1000 q 183 1131 164 1094 q 238 1195 202 1167 q 323 1240 273 1223 q 436 1256 374 1256 q 549 1240 498 1256 q 635 1195 600 1223 q 690 1131 671 1167 q 709 1053 709 1094 q 685 956 709 1000 q 617 884 662 913 l 254 884 m 387 996 l 387 1084 l 298 1084 l 298 996 l 387 996 z "},"":{"ha":595,"x_min":-3,"x_max":597,"o":"m 342 501 l 342 589 l 253 589 l 253 501 l 342 501 m 342 725 l 342 812 l 253 812 l 253 725 l 342 725 m 425 623 l 425 696 l 170 696 l 170 623 l 425 623 m 297 0 q 173 20 229 0 q 78 76 117 41 q 18 158 39 111 q -3 258 -3 205 l -3 671 q 18 771 -3 724 q 78 853 39 818 q 173 909 117 888 q 297 929 229 929 q 421 909 366 929 q 516 853 477 888 q 576 771 555 818 q 597 671 597 724 l 597 258 q 576 158 597 205 q 516 76 555 111 q 421 20 477 41 q 297 0 366 0 z "},"":{"ha":803,"x_min":-3,"x_max":806,"o":"m 638 760 l 629 816 l 586 859 l 516 869 l 334 869 l 264 859 l 222 816 l 212 760 l 212 420 l 222 362 l 266 319 l 334 311 l 516 311 l 586 319 l 629 362 l 638 420 l 638 760 m 284 752 l 291 790 l 338 797 l 513 797 q 519 796 515 797 q 524 795 522 795 l 284 434 l 284 752 m 557 390 l 512 383 l 336 383 q 332 384 334 383 q 329 385 330 385 l 566 752 l 566 427 l 557 390 m 506 929 q 630 909 574 929 q 725 853 686 888 q 785 771 764 818 q 806 671 806 724 l 806 258 q 785 158 806 205 q 725 76 764 111 q 630 20 686 41 q 506 0 574 0 l 297 0 q 173 20 229 0 q 78 76 117 41 q 18 158 39 111 q -3 258 -3 205 l -3 671 q 18 771 -3 724 q 78 853 39 818 q 173 909 117 888 q 297 929 229 929 l 506 929 z "},"":{"ha":803,"x_min":-3,"x_max":806,"o":"m 506 929 q 630 909 574 929 q 725 853 686 888 q 785 771 764 818 q 806 671 806 724 l 806 258 q 785 158 806 205 q 725 76 764 111 q 630 20 686 41 q 506 0 574 0 l 297 0 q 173 20 229 0 q 78 76 117 41 q 18 158 39 111 q -3 258 -3 205 l -3 671 q 18 771 -3 724 q 78 853 39 818 q 173 909 117 888 q 297 929 229 929 l 506 929 m 642 868 l 570 868 l 570 424 q 565 405 568 415 q 559 386 562 395 l 515 379 l 342 379 l 297 386 l 288 427 l 288 868 l 217 868 l 217 416 l 225 358 l 269 315 l 338 307 l 519 307 l 589 315 l 632 358 l 642 416 l 642 868 m 309 877 q 294 895 301 884 q 279 918 288 905 l 172 1101 q 150 1150 157 1127 q 143 1192 143 1173 q 160 1250 143 1225 q 205 1293 177 1276 q 269 1319 233 1310 q 343 1328 305 1328 q 398 1324 372 1328 q 445 1311 424 1320 q 482 1287 467 1302 q 506 1251 498 1272 q 543 1132 529 1179 q 564 1056 557 1085 q 574 1013 572 1027 q 576 992 576 999 q 570 954 576 972 q 551 921 563 936 q 525 895 540 906 q 494 877 510 884 l 309 877 m 395 983 l 441 983 l 374 1210 l 292 1210 l 395 983 z "},"":{"ha":803,"x_min":-3,"x_max":806,"o":"m 506 929 q 630 909 574 929 q 725 853 686 888 q 785 771 764 818 q 806 671 806 724 l 806 258 q 785 158 806 205 q 725 76 764 111 q 630 20 686 41 q 506 0 574 0 l 297 0 q 173 20 229 0 q 78 76 117 41 q 18 158 39 111 q -3 258 -3 205 l -3 671 q 18 771 -3 724 q 78 853 39 818 q 173 909 117 888 q 297 929 229 929 l 506 929 m 642 868 l 570 868 l 570 424 q 565 405 568 415 q 559 386 562 395 l 515 379 l 342 379 l 297 386 l 288 427 l 288 868 l 217 868 l 217 416 l 225 358 l 269 315 l 338 307 l 519 307 l 589 315 l 632 358 l 642 416 l 642 868 m 346 877 q 315 895 330 884 q 289 921 300 906 q 271 954 277 936 q 264 992 264 972 q 266 1013 264 999 q 275 1056 268 1027 q 297 1132 283 1085 q 334 1251 311 1179 q 358 1287 342 1272 q 395 1311 374 1302 q 443 1324 416 1320 q 497 1328 469 1328 q 571 1319 535 1328 q 635 1293 607 1310 q 680 1250 663 1276 q 697 1192 697 1225 q 690 1150 696 1173 q 668 1101 684 1127 l 561 918 q 546 895 553 905 q 532 877 539 884 l 346 877 m 549 1210 l 467 1210 l 399 983 l 446 983 l 549 1210 z "},"":{"ha":803,"x_min":-3,"x_max":806,"o":"m 506 929 q 630 909 574 929 q 725 853 686 888 q 785 771 764 818 q 806 671 806 724 l 806 258 q 785 158 806 205 q 725 76 764 111 q 630 20 686 41 q 506 0 574 0 l 297 0 q 173 20 229 0 q 78 76 117 41 q 18 158 39 111 q -3 258 -3 205 l -3 671 q 18 771 -3 724 q 78 853 39 818 q 173 909 117 888 q 297 929 229 929 l 506 929 m 642 868 l 570 868 l 570 424 q 565 405 568 415 q 559 386 562 395 l 515 379 l 342 379 l 297 386 l 288 427 l 288 868 l 217 868 l 217 416 l 225 358 l 269 315 l 338 307 l 519 307 l 589 315 l 632 358 l 642 416 l 642 868 m 226 889 q 195 933 205 907 q 184 987 184 959 q 194 1047 184 1012 q 220 1123 204 1082 q 255 1206 236 1163 q 293 1288 275 1249 q 347 1340 313 1322 q 437 1357 380 1357 q 488 1352 466 1357 q 528 1337 511 1348 q 560 1309 546 1326 q 586 1267 574 1292 q 635 1157 613 1208 q 653 1111 644 1135 q 669 1066 662 1088 q 680 1026 675 1045 q 684 995 684 1008 q 637 889 684 926 l 226 889 m 435 1193 l 498 995 l 554 995 l 465 1224 l 404 1224 l 315 995 l 370 995 l 435 1193 z "},"":{"ha":803,"x_min":-3,"x_max":806,"o":"m 506 929 q 630 909 574 929 q 725 853 686 888 q 785 771 764 818 q 806 671 806 724 l 806 258 q 785 158 806 205 q 725 76 764 111 q 630 20 686 41 q 506 0 574 0 l 297 0 q 173 20 229 0 q 78 76 117 41 q 18 158 39 111 q -3 258 -3 205 l -3 671 q 18 771 -3 724 q 78 853 39 818 q 173 909 117 888 q 297 929 229 929 l 506 929 m 642 868 l 570 868 l 570 424 q 565 405 568 415 q 559 386 562 395 l 515 379 l 342 379 l 297 386 l 288 427 l 288 868 l 217 868 l 217 416 l 225 358 l 269 315 l 338 307 l 519 307 l 589 315 l 632 358 l 642 416 l 642 868 m 566 1003 l 566 1090 l 477 1090 l 477 1003 l 566 1003 m 256 890 q 188 963 211 920 q 165 1060 165 1007 q 184 1137 165 1101 q 239 1202 203 1174 q 325 1246 275 1230 q 437 1263 375 1263 q 550 1246 500 1263 q 636 1202 601 1230 q 691 1137 672 1174 q 710 1060 710 1101 q 687 963 710 1006 q 618 890 663 920 l 256 890 m 388 1003 l 388 1090 l 299 1090 l 299 1003 l 388 1003 z "},"":{"ha":803,"x_min":-3,"x_max":806,"o":"m 311 868 l 227 868 l 396 465 l 396 307 l 468 307 l 468 464 l 640 868 l 555 868 l 432 564 l 311 868 m 506 929 q 630 909 574 929 q 725 853 686 888 q 785 771 764 818 q 806 671 806 724 l 806 258 q 785 158 806 205 q 725 76 764 111 q 630 20 686 41 q 506 0 574 0 l 297 0 q 173 20 229 0 q 78 76 117 41 q 18 158 39 111 q -3 258 -3 205 l -3 671 q 18 771 -3 724 q 78 853 39 818 q 173 909 117 888 q 297 929 229 929 l 506 929 m 342 877 q 311 895 326 884 q 285 921 296 906 q 267 954 273 936 q 260 992 260 972 q 262 1013 260 999 q 271 1056 264 1027 q 293 1132 279 1085 q 330 1251 307 1179 q 354 1287 338 1272 q 391 1311 370 1302 q 438 1324 412 1320 q 493 1328 465 1328 q 567 1319 531 1328 q 631 1293 603 1310 q 676 1250 659 1276 q 693 1192 693 1225 q 686 1150 692 1173 q 664 1101 680 1127 l 557 918 q 542 895 549 905 q 528 877 535 884 l 342 877 m 545 1210 l 463 1210 l 395 983 l 441 983 l 545 1210 z "},"":{"ha":803,"x_min":-3,"x_max":806,"o":"m 631 660 l 621 717 l 578 760 l 509 770 l 326 770 l 326 889 l 256 889 l 256 307 l 326 307 l 326 464 l 509 464 l 578 472 l 621 515 l 631 574 l 631 660 m 549 543 l 505 536 l 326 536 l 326 697 l 505 697 l 551 690 l 558 650 l 558 581 l 549 543 m 506 929 q 630 909 574 929 q 725 853 686 888 q 785 771 764 818 q 806 671 806 724 l 806 258 q 785 158 806 205 q 725 76 764 111 q 630 20 686 41 q 506 0 574 0 l 297 0 q 173 20 229 0 q 78 76 117 41 q 18 158 39 111 q -3 258 -3 205 l -3 671 q 18 771 -3 724 q 78 853 39 818 q 173 909 117 888 q 297 929 229 929 l 506 929 z "},"":{"ha":803,"x_min":-3,"x_max":806,"o":"m 311 868 l 227 868 l 396 465 l 396 307 l 468 307 l 468 464 l 640 868 l 555 868 l 432 564 l 311 868 m 506 929 q 630 909 574 929 q 725 853 686 888 q 785 771 764 818 q 806 671 806 724 l 806 258 q 785 158 806 205 q 725 76 764 111 q 630 20 686 41 q 506 0 574 0 l 297 0 q 173 20 229 0 q 78 76 117 41 q 18 158 39 111 q -3 258 -3 205 l -3 671 q 18 771 -3 724 q 78 853 39 818 q 173 909 117 888 q 297 929 229 929 l 506 929 m 562 1003 l 562 1090 l 473 1090 l 473 1003 l 562 1003 m 252 890 q 184 963 207 920 q 161 1060 161 1007 q 180 1137 161 1101 q 235 1202 199 1174 q 321 1246 271 1230 q 433 1263 371 1263 q 546 1246 496 1263 q 632 1202 597 1230 q 687 1137 668 1174 q 706 1060 706 1101 q 683 963 706 1006 q 614 890 659 920 l 252 890 m 384 1003 l 384 1090 l 295 1090 l 295 1003 l 384 1003 z "},"":{"ha":803,"x_min":-3,"x_max":806,"o":"m 506 929 q 630 909 574 929 q 725 853 686 888 q 785 771 764 818 q 806 671 806 724 l 806 258 q 785 158 806 205 q 725 76 764 111 q 630 20 686 41 q 506 0 574 0 l 297 0 q 173 20 229 0 q 78 76 117 41 q 18 158 39 111 q -3 258 -3 205 l -3 671 q 18 771 -3 724 q 78 853 39 818 q 173 909 117 888 q 297 929 229 929 l 506 929 m 568 307 l 646 307 l 592 812 l 550 854 l 460 868 l 387 868 l 297 854 l 256 812 l 200 307 l 281 307 l 292 452 l 298 514 l 549 514 l 555 452 l 568 307 m 521 786 q 532 682 526 731 q 543 579 538 633 l 304 579 l 325 786 q 358 791 344 788 q 391 796 372 793 l 457 796 l 521 786 m 540 1003 l 540 1076 l 285 1076 l 285 1003 l 540 1003 m 240 861 q 152 942 182 896 q 122 1050 122 989 q 143 1134 122 1095 q 203 1203 164 1173 q 298 1250 242 1232 q 422 1267 353 1267 q 546 1250 491 1267 q 641 1203 602 1232 q 701 1134 680 1173 q 722 1050 722 1095 q 692 942 722 989 q 604 861 661 896 l 240 861 z "},"":{"ha":803,"x_min":-3,"x_max":806,"o":"m 589 308 l 589 463 l 589 760 l 589 817 l 543 860 l 475 868 l 321 868 l 241 859 l 258 785 l 322 798 l 473 798 l 514 789 l 524 753 l 524 595 l 475 603 l 321 603 l 253 593 l 210 550 l 200 494 l 200 415 l 210 358 l 253 315 l 321 307 l 469 307 l 522 315 l 589 308 m 524 386 l 471 379 l 325 379 l 282 386 l 273 427 l 273 485 l 278 524 l 325 530 l 472 530 l 524 525 l 524 422 l 524 386 m 506 929 q 630 909 574 929 q 725 853 686 888 q 785 771 764 818 q 806 671 806 724 l 806 258 q 785 158 806 205 q 725 76 764 111 q 630 20 686 41 q 506 0 574 0 l 297 0 q 173 20 229 0 q 78 76 117 41 q 18 158 39 111 q -3 258 -3 205 l -3 671 q 18 771 -3 724 q 78 853 39 818 q 173 909 117 888 q 297 929 229 929 l 506 929 m 553 1003 l 553 1076 l 298 1076 l 298 1003 l 553 1003 m 253 861 q 165 942 195 896 q 135 1050 135 989 q 156 1134 135 1095 q 216 1203 177 1173 q 311 1250 255 1232 q 435 1267 366 1267 q 559 1250 504 1267 q 654 1203 614 1232 q 714 1134 693 1173 q 735 1050 735 1095 q 705 942 735 989 q 617 861 674 896 l 253 861 z "},"":{"ha":803,"x_min":-3,"x_max":806,"o":"m 506 929 q 630 909 574 929 q 725 853 686 888 q 785 771 764 818 q 806 671 806 724 l 806 258 q 785 158 806 205 q 725 76 764 111 q 630 20 686 41 q 506 0 574 0 l 297 0 q 173 20 229 0 q 78 76 117 41 q 18 158 39 111 q -3 258 -3 205 l -3 671 q 18 771 -3 724 q 78 853 39 818 q 173 909 117 888 q 297 929 229 929 l 506 929 m 568 307 l 646 307 l 592 812 l 550 854 l 460 868 l 387 868 l 297 854 l 256 812 l 200 307 l 281 307 l 292 452 l 298 514 l 549 514 l 555 452 l 568 307 m 521 786 q 532 682 526 731 q 543 579 538 633 l 304 579 l 325 786 q 358 791 344 788 q 391 796 372 793 l 457 796 l 521 786 m 240 889 q 152 970 182 924 q 122 1078 122 1017 q 143 1162 122 1122 q 203 1231 164 1201 q 298 1277 242 1260 q 422 1295 353 1295 q 546 1277 491 1295 q 641 1231 602 1260 q 701 1162 680 1201 q 722 1078 722 1122 q 692 970 722 1017 q 604 889 661 924 l 240 889 m 307 1024 l 346 985 l 399 977 l 447 977 l 500 985 l 540 1025 l 549 1092 l 488 1092 l 480 1047 l 440 1038 l 404 1038 l 366 1044 l 359 1092 l 298 1092 l 307 1024 z "},"":{"ha":803,"x_min":-3,"x_max":806,"o":"m 589 308 l 589 463 l 589 760 l 589 817 l 543 860 l 475 868 l 321 868 l 241 859 l 258 785 l 322 798 l 473 798 l 514 789 l 524 753 l 524 595 l 475 603 l 321 603 l 253 593 l 210 550 l 200 494 l 200 415 l 210 358 l 253 315 l 321 307 l 469 307 l 522 315 l 589 308 m 524 386 l 471 379 l 325 379 l 282 386 l 273 427 l 273 485 l 278 524 l 325 530 l 472 530 l 524 525 l 524 422 l 524 386 m 506 929 q 630 909 574 929 q 725 853 686 888 q 785 771 764 818 q 806 671 806 724 l 806 258 q 785 158 806 205 q 725 76 764 111 q 630 20 686 41 q 506 0 574 0 l 297 0 q 173 20 229 0 q 78 76 117 41 q 18 158 39 111 q -3 258 -3 205 l -3 671 q 18 771 -3 724 q 78 853 39 818 q 173 909 117 888 q 297 929 229 929 l 506 929 m 253 889 q 165 970 195 924 q 135 1078 135 1017 q 156 1162 135 1122 q 216 1231 177 1201 q 311 1277 255 1260 q 435 1295 366 1295 q 559 1277 504 1295 q 654 1231 614 1260 q 714 1162 693 1201 q 735 1078 735 1122 q 705 970 735 1017 q 617 889 674 924 l 253 889 m 319 1024 l 359 985 l 412 977 l 460 977 l 513 985 l 553 1025 l 562 1092 l 500 1092 l 493 1047 l 453 1038 l 417 1038 l 379 1044 l 372 1092 l 311 1092 l 319 1024 z "},"":{"ha":803,"x_min":-3,"x_max":806,"o":"m 521 786 q 532 682 526 731 q 543 579 538 633 l 304 579 l 325 786 q 358 791 344 788 q 391 796 372 793 l 457 796 l 521 786 m 506 929 q 630 909 574 929 q 725 853 686 888 q 785 771 764 818 q 806 671 806 724 l 806 258 q 785 158 806 205 q 725 76 764 111 q 630 20 686 41 q 506 0 574 0 l 297 0 q 173 20 229 0 q 78 76 117 41 q 18 158 39 111 q -3 258 -3 205 l -3 671 q 18 771 -3 724 q 78 853 39 818 q 173 909 117 888 q 297 929 229 929 l 506 929 m 557 197 l 564 221 l 639 307 l 646 307 l 592 812 l 550 854 l 460 868 l 387 868 l 297 854 l 256 812 l 200 307 l 281 307 l 292 452 l 298 514 l 549 514 l 555 452 l 568 307 l 592 307 l 543 281 l 505 241 l 496 191 l 505 138 l 545 97 l 642 89 l 642 150 l 567 157 l 557 197 z "},"":{"ha":803,"x_min":-3,"x_max":806,"o":"m 506 929 q 630 909 574 929 q 725 853 686 888 q 785 771 764 818 q 806 671 806 724 l 806 258 q 785 158 806 205 q 725 76 764 111 q 630 20 686 41 q 506 0 574 0 l 297 0 q 173 20 229 0 q 78 76 117 41 q 18 158 39 111 q -3 258 -3 205 l -3 671 q 18 771 -3 724 q 78 853 39 818 q 173 909 117 888 q 297 929 229 929 l 506 929 m 523 386 l 471 379 l 325 379 l 282 386 l 273 427 l 273 485 l 278 524 l 325 530 l 472 530 l 524 525 l 524 422 l 523 386 m 596 315 l 596 463 l 596 760 l 586 817 l 543 860 l 475 868 l 321 868 l 241 859 l 258 785 l 322 798 l 473 798 l 514 789 l 524 753 l 524 595 l 475 603 l 321 603 l 253 593 l 210 550 l 200 494 l 200 415 l 210 358 l 253 315 l 321 307 l 428 307 l 380 281 l 340 242 l 332 191 l 340 138 l 381 98 l 478 89 l 478 151 l 403 157 l 393 197 l 400 221 l 475 307 l 469 307 l 596 315 z "},"":{"ha":803,"x_min":-3,"x_max":806,"o":"m 497 868 l 334 868 l 264 860 l 221 817 l 211 760 l 211 415 l 221 358 l 265 315 l 334 307 l 497 307 l 576 317 l 559 390 l 496 379 l 338 379 l 293 386 l 283 427 l 283 753 l 290 790 l 338 798 l 493 798 l 563 786 l 576 859 l 497 868 m 506 929 q 630 909 574 929 q 725 853 686 888 q 785 771 764 818 q 806 671 806 724 l 806 258 q 785 158 806 205 q 725 76 764 111 q 630 20 686 41 q 506 0 574 0 l 297 0 q 173 20 229 0 q 78 76 117 41 q 18 158 39 111 q -3 258 -3 205 l -3 671 q 18 771 -3 724 q 78 853 39 818 q 173 909 117 888 q 297 929 229 929 l 506 929 m 350 877 q 319 895 334 884 q 293 921 304 906 q 275 954 281 936 q 268 992 268 972 q 270 1013 268 999 q 279 1056 272 1027 q 301 1132 287 1085 q 338 1251 315 1179 q 362 1287 347 1272 q 399 1311 378 1302 q 447 1324 420 1320 q 501 1328 473 1328 q 575 1319 539 1328 q 639 1293 611 1310 q 684 1250 667 1276 q 701 1192 701 1225 q 694 1150 701 1173 q 672 1101 688 1127 l 565 918 q 550 895 557 905 q 536 877 543 884 l 350 877 m 553 1210 l 471 1210 l 403 983 l 450 983 l 553 1210 z "},"":{"ha":803,"x_min":-3,"x_max":806,"o":"m 497 868 l 334 868 l 264 860 l 221 817 l 211 760 l 211 415 l 221 358 l 265 315 l 334 307 l 497 307 l 576 317 l 559 390 l 496 379 l 338 379 l 293 386 l 283 427 l 283 753 l 290 790 l 338 798 l 493 798 l 563 786 l 576 859 l 497 868 m 506 929 q 630 909 574 929 q 725 853 686 888 q 785 771 764 818 q 806 671 806 724 l 806 258 q 785 158 806 205 q 725 76 764 111 q 630 20 686 41 q 506 0 574 0 l 297 0 q 173 20 229 0 q 78 76 117 41 q 18 158 39 111 q -3 258 -3 205 l -3 671 q 18 771 -3 724 q 78 853 39 818 q 173 909 117 888 q 297 929 229 929 l 506 929 m 345 877 q 314 895 329 884 q 288 921 299 906 q 269 954 276 936 q 262 992 262 972 q 264 1013 262 999 q 274 1056 267 1027 q 295 1132 281 1085 q 333 1251 309 1179 q 357 1287 341 1272 q 394 1311 372 1302 q 441 1324 415 1320 q 496 1328 467 1328 q 570 1319 534 1328 q 634 1293 606 1310 q 679 1250 662 1276 q 696 1192 696 1225 q 689 1150 695 1173 q 667 1101 682 1127 l 559 918 q 545 895 551 905 q 530 877 538 884 l 345 877 m 547 1210 l 465 1210 l 397 983 l 444 983 l 547 1210 z "},"":{"ha":803,"x_min":-3,"x_max":806,"o":"m 497 868 l 334 868 l 264 860 l 221 817 l 211 760 l 211 415 l 221 358 l 265 315 l 334 307 l 497 307 l 576 317 l 559 390 l 496 379 l 338 379 l 293 386 l 283 427 l 283 753 l 290 790 l 338 798 l 493 798 l 563 786 l 576 859 l 497 868 m 506 929 q 630 909 574 929 q 725 853 686 888 q 785 771 764 818 q 806 671 806 724 l 806 258 q 785 158 806 205 q 725 76 764 111 q 630 20 686 41 q 506 0 574 0 l 297 0 q 173 20 229 0 q 78 76 117 41 q 18 158 39 111 q -3 258 -3 205 l -3 671 q 18 771 -3 724 q 78 853 39 818 q 173 909 117 888 q 297 929 229 929 l 506 929 m 214 889 q 182 933 193 907 q 172 987 172 959 q 182 1047 172 1012 q 208 1123 192 1082 q 243 1206 224 1163 q 281 1288 262 1249 q 334 1340 300 1322 q 425 1357 368 1357 q 476 1352 454 1357 q 516 1337 498 1348 q 548 1309 534 1326 q 574 1267 562 1292 q 623 1157 601 1208 q 641 1111 631 1135 q 656 1066 650 1088 q 668 1026 663 1045 q 672 995 672 1008 q 625 889 672 926 l 214 889 m 422 1193 l 486 995 l 542 995 l 453 1224 l 392 1224 l 303 995 l 358 995 l 422 1193 z "},"":{"ha":803,"x_min":-3,"x_max":806,"o":"m 497 868 l 334 868 l 264 860 l 221 817 l 211 760 l 211 415 l 221 358 l 265 315 l 334 307 l 497 307 l 576 317 l 559 390 l 496 379 l 338 379 l 293 386 l 283 427 l 283 753 l 290 790 l 338 798 l 493 798 l 563 786 l 576 859 l 497 868 m 506 929 q 630 909 574 929 q 725 853 686 888 q 785 771 764 818 q 806 671 806 724 l 806 258 q 785 158 806 205 q 725 76 764 111 q 630 20 686 41 q 506 0 574 0 l 297 0 q 173 20 229 0 q 78 76 117 41 q 18 158 39 111 q -3 258 -3 205 l -3 671 q 18 771 -3 724 q 78 853 39 818 q 173 909 117 888 q 297 929 229 929 l 506 929 m 211 889 q 180 933 190 907 q 170 987 170 959 q 179 1047 170 1012 q 205 1123 189 1082 q 240 1206 221 1163 q 278 1288 260 1249 q 332 1340 298 1322 q 422 1357 366 1357 q 473 1352 451 1357 q 513 1337 496 1348 q 545 1309 531 1326 q 571 1267 559 1292 q 620 1157 598 1208 q 638 1111 629 1135 q 654 1066 647 1088 q 665 1026 661 1045 q 669 995 669 1008 q 623 889 669 926 l 211 889 m 420 1193 l 484 995 l 539 995 l 450 1224 l 389 1224 l 300 995 l 355 995 l 420 1193 z "},"":{"ha":803,"x_min":-3,"x_max":806,"o":"m 497 868 l 334 868 l 264 860 l 221 817 l 211 760 l 211 415 l 221 358 l 265 315 l 334 307 l 497 307 l 576 317 l 559 390 l 496 379 l 338 379 l 293 386 l 283 427 l 283 753 l 290 790 l 338 798 l 493 798 l 563 786 l 576 859 l 497 868 m 506 929 q 630 909 574 929 q 725 853 686 888 q 785 771 764 818 q 806 671 806 724 l 806 258 q 785 158 806 205 q 725 76 764 111 q 630 20 686 41 q 506 0 574 0 l 297 0 q 173 20 229 0 q 78 76 117 41 q 18 158 39 111 q -3 258 -3 205 l -3 671 q 18 771 -3 724 q 78 853 39 818 q 173 909 117 888 q 297 929 229 929 l 506 929 m 432 991 l 432 1079 l 343 1079 l 343 991 l 432 991 m 155 875 q 127 911 140 890 q 107 956 115 932 q 95 1005 99 980 q 90 1052 90 1029 q 111 1135 90 1096 q 171 1204 132 1175 q 266 1251 210 1234 q 390 1268 321 1268 q 514 1251 459 1268 q 609 1204 570 1234 q 669 1135 648 1175 q 690 1052 690 1096 q 674 955 690 999 q 627 875 658 911 l 155 875 z "},"":{"ha":803,"x_min":-3,"x_max":806,"o":"m 497 868 l 334 868 l 264 860 l 221 817 l 211 760 l 211 415 l 221 358 l 265 315 l 334 307 l 497 307 l 576 317 l 559 390 l 496 379 l 338 379 l 293 386 l 283 427 l 283 753 l 290 790 l 338 798 l 493 798 l 563 786 l 576 859 l 497 868 m 506 929 q 630 909 574 929 q 725 853 686 888 q 785 771 764 818 q 806 671 806 724 l 806 258 q 785 158 806 205 q 725 76 764 111 q 630 20 686 41 q 506 0 574 0 l 297 0 q 173 20 229 0 q 78 76 117 41 q 18 158 39 111 q -3 258 -3 205 l -3 671 q 18 771 -3 724 q 78 853 39 818 q 173 909 117 888 q 297 929 229 929 l 506 929 m 445 991 l 445 1079 l 356 1079 l 356 991 l 445 991 m 168 875 q 140 911 153 890 q 120 956 128 932 q 107 1005 112 980 q 103 1052 103 1029 q 124 1135 103 1096 q 184 1204 145 1175 q 279 1251 223 1234 q 403 1268 334 1268 q 527 1251 472 1268 q 622 1204 583 1234 q 682 1135 661 1175 q 703 1052 703 1096 q 687 955 703 999 q 640 875 671 911 l 168 875 z "},"":{"ha":803,"x_min":-3,"x_max":806,"o":"m 497 868 l 334 868 l 264 860 l 221 817 l 211 760 l 211 415 l 221 358 l 265 315 l 334 307 l 497 307 l 576 317 l 559 390 l 496 379 l 338 379 l 293 386 l 283 427 l 283 753 l 290 790 l 338 798 l 493 798 l 563 786 l 576 859 l 497 868 m 506 929 q 630 909 574 929 q 725 853 686 888 q 785 771 764 818 q 806 671 806 724 l 806 258 q 785 158 806 205 q 725 76 764 111 q 630 20 686 41 q 506 0 574 0 l 297 0 q 173 20 229 0 q 78 76 117 41 q 18 158 39 111 q -3 258 -3 205 l -3 671 q 18 771 -3 724 q 78 853 39 818 q 173 909 117 888 q 297 929 229 929 l 506 929 m 395 1276 q 441 1306 416 1295 q 503 1317 466 1317 q 567 1306 540 1317 q 610 1277 593 1295 q 635 1234 627 1259 q 643 1182 643 1209 q 635 1116 643 1154 q 616 1038 627 1078 q 590 958 604 997 q 564 889 576 918 l 224 889 q 195 971 210 928 q 169 1055 180 1015 q 150 1129 157 1095 q 143 1189 143 1164 q 151 1236 143 1213 q 178 1276 159 1259 q 227 1305 197 1294 q 301 1316 257 1316 q 356 1305 335 1316 q 395 1276 377 1294 m 329 1196 l 274 1196 l 363 967 l 424 967 l 513 1196 l 457 1196 l 393 998 l 329 1196 z "},"":{"ha":803,"x_min":-3,"x_max":806,"o":"m 497 868 l 334 868 l 264 860 l 221 817 l 211 760 l 211 415 l 221 358 l 265 315 l 334 307 l 497 307 l 576 317 l 559 390 l 496 379 l 338 379 l 293 386 l 283 427 l 283 753 l 290 790 l 338 798 l 493 798 l 563 786 l 576 859 l 497 868 m 506 929 q 630 909 574 929 q 725 853 686 888 q 785 771 764 818 q 806 671 806 724 l 806 258 q 785 158 806 205 q 725 76 764 111 q 630 20 686 41 q 506 0 574 0 l 297 0 q 173 20 229 0 q 78 76 117 41 q 18 158 39 111 q -3 258 -3 205 l -3 671 q 18 771 -3 724 q 78 853 39 818 q 173 909 117 888 q 297 929 229 929 l 506 929 m 407 1276 q 453 1306 428 1295 q 515 1317 478 1317 q 579 1306 552 1317 q 623 1277 606 1295 q 647 1234 640 1259 q 655 1182 655 1209 q 647 1116 655 1154 q 628 1038 640 1078 q 603 958 616 997 q 576 889 589 918 l 236 889 q 207 971 222 928 q 181 1055 193 1015 q 162 1129 170 1095 q 155 1189 155 1164 q 163 1236 155 1213 q 191 1276 172 1259 q 239 1305 210 1294 q 313 1316 269 1316 q 368 1305 347 1316 q 407 1276 389 1294 m 341 1196 l 286 1196 l 375 967 l 436 967 l 525 1196 l 469 1196 l 406 998 l 341 1196 z "},"":{"ha":803,"x_min":-3,"x_max":806,"o":"m 506 929 q 630 909 574 929 q 725 853 686 888 q 785 771 764 818 q 806 671 806 724 l 806 258 q 785 158 806 205 q 725 76 764 111 q 630 20 686 41 q 506 0 574 0 l 297 0 q 173 20 229 0 q 78 76 117 41 q 18 158 39 111 q -3 258 -3 205 l -3 671 q 18 771 -3 724 q 78 853 39 818 q 173 909 117 888 q 297 929 229 929 l 506 929 m 647 758 l 637 815 l 595 859 l 525 868 l 222 868 l 222 307 l 525 307 l 595 315 l 637 358 l 647 416 l 647 758 m 566 386 l 521 379 l 293 379 l 293 796 l 521 796 l 568 789 l 575 749 l 575 424 l 566 386 m 403 1294 q 449 1324 424 1313 q 511 1335 474 1335 q 575 1324 548 1335 q 618 1295 602 1313 q 643 1252 635 1276 q 651 1200 651 1227 q 643 1134 651 1172 q 624 1055 635 1096 q 598 975 612 1015 q 572 907 585 936 l 232 907 q 203 989 218 946 q 177 1072 189 1032 q 158 1147 165 1112 q 151 1206 151 1182 q 159 1254 151 1231 q 186 1294 168 1276 q 235 1322 205 1312 q 309 1333 265 1333 q 364 1322 343 1333 q 403 1294 385 1312 m 337 1214 l 282 1214 l 371 985 l 432 985 l 521 1214 l 465 1214 l 401 1015 l 337 1214 z "},"":{"ha":803,"x_min":-3,"x_max":806,"o":"m 506 929 q 630 909 574 929 q 725 853 686 888 q 785 771 764 818 q 806 671 806 724 l 806 258 q 785 158 806 205 q 725 76 764 111 q 630 20 686 41 q 506 0 574 0 l 297 0 q 173 20 229 0 q 78 76 117 41 q 18 158 39 111 q -3 258 -3 205 l -3 671 q 18 771 -3 724 q 78 853 39 818 q 173 909 117 888 q 297 929 229 929 l 506 929 m 561 758 l 551 815 l 509 859 l 439 868 l 167 868 l 167 307 l 439 307 l 509 315 l 551 358 l 561 416 l 561 758 m 479 386 l 435 379 l 237 379 l 237 796 l 435 796 l 482 789 l 489 749 l 489 424 l 479 386 m 637 693 l 680 781 l 680 868 l 576 868 l 576 781 l 621 781 l 595 713 l 637 693 z "},"":{"ha":803,"x_min":-3,"x_max":806,"o":"m 647 758 l 637 815 l 595 859 l 525 868 l 222 868 l 222 647 l 138 647 l 138 574 l 222 574 l 222 307 l 525 307 l 595 315 l 637 358 l 647 416 l 647 758 m 566 386 l 521 379 l 293 379 l 293 574 l 393 574 l 393 647 l 293 647 l 293 796 l 521 796 l 568 789 l 575 749 l 575 424 l 566 386 m 506 929 q 630 909 574 929 q 725 853 686 888 q 785 771 764 818 q 806 671 806 724 l 806 258 q 785 158 806 205 q 725 76 764 111 q 630 20 686 41 q 506 0 574 0 l 297 0 q 173 20 229 0 q 78 76 117 41 q 18 158 39 111 q -3 258 -3 205 l -3 671 q 18 771 -3 724 q 78 853 39 818 q 173 909 117 888 q 297 929 229 929 l 506 929 z "},"":{"ha":803,"x_min":-3,"x_max":806,"o":"m 647 758 l 637 815 l 595 859 l 525 868 l 222 868 l 222 647 l 138 647 l 138 574 l 222 574 l 222 307 l 525 307 l 595 315 l 637 358 l 647 416 l 647 758 m 566 386 l 521 379 l 293 379 l 293 574 l 393 574 l 393 647 l 293 647 l 293 796 l 521 796 l 568 789 l 575 749 l 575 424 l 566 386 m 506 929 q 630 909 574 929 q 725 853 686 888 q 785 771 764 818 q 806 671 806 724 l 806 258 q 785 158 806 205 q 725 76 764 111 q 630 20 686 41 q 506 0 574 0 l 297 0 q 173 20 229 0 q 78 76 117 41 q 18 158 39 111 q -3 258 -3 205 l -3 671 q 18 771 -3 724 q 78 853 39 818 q 173 909 117 888 q 297 929 229 929 l 506 929 z "},"":{"ha":803,"x_min":-3,"x_max":806,"o":"m 614 379 l 343 379 l 343 551 l 570 551 l 570 623 l 343 623 l 343 796 l 604 796 l 604 868 l 273 868 l 273 307 l 614 307 l 614 379 m 506 929 q 630 909 574 929 q 725 853 686 888 q 785 771 764 818 q 806 671 806 724 l 806 258 q 785 158 806 205 q 725 76 764 111 q 630 20 686 41 q 506 0 574 0 l 297 0 q 173 20 229 0 q 78 76 117 41 q 18 158 39 111 q -3 258 -3 205 l -3 671 q 18 771 -3 724 q 78 853 39 818 q 173 909 117 888 q 297 929 229 929 l 506 929 m 554 1003 l 554 1076 l 299 1076 l 299 1003 l 554 1003 m 254 861 q 166 942 197 896 q 136 1050 136 989 q 157 1134 136 1095 q 217 1203 178 1173 q 312 1250 256 1232 q 436 1267 368 1267 q 561 1250 505 1267 q 655 1203 616 1232 q 715 1134 694 1173 q 736 1050 736 1095 q 706 942 736 989 q 618 861 675 896 l 254 861 z "},"":{"ha":803,"x_min":-3,"x_max":806,"o":"m 506 929 q 630 909 574 929 q 725 853 686 888 q 785 771 764 818 q 806 671 806 724 l 806 258 q 785 158 806 205 q 725 76 764 111 q 630 20 686 41 q 506 0 574 0 l 297 0 q 173 20 229 0 q 78 76 117 41 q 18 158 39 111 q -3 258 -3 205 l -3 671 q 18 771 -3 724 q 78 853 39 818 q 173 909 117 888 q 297 929 229 929 l 506 929 m 595 760 l 585 817 l 542 860 l 473 868 l 326 868 l 258 860 l 216 817 l 205 760 l 205 437 l 216 380 l 258 338 l 326 329 l 497 329 l 576 339 l 559 412 l 496 401 l 331 401 l 288 408 l 278 449 l 278 589 l 595 589 l 595 760 m 278 660 l 278 751 l 283 790 l 331 798 l 469 798 l 515 790 l 522 750 l 522 660 l 278 660 m 519 993 l 519 1066 l 264 1066 l 264 993 l 519 993 m 220 851 q 132 932 162 886 q 102 1040 102 979 q 123 1124 102 1084 q 183 1193 144 1163 q 277 1239 222 1222 q 401 1257 333 1257 q 526 1239 471 1257 q 621 1193 581 1222 q 681 1124 660 1163 q 702 1040 702 1084 q 671 932 702 979 q 584 851 641 886 l 220 851 z "},"":{"ha":803,"x_min":-3,"x_max":806,"o":"m 614 379 l 343 379 l 343 551 l 570 551 l 570 623 l 343 623 l 343 796 l 604 796 l 604 868 l 273 868 l 273 307 l 614 307 l 614 379 m 506 929 q 630 909 574 929 q 725 853 686 888 q 785 771 764 818 q 806 671 806 724 l 806 258 q 785 158 806 205 q 725 76 764 111 q 630 20 686 41 q 506 0 574 0 l 297 0 q 173 20 229 0 q 78 76 117 41 q 18 158 39 111 q -3 258 -3 205 l -3 671 q 18 771 -3 724 q 78 853 39 818 q 173 909 117 888 q 297 929 229 929 l 506 929 m 254 889 q 166 970 197 924 q 136 1078 136 1017 q 157 1162 136 1122 q 217 1231 178 1201 q 312 1277 256 1260 q 436 1295 368 1295 q 561 1277 505 1295 q 655 1231 616 1260 q 715 1162 694 1201 q 736 1078 736 1122 q 706 970 736 1017 q 618 889 675 924 l 254 889 m 321 1024 l 360 985 l 413 977 l 461 977 l 514 985 l 554 1025 l 563 1092 l 502 1092 l 494 1047 l 454 1038 l 418 1038 l 380 1044 l 374 1092 l 313 1092 l 321 1024 z "},"":{"ha":803,"x_min":-3,"x_max":806,"o":"m 506 929 q 630 909 574 929 q 725 853 686 888 q 785 771 764 818 q 806 671 806 724 l 806 258 q 785 158 806 205 q 725 76 764 111 q 630 20 686 41 q 506 0 574 0 l 297 0 q 173 20 229 0 q 78 76 117 41 q 18 158 39 111 q -3 258 -3 205 l -3 671 q 18 771 -3 724 q 78 853 39 818 q 173 909 117 888 q 297 929 229 929 l 506 929 m 595 760 l 585 817 l 542 860 l 473 868 l 326 868 l 258 860 l 216 817 l 205 760 l 205 437 l 216 380 l 258 338 l 326 329 l 497 329 l 576 339 l 559 412 l 496 401 l 331 401 l 288 408 l 278 449 l 278 589 l 595 589 l 595 760 m 278 660 l 278 751 l 283 790 l 331 798 l 469 798 l 515 790 l 522 750 l 522 660 l 278 660 m 220 882 q 132 963 162 916 q 102 1071 102 1009 q 123 1154 102 1115 q 183 1223 144 1194 q 277 1270 222 1253 q 401 1287 333 1287 q 526 1270 471 1287 q 621 1223 581 1253 q 681 1154 660 1194 q 702 1071 702 1115 q 671 963 702 1009 q 584 882 641 916 l 220 882 m 286 1017 l 326 977 l 378 969 l 427 969 l 479 977 l 519 1018 l 528 1084 l 467 1084 l 460 1040 l 420 1030 l 384 1030 l 346 1037 l 339 1084 l 278 1084 l 286 1017 z "},"":{"ha":803,"x_min":-3,"x_max":806,"o":"m 614 379 l 343 379 l 343 551 l 570 551 l 570 623 l 343 623 l 343 796 l 604 796 l 604 868 l 273 868 l 273 307 l 614 307 l 614 379 m 506 929 q 630 909 574 929 q 725 853 686 888 q 785 771 764 818 q 806 671 806 724 l 806 258 q 785 158 806 205 q 725 76 764 111 q 630 20 686 41 q 506 0 574 0 l 297 0 q 173 20 229 0 q 78 76 117 41 q 18 158 39 111 q -3 258 -3 205 l -3 671 q 18 771 -3 724 q 78 853 39 818 q 173 909 117 888 q 297 929 229 929 l 506 929 m 478 1019 l 478 1107 l 389 1107 l 389 1019 l 478 1019 m 201 903 q 174 939 186 918 q 153 984 161 960 q 141 1033 145 1008 q 136 1080 136 1057 q 157 1163 136 1124 q 217 1232 178 1202 q 312 1279 256 1261 q 436 1296 368 1296 q 561 1279 505 1296 q 655 1232 616 1261 q 715 1163 694 1202 q 736 1080 736 1124 q 720 983 736 1027 q 673 903 704 939 l 201 903 z "},"":{"ha":803,"x_min":-3,"x_max":806,"o":"m 506 929 q 630 909 574 929 q 725 853 686 888 q 785 771 764 818 q 806 671 806 724 l 806 258 q 785 158 806 205 q 725 76 764 111 q 630 20 686 41 q 506 0 574 0 l 297 0 q 173 20 229 0 q 78 76 117 41 q 18 158 39 111 q -3 258 -3 205 l -3 671 q 18 771 -3 724 q 78 853 39 818 q 173 909 117 888 q 297 929 229 929 l 506 929 m 595 760 l 585 817 l 542 860 l 473 868 l 326 868 l 258 860 l 216 817 l 205 760 l 205 437 l 216 380 l 258 338 l 326 329 l 497 329 l 576 339 l 559 412 l 496 401 l 331 401 l 288 408 l 278 449 l 278 589 l 595 589 l 595 760 m 278 660 l 278 751 l 283 790 l 331 798 l 469 798 l 515 790 l 522 750 l 522 660 l 278 660 m 444 1010 l 444 1098 l 355 1098 l 355 1010 l 444 1010 m 167 894 q 139 930 151 909 q 119 975 127 951 q 106 1024 111 999 q 102 1071 102 1048 q 123 1154 102 1115 q 183 1223 144 1194 q 277 1270 222 1253 q 401 1287 333 1287 q 526 1270 471 1287 q 621 1223 581 1253 q 681 1154 660 1194 q 702 1071 702 1115 q 686 974 702 1018 q 638 894 669 930 l 167 894 z "},"":{"ha":803,"x_min":-3,"x_max":806,"o":"m 506 929 q 630 909 574 929 q 725 853 686 888 q 785 771 764 818 q 806 671 806 724 l 806 258 q 785 158 806 205 q 725 76 764 111 q 630 20 686 41 q 506 0 574 0 l 297 0 q 173 20 229 0 q 78 76 117 41 q 18 158 39 111 q -3 258 -3 205 l -3 671 q 18 771 -3 724 q 78 853 39 818 q 173 909 117 888 q 297 929 229 929 l 506 929 m 614 379 l 343 379 l 343 551 l 570 551 l 570 623 l 343 623 l 343 796 l 604 796 l 604 868 l 273 868 l 273 307 l 561 307 l 513 281 l 473 241 l 465 191 l 473 138 l 514 97 l 611 89 l 611 150 l 536 157 l 526 197 l 534 221 l 608 307 l 614 307 l 614 379 z "},"":{"ha":803,"x_min":-3,"x_max":806,"o":"m 278 660 l 278 751 l 283 790 l 331 798 l 469 798 l 515 790 l 522 750 l 522 660 l 278 660 m 595 760 l 585 817 l 542 860 l 473 868 l 326 868 l 258 860 l 216 817 l 205 760 l 205 437 l 216 380 l 258 338 l 326 329 l 456 329 l 407 302 l 368 264 l 360 212 l 368 160 l 408 119 l 506 111 l 506 172 l 431 179 l 421 220 l 428 243 l 503 329 l 497 329 l 576 339 l 559 412 l 496 401 l 331 401 l 288 408 l 278 449 l 278 589 l 595 589 l 595 760 m 506 929 q 630 909 574 929 q 725 853 686 888 q 785 771 764 818 q 806 671 806 724 l 806 258 q 785 158 806 205 q 725 76 764 111 q 630 20 686 41 q 506 0 574 0 l 297 0 q 173 20 229 0 q 78 76 117 41 q 18 158 39 111 q -3 258 -3 205 l -3 671 q 18 771 -3 724 q 78 853 39 818 q 173 909 117 888 q 297 929 229 929 l 506 929 z "},"":{"ha":803,"x_min":-3,"x_max":806,"o":"m 614 379 l 343 379 l 343 551 l 570 551 l 570 623 l 343 623 l 343 796 l 604 796 l 604 868 l 273 868 l 273 307 l 614 307 l 614 379 m 506 929 q 630 909 574 929 q 725 853 686 888 q 785 771 764 818 q 806 671 806 724 l 806 258 q 785 158 806 205 q 725 76 764 111 q 630 20 686 41 q 506 0 574 0 l 297 0 q 173 20 229 0 q 78 76 117 41 q 18 158 39 111 q -3 258 -3 205 l -3 671 q 18 771 -3 724 q 78 853 39 818 q 173 909 117 888 q 297 929 229 929 l 506 929 m 441 1276 q 487 1306 462 1295 q 549 1317 512 1317 q 613 1306 586 1317 q 656 1277 640 1295 q 681 1234 673 1259 q 689 1182 689 1209 q 681 1116 689 1154 q 662 1038 673 1078 q 636 958 650 997 q 610 889 623 918 l 270 889 q 241 971 256 928 q 215 1055 227 1015 q 196 1129 203 1095 q 189 1189 189 1164 q 197 1236 189 1213 q 224 1276 205 1259 q 273 1305 243 1294 q 347 1316 303 1316 q 402 1305 381 1316 q 441 1276 423 1294 m 375 1196 l 320 1196 l 409 967 l 470 967 l 559 1196 l 503 1196 l 439 998 l 375 1196 z "},"":{"ha":803,"x_min":-3,"x_max":806,"o":"m 506 929 q 630 909 574 929 q 725 853 686 888 q 785 771 764 818 q 806 671 806 724 l 806 258 q 785 158 806 205 q 725 76 764 111 q 630 20 686 41 q 506 0 574 0 l 297 0 q 173 20 229 0 q 78 76 117 41 q 18 158 39 111 q -3 258 -3 205 l -3 671 q 18 771 -3 724 q 78 853 39 818 q 173 909 117 888 q 297 929 229 929 l 506 929 m 595 760 l 585 817 l 542 860 l 473 868 l 326 868 l 258 860 l 216 817 l 205 760 l 205 437 l 216 380 l 258 338 l 326 329 l 497 329 l 576 339 l 559 412 l 496 401 l 331 401 l 288 408 l 278 449 l 278 589 l 595 589 l 595 760 m 278 660 l 278 751 l 283 790 l 331 798 l 469 798 l 515 790 l 522 750 l 522 660 l 278 660 m 403 1280 q 449 1310 424 1299 q 511 1321 474 1321 q 575 1310 548 1321 q 618 1281 602 1299 q 643 1238 635 1263 q 651 1186 651 1213 q 643 1120 651 1158 q 624 1042 635 1082 q 598 962 612 1001 q 572 893 585 922 l 232 893 q 203 976 218 932 q 177 1059 189 1019 q 158 1134 165 1099 q 151 1193 151 1168 q 159 1240 151 1217 q 186 1280 168 1263 q 235 1309 205 1298 q 309 1320 265 1320 q 364 1309 343 1320 q 403 1280 385 1298 m 337 1200 l 282 1200 l 371 971 l 432 971 l 521 1200 l 465 1200 l 401 1002 l 337 1200 z "},"":{"ha":803,"x_min":-3,"x_max":806,"o":"m 355 798 l 532 798 l 602 786 l 615 859 l 536 868 l 354 868 l 285 857 l 241 814 l 232 757 l 232 416 l 241 358 l 286 315 l 354 307 l 524 307 l 592 315 l 636 358 l 646 416 l 646 595 l 449 595 l 449 522 l 574 522 l 574 427 q 569 406 570 416 q 564 386 568 397 l 519 379 l 355 379 l 314 386 l 304 429 l 304 750 l 311 787 l 355 798 m 506 929 q 630 909 574 929 q 725 853 686 888 q 785 771 764 818 q 806 671 806 724 l 806 258 q 785 158 806 205 q 725 76 764 111 q 630 20 686 41 q 506 0 574 0 l 297 0 q 173 20 229 0 q 78 76 117 41 q 18 158 39 111 q -3 258 -3 205 l -3 671 q 18 771 -3 724 q 78 853 39 818 q 173 909 117 888 q 297 929 229 929 l 506 929 m 207 885 q 176 929 186 903 q 165 983 165 955 q 175 1043 165 1008 q 201 1119 185 1078 q 236 1202 217 1159 q 274 1284 256 1244 q 328 1336 294 1318 q 418 1353 361 1353 q 469 1348 447 1353 q 509 1333 492 1343 q 541 1305 527 1322 q 567 1263 555 1288 q 616 1153 594 1204 q 634 1107 625 1131 q 650 1062 643 1084 q 661 1022 656 1041 q 665 991 665 1004 q 618 885 665 922 l 207 885 m 416 1189 l 479 991 l 535 991 l 446 1220 l 385 1220 l 296 991 l 351 991 l 416 1189 z "},"":{"ha":803,"x_min":-3,"x_max":806,"o":"m 355 798 l 532 798 l 602 786 l 615 859 l 536 868 l 354 868 l 285 857 l 241 814 l 232 757 l 232 416 l 241 358 l 286 315 l 354 307 l 524 307 l 592 315 l 636 358 l 646 416 l 646 595 l 449 595 l 449 522 l 574 522 l 574 427 q 569 406 570 416 q 564 386 568 397 l 519 379 l 355 379 l 314 386 l 304 429 l 304 750 l 311 787 l 355 798 m 506 929 q 630 909 574 929 q 725 853 686 888 q 785 771 764 818 q 806 671 806 724 l 806 258 q 785 158 806 205 q 725 76 764 111 q 630 20 686 41 q 506 0 574 0 l 297 0 q 173 20 229 0 q 78 76 117 41 q 18 158 39 111 q -3 258 -3 205 l -3 671 q 18 771 -3 724 q 78 853 39 818 q 173 909 117 888 q 297 929 229 929 l 506 929 m 207 884 q 176 927 186 901 q 165 982 165 954 q 175 1042 165 1006 q 201 1117 185 1077 q 236 1200 217 1158 q 274 1282 256 1243 q 328 1334 294 1317 q 418 1352 361 1352 q 469 1347 447 1352 q 509 1332 492 1342 q 541 1304 527 1321 q 567 1261 555 1286 q 616 1152 594 1203 q 634 1106 625 1129 q 650 1061 643 1082 q 661 1021 656 1040 q 665 989 665 1002 q 618 884 665 920 l 207 884 m 416 1187 l 479 989 l 535 989 l 446 1219 l 385 1219 l 296 989 l 351 989 l 416 1187 z "},"":{"ha":803,"x_min":-3,"x_max":806,"o":"m 355 798 l 532 798 l 602 786 l 615 859 l 536 868 l 354 868 l 285 857 l 241 814 l 232 757 l 232 416 l 241 358 l 286 315 l 354 307 l 524 307 l 592 315 l 636 358 l 646 416 l 646 595 l 449 595 l 449 522 l 574 522 l 574 427 q 569 406 570 416 q 564 386 568 397 l 519 379 l 355 379 l 314 386 l 304 429 l 304 750 l 311 787 l 355 798 m 506 929 q 630 909 574 929 q 725 853 686 888 q 785 771 764 818 q 806 671 806 724 l 806 258 q 785 158 806 205 q 725 76 764 111 q 630 20 686 41 q 506 0 574 0 l 297 0 q 173 20 229 0 q 78 76 117 41 q 18 158 39 111 q -3 258 -3 205 l -3 671 q 18 771 -3 724 q 78 853 39 818 q 173 909 117 888 q 297 929 229 929 l 506 929 m 233 890 q 145 971 176 925 q 115 1080 115 1018 q 136 1163 115 1124 q 196 1232 157 1202 q 291 1279 235 1261 q 415 1296 347 1296 q 539 1279 484 1296 q 634 1232 595 1261 q 694 1163 673 1202 q 715 1080 715 1124 q 685 971 715 1018 q 597 890 654 925 l 233 890 m 300 1025 l 339 986 l 392 978 l 440 978 l 493 986 l 533 1027 l 542 1093 l 481 1093 l 473 1048 l 433 1039 l 397 1039 l 359 1046 l 353 1093 l 292 1093 l 300 1025 z "},"":{"ha":803,"x_min":-3,"x_max":806,"o":"m 355 798 l 532 798 l 602 786 l 615 859 l 536 868 l 354 868 l 285 857 l 241 814 l 232 757 l 232 416 l 241 358 l 286 315 l 354 307 l 524 307 l 592 315 l 636 358 l 646 416 l 646 595 l 449 595 l 449 522 l 574 522 l 574 427 q 569 406 570 416 q 564 386 568 397 l 519 379 l 355 379 l 314 386 l 304 429 l 304 750 l 311 787 l 355 798 m 506 929 q 630 909 574 929 q 725 853 686 888 q 785 771 764 818 q 806 671 806 724 l 806 258 q 785 158 806 205 q 725 76 764 111 q 630 20 686 41 q 506 0 574 0 l 297 0 q 173 20 229 0 q 78 76 117 41 q 18 158 39 111 q -3 258 -3 205 l -3 671 q 18 771 -3 724 q 78 853 39 818 q 173 909 117 888 q 297 929 229 929 l 506 929 m 220 888 q 132 969 162 922 q 102 1077 102 1015 q 123 1160 102 1121 q 183 1229 144 1200 q 277 1276 222 1259 q 401 1293 333 1293 q 526 1276 471 1293 q 621 1229 581 1259 q 681 1160 660 1200 q 702 1077 702 1121 q 671 969 702 1015 q 584 888 641 922 l 220 888 m 286 1023 l 326 983 l 378 975 l 427 975 l 479 983 l 519 1024 l 528 1090 l 467 1090 l 460 1046 l 420 1036 l 384 1036 l 346 1043 l 339 1090 l 278 1090 l 286 1023 z "},"":{"ha":803,"x_min":-3,"x_max":806,"o":"m 355 798 l 532 798 l 602 786 l 615 859 l 536 868 l 354 868 l 285 857 l 241 814 l 232 757 l 232 416 l 241 358 l 286 315 l 354 307 l 524 307 l 592 315 l 636 358 l 646 416 l 646 595 l 449 595 l 449 522 l 574 522 l 574 427 q 569 406 570 416 q 564 386 568 397 l 519 379 l 355 379 l 314 386 l 304 429 l 304 750 l 311 787 l 355 798 m 506 929 q 630 909 574 929 q 725 853 686 888 q 785 771 764 818 q 806 671 806 724 l 806 258 q 785 158 806 205 q 725 76 764 111 q 630 20 686 41 q 506 0 574 0 l 297 0 q 173 20 229 0 q 78 76 117 41 q 18 158 39 111 q -3 258 -3 205 l -3 671 q 18 771 -3 724 q 78 853 39 818 q 173 909 117 888 q 297 929 229 929 l 506 929 m 444 1013 l 444 1100 l 355 1100 l 355 1013 l 444 1013 m 167 896 q 139 932 151 911 q 119 977 127 954 q 106 1026 111 1001 q 102 1073 102 1050 q 123 1156 102 1117 q 183 1225 144 1196 q 277 1272 222 1255 q 401 1289 333 1289 q 526 1272 471 1289 q 621 1225 581 1255 q 681 1156 660 1196 q 702 1073 702 1117 q 686 976 702 1020 q 638 896 669 932 l 167 896 z "},"":{"ha":803,"x_min":-3,"x_max":806,"o":"m 355 798 l 532 798 l 602 786 l 615 859 l 536 868 l 354 868 l 285 857 l 241 814 l 232 757 l 232 416 l 241 358 l 286 315 l 354 307 l 524 307 l 592 315 l 636 358 l 646 416 l 646 595 l 449 595 l 449 522 l 574 522 l 574 427 q 569 406 570 416 q 564 386 568 397 l 519 379 l 355 379 l 314 386 l 304 429 l 304 750 l 311 787 l 355 798 m 506 929 q 630 909 574 929 q 725 853 686 888 q 785 771 764 818 q 806 671 806 724 l 806 258 q 785 158 806 205 q 725 76 764 111 q 630 20 686 41 q 506 0 574 0 l 297 0 q 173 20 229 0 q 78 76 117 41 q 18 158 39 111 q -3 258 -3 205 l -3 671 q 18 771 -3 724 q 78 853 39 818 q 173 909 117 888 q 297 929 229 929 l 506 929 m 444 1018 l 444 1105 l 355 1105 l 355 1018 l 444 1018 m 167 901 q 139 938 151 916 q 119 983 127 959 q 106 1031 111 1006 q 102 1078 102 1056 q 123 1162 102 1122 q 183 1231 144 1201 q 277 1277 222 1260 q 401 1295 333 1295 q 526 1277 471 1295 q 621 1231 581 1260 q 681 1162 660 1201 q 702 1078 702 1122 q 686 982 702 1025 q 638 901 669 938 l 167 901 z "},"":{"ha":803,"x_min":-3,"x_max":806,"o":"m 452 81 l 493 168 l 493 256 l 391 256 l 391 168 l 435 168 l 408 100 l 452 81 m 355 798 l 532 798 l 602 786 l 615 859 l 536 868 l 354 868 l 285 857 l 241 814 l 232 757 l 232 416 l 241 358 l 286 315 l 354 307 l 524 307 l 592 315 l 636 358 l 646 416 l 646 595 l 449 595 l 449 522 l 574 522 l 574 427 q 569 406 570 416 q 564 386 568 397 l 519 379 l 355 379 l 314 386 l 304 429 l 304 750 l 311 787 l 355 798 m 506 929 q 630 909 574 929 q 725 853 686 888 q 785 771 764 818 q 806 671 806 724 l 806 258 q 785 158 806 205 q 725 76 764 111 q 630 20 686 41 q 506 0 574 0 l 297 0 q 173 20 229 0 q 78 76 117 41 q 18 158 39 111 q -3 258 -3 205 l -3 671 q 18 771 -3 724 q 78 853 39 818 q 173 909 117 888 q 297 929 229 929 l 506 929 z "},"":{"ha":803,"x_min":-3,"x_max":806,"o":"m 452 81 l 493 168 l 493 256 l 391 256 l 391 168 l 435 168 l 408 100 l 452 81 m 355 798 l 532 798 l 602 786 l 615 859 l 536 868 l 354 868 l 285 857 l 241 814 l 232 757 l 232 416 l 241 358 l 286 315 l 354 307 l 524 307 l 592 315 l 636 358 l 646 416 l 646 595 l 449 595 l 449 522 l 574 522 l 574 427 q 569 406 570 416 q 564 386 568 397 l 519 379 l 355 379 l 314 386 l 304 429 l 304 750 l 311 787 l 355 798 m 506 929 q 630 909 574 929 q 725 853 686 888 q 785 771 764 818 q 806 671 806 724 l 806 258 q 785 158 806 205 q 725 76 764 111 q 630 20 686 41 q 506 0 574 0 l 297 0 q 173 20 229 0 q 78 76 117 41 q 18 158 39 111 q -3 258 -3 205 l -3 671 q 18 771 -3 724 q 78 853 39 818 q 173 909 117 888 q 297 929 229 929 l 506 929 z "},"":{"ha":803,"x_min":-3,"x_max":806,"o":"m 647 868 l 576 868 l 576 631 l 294 631 l 294 868 l 222 868 l 222 307 l 294 307 l 294 559 l 576 559 l 576 307 l 647 307 l 647 868 m 506 929 q 630 909 574 929 q 725 853 686 888 q 785 771 764 818 q 806 671 806 724 l 806 258 q 785 158 806 205 q 725 76 764 111 q 630 20 686 41 q 506 0 574 0 l 297 0 q 173 20 229 0 q 78 76 117 41 q 18 158 39 111 q -3 258 -3 205 l -3 671 q 18 771 -3 724 q 78 853 39 818 q 173 909 117 888 q 297 929 229 929 l 506 929 m 210 885 q 178 929 189 903 q 168 983 168 955 q 178 1043 168 1008 q 204 1119 188 1078 q 239 1202 220 1159 q 277 1284 258 1244 q 330 1336 296 1318 q 421 1353 364 1353 q 472 1348 450 1353 q 512 1333 494 1343 q 544 1305 530 1322 q 570 1263 557 1288 q 618 1153 597 1204 q 636 1107 627 1131 q 652 1062 646 1084 q 664 1022 659 1041 q 668 991 668 1004 q 621 885 668 922 l 210 885 m 418 1189 l 482 991 l 538 991 l 449 1220 l 388 1220 l 299 991 l 354 991 l 418 1189 z "},"":{"ha":803,"x_min":-3,"x_max":806,"o":"m 647 868 l 576 868 l 576 631 l 294 631 l 294 868 l 222 868 l 222 307 l 294 307 l 294 559 l 576 559 l 576 307 l 647 307 l 647 868 m 506 929 q 630 909 574 929 q 725 853 686 888 q 785 771 764 818 q 806 671 806 724 l 806 258 q 785 158 806 205 q 725 76 764 111 q 630 20 686 41 q 506 0 574 0 l 297 0 q 173 20 229 0 q 78 76 117 41 q 18 158 39 111 q -3 258 -3 205 l -3 671 q 18 771 -3 724 q 78 853 39 818 q 173 909 117 888 q 297 929 229 929 l 506 929 m 215 893 q 184 937 194 911 q 174 991 174 963 q 183 1051 174 1016 q 209 1127 193 1086 q 244 1210 225 1167 q 282 1292 264 1253 q 336 1344 302 1326 q 427 1361 370 1361 q 477 1356 455 1361 q 517 1341 500 1352 q 549 1313 535 1331 q 575 1271 563 1296 q 624 1161 602 1213 q 642 1115 633 1139 q 658 1070 651 1092 q 669 1030 665 1049 q 673 999 673 1012 q 627 893 673 930 l 215 893 m 424 1197 l 488 999 l 543 999 l 454 1228 l 393 1228 l 304 999 l 359 999 l 424 1197 z "},"":{"ha":803,"x_min":-3,"x_max":806,"o":"m 647 868 l 576 868 l 576 631 l 294 631 l 294 868 l 222 868 l 222 307 l 294 307 l 294 559 l 576 559 l 576 307 l 647 307 l 647 868 m 506 929 q 630 909 574 929 q 725 853 686 888 q 785 771 764 818 q 806 671 806 724 l 806 258 q 785 158 806 205 q 725 76 764 111 q 630 20 686 41 q 506 0 574 0 l 297 0 q 173 20 229 0 q 78 76 117 41 q 18 158 39 111 q -3 258 -3 205 l -3 671 q 18 771 -3 724 q 78 853 39 818 q 173 909 117 888 q 297 929 229 929 l 506 929 m 533 1032 l 533 1105 l 278 1105 l 278 1032 l 533 1032 m 233 890 q 145 971 176 925 q 115 1080 115 1018 q 136 1163 115 1124 q 196 1232 157 1202 q 291 1279 235 1261 q 415 1296 347 1296 q 539 1279 484 1296 q 634 1232 595 1261 q 694 1163 673 1202 q 715 1080 715 1124 q 685 971 715 1018 q 597 890 654 925 l 233 890 z "},"":{"ha":803,"x_min":-3,"x_max":806,"o":"m 647 715 l 682 715 l 682 777 l 647 777 l 647 868 l 576 868 l 576 777 l 294 777 l 294 868 l 222 868 l 222 777 l 193 777 l 193 715 l 222 715 l 222 307 l 294 307 l 294 559 l 576 559 l 576 307 l 647 307 l 647 715 m 294 631 l 294 715 l 576 715 l 576 631 l 294 631 m 506 929 q 630 909 574 929 q 725 853 686 888 q 785 771 764 818 q 806 671 806 724 l 806 258 q 785 158 806 205 q 725 76 764 111 q 630 20 686 41 q 506 0 574 0 l 297 0 q 173 20 229 0 q 78 76 117 41 q 18 158 39 111 q -3 258 -3 205 l -3 671 q 18 771 -3 724 q 78 853 39 818 q 173 909 117 888 q 297 929 229 929 l 506 929 z "},"":{"ha":803,"x_min":-3,"x_max":806,"o":"m 243 379 l 243 307 l 635 307 l 635 379 l 475 379 l 475 796 l 635 796 l 635 868 l 243 868 l 243 796 l 403 796 l 403 379 l 243 379 m 506 929 q 630 909 574 929 q 725 853 686 888 q 785 771 764 818 q 806 671 806 724 l 806 258 q 785 158 806 205 q 725 76 764 111 q 630 20 686 41 q 506 0 574 0 l 297 0 q 173 20 229 0 q 78 76 117 41 q 18 158 39 111 q -3 258 -3 205 l -3 671 q 18 771 -3 724 q 78 853 39 818 q 173 909 117 888 q 297 929 229 929 l 506 929 m 232 889 q 164 973 187 926 q 142 1078 142 1021 q 163 1178 142 1131 q 223 1260 184 1225 q 317 1316 262 1295 q 441 1336 373 1336 q 566 1316 511 1336 q 661 1260 621 1295 q 721 1178 700 1225 q 742 1078 742 1131 q 719 974 742 1023 q 653 889 696 926 l 232 889 m 525 970 q 555 979 544 970 q 573 1002 567 988 q 580 1031 578 1015 q 582 1059 582 1046 l 582 1081 l 521 1081 q 504 1040 511 1050 q 488 1029 497 1029 q 468 1036 479 1029 q 440 1052 457 1043 q 398 1067 422 1060 q 338 1074 373 1074 q 307 1063 318 1074 q 289 1037 295 1052 q 282 1006 283 1021 q 281 981 281 990 l 281 972 l 342 972 q 354 1008 347 998 q 371 1018 361 1018 q 394 1010 381 1018 q 426 994 408 1003 q 469 977 444 985 q 525 970 493 970 z "},"":{"ha":803,"x_min":-3,"x_max":806,"o":"m 243 379 l 243 307 l 635 307 l 635 379 l 475 379 l 475 796 l 635 796 l 635 868 l 243 868 l 243 796 l 403 796 l 403 379 l 243 379 m 506 929 q 630 909 574 929 q 725 853 686 888 q 785 771 764 818 q 806 671 806 724 l 806 258 q 785 158 806 205 q 725 76 764 111 q 630 20 686 41 q 506 0 574 0 l 297 0 q 173 20 229 0 q 78 76 117 41 q 18 158 39 111 q -3 258 -3 205 l -3 671 q 18 771 -3 724 q 78 853 39 818 q 173 909 117 888 q 297 929 229 929 l 506 929 m 228 889 q 160 973 183 926 q 138 1078 138 1021 q 159 1178 138 1131 q 219 1260 180 1225 q 313 1316 258 1295 q 437 1336 369 1336 q 562 1316 507 1336 q 656 1260 617 1295 q 717 1178 696 1225 q 738 1078 738 1131 q 715 974 738 1023 q 649 889 692 926 l 228 889 m 521 970 q 551 979 540 970 q 569 1002 563 988 q 576 1031 574 1015 q 578 1059 578 1046 l 578 1081 l 517 1081 q 500 1040 507 1050 q 484 1029 493 1029 q 464 1036 475 1029 q 436 1052 453 1043 q 394 1067 418 1060 q 334 1074 369 1074 q 302 1063 314 1074 q 285 1037 291 1052 q 278 1006 279 1021 q 277 981 277 990 l 277 972 l 338 972 q 350 1008 343 998 q 367 1018 357 1018 q 390 1010 377 1018 q 422 994 404 1003 q 465 977 440 985 q 521 970 489 970 z "},"":{"ha":803,"x_min":-3,"x_max":806,"o":"m 243 379 l 243 307 l 635 307 l 635 379 l 475 379 l 475 796 l 635 796 l 635 868 l 243 868 l 243 796 l 403 796 l 403 379 l 243 379 m 506 929 q 630 909 574 929 q 725 853 686 888 q 785 771 764 818 q 806 671 806 724 l 806 258 q 785 158 806 205 q 725 76 764 111 q 630 20 686 41 q 506 0 574 0 l 297 0 q 173 20 229 0 q 78 76 117 41 q 18 158 39 111 q -3 258 -3 205 l -3 671 q 18 771 -3 724 q 78 853 39 818 q 173 909 117 888 q 297 929 229 929 l 506 929 m 551 1019 l 551 1093 l 296 1093 l 296 1019 l 551 1019 m 251 878 q 163 959 193 912 q 133 1067 133 1005 q 154 1150 133 1111 q 214 1219 175 1190 q 309 1266 253 1249 q 433 1283 364 1283 q 557 1266 502 1283 q 652 1219 612 1249 q 712 1150 691 1190 q 733 1067 733 1111 q 703 959 733 1005 q 615 878 672 912 l 251 878 z "},"":{"ha":803,"x_min":-3,"x_max":806,"o":"m 243 379 l 243 307 l 635 307 l 635 379 l 475 379 l 475 796 l 635 796 l 635 868 l 243 868 l 243 796 l 403 796 l 403 379 l 243 379 m 506 929 q 630 909 574 929 q 725 853 686 888 q 785 771 764 818 q 806 671 806 724 l 806 258 q 785 158 806 205 q 725 76 764 111 q 630 20 686 41 q 506 0 574 0 l 297 0 q 173 20 229 0 q 78 76 117 41 q 18 158 39 111 q -3 258 -3 205 l -3 671 q 18 771 -3 724 q 78 853 39 818 q 173 909 117 888 q 297 929 229 929 l 506 929 m 548 1020 l 548 1093 l 293 1093 l 293 1020 l 548 1020 m 248 878 q 160 959 191 913 q 130 1067 130 1006 q 151 1151 130 1112 q 211 1220 172 1190 q 306 1266 250 1249 q 430 1284 361 1284 q 554 1266 499 1284 q 649 1220 610 1249 q 709 1151 688 1190 q 730 1067 730 1112 q 700 959 730 1006 q 612 878 669 913 l 248 878 z "},"":{"ha":803,"x_min":-3,"x_max":806,"o":"m 243 379 l 243 307 l 635 307 l 635 379 l 475 379 l 475 796 l 635 796 l 635 868 l 243 868 l 243 796 l 403 796 l 403 379 l 243 379 m 506 929 q 630 909 574 929 q 725 853 686 888 q 785 771 764 818 q 806 671 806 724 l 806 258 q 785 158 806 205 q 725 76 764 111 q 630 20 686 41 q 506 0 574 0 l 297 0 q 173 20 229 0 q 78 76 117 41 q 18 158 39 111 q -3 258 -3 205 l -3 671 q 18 771 -3 724 q 78 853 39 818 q 173 909 117 888 q 297 929 229 929 l 506 929 m 260 889 q 172 970 202 924 q 142 1078 142 1017 q 163 1162 142 1122 q 223 1231 184 1201 q 317 1277 262 1260 q 441 1295 373 1295 q 566 1277 511 1295 q 661 1231 621 1260 q 721 1162 700 1201 q 742 1078 742 1122 q 711 970 742 1017 q 624 889 681 924 l 260 889 m 326 1024 l 366 985 l 418 977 l 467 977 l 519 985 l 559 1025 l 568 1092 l 507 1092 l 500 1047 l 460 1038 l 424 1038 l 386 1044 l 379 1092 l 318 1092 l 326 1024 z "},"":{"ha":803,"x_min":-3,"x_max":806,"o":"m 243 379 l 243 307 l 635 307 l 635 379 l 475 379 l 475 796 l 635 796 l 635 868 l 243 868 l 243 796 l 403 796 l 403 379 l 243 379 m 506 929 q 630 909 574 929 q 725 853 686 888 q 785 771 764 818 q 806 671 806 724 l 806 258 q 785 158 806 205 q 725 76 764 111 q 630 20 686 41 q 506 0 574 0 l 297 0 q 173 20 229 0 q 78 76 117 41 q 18 158 39 111 q -3 258 -3 205 l -3 671 q 18 771 -3 724 q 78 853 39 818 q 173 909 117 888 q 297 929 229 929 l 506 929 m 256 889 q 168 970 198 924 q 138 1078 138 1017 q 159 1162 138 1122 q 219 1231 180 1201 q 313 1277 258 1260 q 437 1295 369 1295 q 562 1277 507 1295 q 656 1231 617 1260 q 717 1162 696 1201 q 738 1078 738 1122 q 707 970 738 1017 q 620 889 677 924 l 256 889 m 322 1024 l 361 985 l 414 977 l 463 977 l 515 985 l 555 1025 l 564 1092 l 503 1092 l 496 1047 l 456 1038 l 420 1038 l 382 1044 l 375 1092 l 314 1092 l 322 1024 z "},"":{"ha":803,"x_min":-3,"x_max":806,"o":"m 506 929 q 630 909 574 929 q 725 853 686 888 q 785 771 764 818 q 806 671 806 724 l 806 258 q 785 158 806 205 q 725 76 764 111 q 630 20 686 41 q 506 0 574 0 l 297 0 q 173 20 229 0 q 78 76 117 41 q 18 158 39 111 q -3 258 -3 205 l -3 671 q 18 771 -3 724 q 78 853 39 818 q 173 909 117 888 q 297 929 229 929 l 506 929 m 243 379 l 243 307 l 585 307 l 536 281 l 497 241 l 489 191 l 497 138 l 538 97 l 635 89 l 635 150 l 559 157 l 550 197 l 557 221 l 632 307 l 635 307 l 635 379 l 475 379 l 475 796 l 635 796 l 635 868 l 243 868 l 243 796 l 403 796 l 403 379 l 243 379 z "},"":{"ha":803,"x_min":-3,"x_max":806,"o":"m 506 929 q 630 909 574 929 q 725 853 686 888 q 785 771 764 818 q 806 671 806 724 l 806 258 q 785 158 806 205 q 725 76 764 111 q 630 20 686 41 q 506 0 574 0 l 297 0 q 173 20 229 0 q 78 76 117 41 q 18 158 39 111 q -3 258 -3 205 l -3 671 q 18 771 -3 724 q 78 853 39 818 q 173 909 117 888 q 297 929 229 929 l 506 929 m 243 379 l 243 307 l 586 307 l 538 281 l 498 241 l 490 191 l 498 138 l 539 97 l 636 89 l 636 150 l 561 157 l 551 197 l 558 221 l 633 307 l 635 307 l 635 379 l 475 379 l 475 796 l 635 796 l 635 868 l 243 868 l 243 796 l 403 796 l 403 379 l 243 379 z "},"":{"ha":803,"x_min":-3,"x_max":806,"o":"m 243 379 l 243 307 l 635 307 l 635 379 l 475 379 l 475 796 l 635 796 l 635 868 l 243 868 l 243 796 l 403 796 l 403 379 l 243 379 m 506 929 q 630 909 574 929 q 725 853 686 888 q 785 771 764 818 q 806 671 806 724 l 806 258 q 785 158 806 205 q 725 76 764 111 q 630 20 686 41 q 506 0 574 0 l 297 0 q 173 20 229 0 q 78 76 117 41 q 18 158 39 111 q -3 258 -3 205 l -3 671 q 18 771 -3 724 q 78 853 39 818 q 173 909 117 888 q 297 929 229 929 l 506 929 m 458 1001 l 458 1088 l 369 1088 l 369 1001 l 458 1001 m 181 884 q 153 921 165 899 q 133 966 141 942 q 120 1014 125 989 q 116 1061 116 1039 q 137 1145 116 1105 q 197 1214 158 1184 q 292 1260 236 1243 q 416 1278 347 1278 q 540 1260 485 1278 q 635 1214 595 1243 q 695 1145 674 1184 q 716 1061 716 1105 q 700 965 716 1008 q 652 884 684 921 l 181 884 z "},"":{"ha":803,"x_min":-3,"x_max":806,"o":"m 243 379 l 243 307 l 635 307 l 635 379 l 475 379 l 475 796 l 635 796 l 635 868 l 243 868 l 243 796 l 403 796 l 403 379 l 243 379 m 506 929 q 630 909 574 929 q 725 853 686 888 q 785 771 764 818 q 806 671 806 724 l 806 258 q 785 158 806 205 q 725 76 764 111 q 630 20 686 41 q 506 0 574 0 l 297 0 q 173 20 229 0 q 78 76 117 41 q 18 158 39 111 q -3 258 -3 205 l -3 671 q 18 771 -3 724 q 78 853 39 818 q 173 909 117 888 q 297 929 229 929 l 506 929 z "},"":{"ha":803,"x_min":-3,"x_max":806,"o":"m 122 379 l 122 307 l 403 307 l 403 379 l 298 379 l 298 796 l 403 796 l 403 868 l 122 868 l 122 796 l 227 796 l 227 379 l 122 379 m 506 929 q 630 909 574 929 q 725 853 686 888 q 785 771 764 818 q 806 671 806 724 l 806 258 q 785 158 806 205 q 725 76 764 111 q 630 20 686 41 q 506 0 574 0 l 297 0 q 173 20 229 0 q 78 76 117 41 q 18 158 39 111 q -3 258 -3 205 l -3 671 q 18 771 -3 724 q 78 853 39 818 q 173 909 117 888 q 297 929 229 929 l 506 929 m 602 868 l 602 428 l 592 387 l 547 379 l 446 379 l 446 307 l 551 307 l 620 317 l 672 358 l 672 868 l 602 868 z "},"":{"ha":803,"x_min":-3,"x_max":806,"o":"m 122 379 l 122 307 l 403 307 l 403 379 l 298 379 l 298 796 l 403 796 l 403 868 l 122 868 l 122 796 l 227 796 l 227 379 l 122 379 m 506 929 q 630 909 574 929 q 725 853 686 888 q 785 771 764 818 q 806 671 806 724 l 806 258 q 785 158 806 205 q 725 76 764 111 q 630 20 686 41 q 506 0 574 0 l 297 0 q 173 20 229 0 q 78 76 117 41 q 18 158 39 111 q -3 258 -3 205 l -3 671 q 18 771 -3 724 q 78 853 39 818 q 173 909 117 888 q 297 929 229 929 l 506 929 m 602 868 l 602 428 l 592 387 l 547 379 l 446 379 l 446 307 l 551 307 l 620 317 l 672 358 l 672 868 l 602 868 z "},"":{"ha":803,"x_min":-3,"x_max":806,"o":"m 506 929 q 630 909 574 929 q 725 853 686 888 q 785 771 764 818 q 806 671 806 724 l 806 258 q 785 158 806 205 q 725 76 764 111 q 630 20 686 41 q 506 0 574 0 l 297 0 q 173 20 229 0 q 78 76 117 41 q 18 158 39 111 q -3 258 -3 205 l -3 671 q 18 771 -3 724 q 78 853 39 818 q 173 909 117 888 q 297 929 229 929 l 506 929 m 463 868 l 463 428 l 453 387 l 408 379 l 307 379 l 307 307 l 412 307 l 481 317 l 534 358 l 534 868 l 463 868 m 220 885 q 189 929 199 903 q 179 983 179 955 q 189 1043 179 1008 q 215 1119 199 1078 q 250 1202 231 1159 q 288 1284 269 1244 q 341 1336 307 1318 q 432 1353 375 1353 q 483 1348 460 1353 q 523 1333 505 1343 q 554 1305 541 1322 q 581 1263 568 1288 q 629 1153 608 1204 q 647 1107 638 1131 q 663 1062 656 1084 q 674 1022 670 1041 q 679 991 679 1004 q 632 885 679 922 l 220 885 m 429 1189 l 493 991 l 549 991 l 460 1220 l 399 1220 l 310 991 l 365 991 l 429 1189 z "},"":{"ha":803,"x_min":-3,"x_max":806,"o":"m 506 929 q 630 909 574 929 q 725 853 686 888 q 785 771 764 818 q 806 671 806 724 l 806 258 q 785 158 806 205 q 725 76 764 111 q 630 20 686 41 q 506 0 574 0 l 297 0 q 173 20 229 0 q 78 76 117 41 q 18 158 39 111 q -3 258 -3 205 l -3 671 q 18 771 -3 724 q 78 853 39 818 q 173 909 117 888 q 297 929 229 929 l 506 929 m 463 868 l 463 428 l 453 387 l 408 379 l 307 379 l 307 307 l 412 307 l 481 317 l 534 358 l 534 868 l 463 868 m 220 892 q 189 936 199 909 q 179 990 179 962 q 189 1050 179 1015 q 215 1125 199 1085 q 250 1208 231 1166 q 288 1291 269 1251 q 341 1342 307 1325 q 432 1360 375 1360 q 483 1355 460 1360 q 523 1340 505 1350 q 554 1312 541 1329 q 581 1270 568 1295 q 629 1160 608 1211 q 647 1114 638 1137 q 663 1069 656 1090 q 674 1029 670 1048 q 679 998 679 1010 q 632 892 679 928 l 220 892 m 429 1196 l 493 998 l 549 998 l 460 1227 l 399 1227 l 310 998 l 365 998 l 429 1196 z "},"":{"ha":803,"x_min":-3,"x_max":806,"o":"m 452 81 l 493 168 l 493 256 l 391 256 l 391 168 l 435 168 l 408 100 l 452 81 m 444 600 l 677 831 l 628 888 l 349 611 l 349 868 l 277 868 l 277 307 l 349 307 l 349 519 q 369 537 360 529 q 388 554 377 545 l 610 294 l 668 345 l 444 600 m 506 929 q 630 909 574 929 q 725 853 686 888 q 785 771 764 818 q 806 671 806 724 l 806 258 q 785 158 806 205 q 725 76 764 111 q 630 20 686 41 q 506 0 574 0 l 297 0 q 173 20 229 0 q 78 76 117 41 q 18 158 39 111 q -3 258 -3 205 l -3 671 q 18 771 -3 724 q 78 853 39 818 q 173 909 117 888 q 297 929 229 929 l 506 929 z "},"":{"ha":803,"x_min":-3,"x_max":806,"o":"m 452 81 l 493 168 l 493 256 l 391 256 l 391 168 l 435 168 l 408 100 l 452 81 m 444 600 l 677 831 l 628 888 l 349 611 l 349 868 l 277 868 l 277 307 l 349 307 l 349 519 q 369 537 360 529 q 388 554 377 545 l 610 294 l 668 345 l 444 600 m 506 929 q 630 909 574 929 q 725 853 686 888 q 785 771 764 818 q 806 671 806 724 l 806 258 q 785 158 806 205 q 725 76 764 111 q 630 20 686 41 q 506 0 574 0 l 297 0 q 173 20 229 0 q 78 76 117 41 q 18 158 39 111 q -3 258 -3 205 l -3 671 q 18 771 -3 724 q 78 853 39 818 q 173 909 117 888 q 297 929 229 929 l 506 929 z "},"":{"ha":803,"x_min":-3,"x_max":806,"o":"m 444 600 l 677 831 l 628 888 l 349 611 l 349 868 l 277 868 l 277 307 l 349 307 l 349 519 q 369 537 360 529 q 388 554 377 545 l 610 294 l 668 345 l 444 600 m 506 929 q 630 909 574 929 q 725 853 686 888 q 785 771 764 818 q 806 671 806 724 l 806 258 q 785 158 806 205 q 725 76 764 111 q 630 20 686 41 q 506 0 574 0 l 297 0 q 173 20 229 0 q 78 76 117 41 q 18 158 39 111 q -3 258 -3 205 l -3 671 q 18 771 -3 724 q 78 853 39 818 q 173 909 117 888 q 297 929 229 929 l 506 929 z "},"":{"ha":803,"x_min":-3,"x_max":806,"o":"m 585 379 l 376 379 l 376 868 l 304 868 l 304 307 l 585 307 l 585 379 m 506 929 q 630 909 574 929 q 725 853 686 888 q 785 771 764 818 q 806 671 806 724 l 806 258 q 785 158 806 205 q 725 76 764 111 q 630 20 686 41 q 506 0 574 0 l 297 0 q 173 20 229 0 q 78 76 117 41 q 18 158 39 111 q -3 258 -3 205 l -3 671 q 18 771 -3 724 q 78 853 39 818 q 173 909 117 888 q 297 929 229 929 l 506 929 m 267 895 q 236 912 251 901 q 210 939 221 924 q 191 971 198 954 q 184 1010 184 989 q 186 1031 184 1017 q 196 1074 189 1045 q 217 1149 203 1103 q 255 1269 231 1196 q 279 1305 263 1290 q 316 1329 294 1320 q 363 1341 337 1337 q 418 1345 389 1345 q 492 1337 456 1345 q 556 1311 528 1328 q 601 1268 584 1293 q 618 1209 618 1242 q 611 1167 617 1190 q 589 1119 604 1145 l 481 936 q 467 912 473 922 q 452 895 460 902 l 267 895 m 469 1227 l 387 1227 l 319 1001 l 366 1001 l 469 1227 z "},"":{"ha":803,"x_min":-3,"x_max":806,"o":"m 585 379 l 376 379 l 376 868 l 304 868 l 304 307 l 585 307 l 585 379 m 506 929 q 630 909 574 929 q 725 853 686 888 q 785 771 764 818 q 806 671 806 724 l 806 258 q 785 158 806 205 q 725 76 764 111 q 630 20 686 41 q 506 0 574 0 l 297 0 q 173 20 229 0 q 78 76 117 41 q 18 158 39 111 q -3 258 -3 205 l -3 671 q 18 771 -3 724 q 78 853 39 818 q 173 909 117 888 q 297 929 229 929 l 506 929 m 267 895 q 236 912 251 901 q 210 939 221 924 q 191 971 198 954 q 184 1010 184 989 q 186 1031 184 1017 q 196 1074 189 1045 q 217 1149 203 1103 q 255 1269 231 1196 q 279 1305 263 1290 q 316 1329 294 1320 q 363 1341 337 1337 q 418 1345 389 1345 q 492 1337 456 1345 q 556 1311 528 1328 q 601 1268 584 1293 q 618 1209 618 1242 q 611 1167 617 1190 q 589 1119 604 1145 l 481 936 q 467 912 473 922 q 452 895 460 902 l 267 895 m 469 1227 l 387 1227 l 319 1001 l 366 1001 l 469 1227 z "},"":{"ha":803,"x_min":-3,"x_max":806,"o":"m 452 81 l 493 168 l 493 256 l 391 256 l 391 168 l 435 168 l 408 100 l 452 81 m 585 379 l 376 379 l 376 868 l 304 868 l 304 307 l 585 307 l 585 379 m 506 929 q 630 909 574 929 q 725 853 686 888 q 785 771 764 818 q 806 671 806 724 l 806 258 q 785 158 806 205 q 725 76 764 111 q 630 20 686 41 q 506 0 574 0 l 297 0 q 173 20 229 0 q 78 76 117 41 q 18 158 39 111 q -3 258 -3 205 l -3 671 q 18 771 -3 724 q 78 853 39 818 q 173 909 117 888 q 297 929 229 929 l 506 929 z "},"":{"ha":803,"x_min":-3,"x_max":806,"o":"m 452 81 l 493 168 l 493 256 l 391 256 l 391 168 l 435 168 l 408 100 l 452 81 m 585 379 l 376 379 l 376 868 l 304 868 l 304 307 l 585 307 l 585 379 m 506 929 q 630 909 574 929 q 725 853 686 888 q 785 771 764 818 q 806 671 806 724 l 806 258 q 785 158 806 205 q 725 76 764 111 q 630 20 686 41 q 506 0 574 0 l 297 0 q 173 20 229 0 q 78 76 117 41 q 18 158 39 111 q -3 258 -3 205 l -3 671 q 18 771 -3 724 q 78 853 39 818 q 173 909 117 888 q 297 929 229 929 l 506 929 z "},"":{"ha":803,"x_min":-3,"x_max":806,"o":"m 529 693 l 571 781 l 571 868 l 468 868 l 468 781 l 513 781 l 486 713 l 529 693 m 585 379 l 376 379 l 376 868 l 304 868 l 304 307 l 585 307 l 585 379 m 506 929 q 630 909 574 929 q 725 853 686 888 q 785 771 764 818 q 806 671 806 724 l 806 258 q 785 158 806 205 q 725 76 764 111 q 630 20 686 41 q 506 0 574 0 l 297 0 q 173 20 229 0 q 78 76 117 41 q 18 158 39 111 q -3 258 -3 205 l -3 671 q 18 771 -3 724 q 78 853 39 818 q 173 909 117 888 q 297 929 229 929 l 506 929 z "},"":{"ha":803,"x_min":-3,"x_max":806,"o":"m 529 693 l 571 781 l 571 868 l 468 868 l 468 781 l 513 781 l 486 713 l 529 693 m 585 379 l 376 379 l 376 868 l 304 868 l 304 307 l 585 307 l 585 379 m 506 929 q 630 909 574 929 q 725 853 686 888 q 785 771 764 818 q 806 671 806 724 l 806 258 q 785 158 806 205 q 725 76 764 111 q 630 20 686 41 q 506 0 574 0 l 297 0 q 173 20 229 0 q 78 76 117 41 q 18 158 39 111 q -3 258 -3 205 l -3 671 q 18 771 -3 724 q 78 853 39 818 q 173 909 117 888 q 297 929 229 929 l 506 929 z "},"":{"ha":803,"x_min":-3,"x_max":806,"o":"m 528 608 l 528 696 l 439 696 l 439 608 l 528 608 m 585 379 l 376 379 l 376 868 l 304 868 l 304 307 l 585 307 l 585 379 m 506 929 q 630 909 574 929 q 725 853 686 888 q 785 771 764 818 q 806 671 806 724 l 806 258 q 785 158 806 205 q 725 76 764 111 q 630 20 686 41 q 506 0 574 0 l 297 0 q 173 20 229 0 q 78 76 117 41 q 18 158 39 111 q -3 258 -3 205 l -3 671 q 18 771 -3 724 q 78 853 39 818 q 173 909 117 888 q 297 929 229 929 l 506 929 z "},"":{"ha":803,"x_min":-3,"x_max":806,"o":"m 528 608 l 528 696 l 439 696 l 439 608 l 528 608 m 585 379 l 376 379 l 376 868 l 304 868 l 304 307 l 585 307 l 585 379 m 506 929 q 630 909 574 929 q 725 853 686 888 q 785 771 764 818 q 806 671 806 724 l 806 258 q 785 158 806 205 q 725 76 764 111 q 630 20 686 41 q 506 0 574 0 l 297 0 q 173 20 229 0 q 78 76 117 41 q 18 158 39 111 q -3 258 -3 205 l -3 671 q 18 771 -3 724 q 78 853 39 818 q 173 909 117 888 q 297 929 229 929 l 506 929 z "},"":{"ha":803,"x_min":-3,"x_max":806,"o":"m 585 379 l 376 379 l 376 607 l 461 656 l 439 694 l 376 659 l 376 868 l 304 868 l 304 616 l 220 570 l 241 530 l 304 566 l 304 307 l 585 307 l 585 379 m 506 929 q 630 909 574 929 q 725 853 686 888 q 785 771 764 818 q 806 671 806 724 l 806 258 q 785 158 806 205 q 725 76 764 111 q 630 20 686 41 q 506 0 574 0 l 297 0 q 173 20 229 0 q 78 76 117 41 q 18 158 39 111 q -3 258 -3 205 l -3 671 q 18 771 -3 724 q 78 853 39 818 q 173 909 117 888 q 297 929 229 929 l 506 929 z "},"":{"ha":803,"x_min":-3,"x_max":806,"o":"m 585 379 l 376 379 l 376 607 l 461 656 l 439 694 l 376 659 l 376 868 l 304 868 l 304 616 l 220 570 l 241 530 l 304 566 l 304 307 l 585 307 l 585 379 m 506 929 q 630 909 574 929 q 725 853 686 888 q 785 771 764 818 q 806 671 806 724 l 806 258 q 785 158 806 205 q 725 76 764 111 q 630 20 686 41 q 506 0 574 0 l 297 0 q 173 20 229 0 q 78 76 117 41 q 18 158 39 111 q -3 258 -3 205 l -3 671 q 18 771 -3 724 q 78 853 39 818 q 173 909 117 888 q 297 929 229 929 l 506 929 z "},"":{"ha":803,"x_min":-3,"x_max":806,"o":"m 632 760 l 623 817 l 579 860 l 510 868 l 340 868 l 218 851 l 218 307 l 290 307 l 290 789 l 343 798 l 506 798 l 553 790 l 559 750 l 559 307 l 632 307 l 632 760 m 506 929 q 630 909 574 929 q 725 853 686 888 q 785 771 764 818 q 806 671 806 724 l 806 258 q 785 158 806 205 q 725 76 764 111 q 630 20 686 41 q 506 0 574 0 l 297 0 q 173 20 229 0 q 78 76 117 41 q 18 158 39 111 q -3 258 -3 205 l -3 671 q 18 771 -3 724 q 78 853 39 818 q 173 909 117 888 q 297 929 229 929 l 506 929 m 325 888 q 294 906 309 895 q 268 932 279 917 q 250 965 256 947 q 243 1003 243 983 q 245 1024 243 1010 q 254 1067 247 1038 q 276 1143 262 1096 q 313 1262 290 1190 q 337 1298 321 1283 q 374 1322 353 1313 q 421 1335 395 1331 q 476 1339 448 1339 q 550 1330 514 1339 q 614 1304 586 1321 q 659 1261 642 1286 q 676 1202 676 1236 q 669 1161 675 1183 q 647 1112 663 1138 l 540 929 q 525 905 532 916 q 511 888 518 895 l 325 888 m 528 1221 l 446 1221 l 378 994 l 425 994 l 528 1221 z "},"":{"ha":803,"x_min":-3,"x_max":806,"o":"m 632 760 l 623 817 l 579 860 l 510 868 l 340 868 l 218 851 l 218 307 l 290 307 l 290 789 l 343 798 l 506 798 l 553 790 l 559 750 l 559 307 l 632 307 l 632 760 m 506 929 q 630 909 574 929 q 725 853 686 888 q 785 771 764 818 q 806 671 806 724 l 806 258 q 785 158 806 205 q 725 76 764 111 q 630 20 686 41 q 506 0 574 0 l 297 0 q 173 20 229 0 q 78 76 117 41 q 18 158 39 111 q -3 258 -3 205 l -3 671 q 18 771 -3 724 q 78 853 39 818 q 173 909 117 888 q 297 929 229 929 l 506 929 m 325 888 q 294 906 309 895 q 268 932 279 917 q 250 965 256 947 q 243 1003 243 983 q 245 1024 243 1010 q 254 1067 247 1038 q 276 1143 262 1096 q 313 1262 290 1190 q 337 1298 321 1283 q 374 1322 353 1313 q 421 1335 395 1331 q 476 1339 448 1339 q 550 1330 514 1339 q 614 1304 586 1321 q 659 1261 642 1286 q 676 1202 676 1236 q 669 1161 675 1183 q 647 1112 663 1138 l 540 929 q 525 905 532 916 q 511 888 518 895 l 325 888 m 528 1221 l 446 1221 l 378 994 l 425 994 l 528 1221 z "},"":{"ha":803,"x_min":-3,"x_max":806,"o":"m 452 81 l 493 168 l 493 256 l 391 256 l 391 168 l 435 168 l 408 100 l 452 81 m 632 760 l 623 817 l 579 860 l 510 868 l 340 868 l 218 851 l 218 307 l 290 307 l 290 789 l 343 798 l 506 798 l 553 790 l 559 750 l 559 307 l 632 307 l 632 760 m 506 929 q 630 909 574 929 q 725 853 686 888 q 785 771 764 818 q 806 671 806 724 l 806 258 q 785 158 806 205 q 725 76 764 111 q 630 20 686 41 q 506 0 574 0 l 297 0 q 173 20 229 0 q 78 76 117 41 q 18 158 39 111 q -3 258 -3 205 l -3 671 q 18 771 -3 724 q 78 853 39 818 q 173 909 117 888 q 297 929 229 929 l 506 929 z "},"":{"ha":803,"x_min":-3,"x_max":806,"o":"m 452 81 l 493 168 l 493 256 l 391 256 l 391 168 l 435 168 l 408 100 l 452 81 m 632 760 l 623 817 l 579 860 l 510 868 l 340 868 l 218 851 l 218 307 l 290 307 l 290 789 l 343 798 l 506 798 l 553 790 l 559 750 l 559 307 l 632 307 l 632 760 m 506 929 q 630 909 574 929 q 725 853 686 888 q 785 771 764 818 q 806 671 806 724 l 806 258 q 785 158 806 205 q 725 76 764 111 q 630 20 686 41 q 506 0 574 0 l 297 0 q 173 20 229 0 q 78 76 117 41 q 18 158 39 111 q -3 258 -3 205 l -3 671 q 18 771 -3 724 q 78 853 39 818 q 173 909 117 888 q 297 929 229 929 l 506 929 z "},"":{"ha":803,"x_min":-3,"x_max":806,"o":"m 632 760 l 623 817 l 579 860 l 510 868 l 340 868 l 218 851 l 218 307 l 290 307 l 290 789 l 343 798 l 506 798 l 553 790 l 559 750 l 559 307 l 632 307 l 632 760 m 506 929 q 630 909 574 929 q 725 853 686 888 q 785 771 764 818 q 806 671 806 724 l 806 258 q 785 158 806 205 q 725 76 764 111 q 630 20 686 41 q 506 0 574 0 l 297 0 q 173 20 229 0 q 78 76 117 41 q 18 158 39 111 q -3 258 -3 205 l -3 671 q 18 771 -3 724 q 78 853 39 818 q 173 909 117 888 q 297 929 229 929 l 506 929 m 403 1270 q 449 1299 424 1289 q 511 1310 474 1310 q 575 1299 548 1310 q 618 1270 602 1289 q 643 1227 635 1252 q 651 1175 651 1202 q 643 1109 651 1147 q 624 1031 635 1072 q 598 951 612 990 q 572 882 585 911 l 232 882 q 203 965 218 922 q 177 1048 189 1008 q 158 1123 165 1088 q 151 1182 151 1158 q 159 1229 151 1206 q 186 1270 168 1252 q 235 1298 205 1287 q 309 1309 265 1309 q 364 1298 343 1309 q 403 1270 385 1287 m 337 1190 l 282 1190 l 371 960 l 432 960 l 521 1190 l 465 1190 l 401 991 l 337 1190 z "},"":{"ha":803,"x_min":-3,"x_max":806,"o":"m 632 760 l 623 817 l 579 860 l 510 868 l 340 868 l 218 851 l 218 307 l 290 307 l 290 789 l 343 798 l 506 798 l 553 790 l 559 750 l 559 307 l 632 307 l 632 760 m 506 929 q 630 909 574 929 q 725 853 686 888 q 785 771 764 818 q 806 671 806 724 l 806 258 q 785 158 806 205 q 725 76 764 111 q 630 20 686 41 q 506 0 574 0 l 297 0 q 173 20 229 0 q 78 76 117 41 q 18 158 39 111 q -3 258 -3 205 l -3 671 q 18 771 -3 724 q 78 853 39 818 q 173 909 117 888 q 297 929 229 929 l 506 929 m 403 1270 q 449 1299 424 1289 q 511 1310 474 1310 q 575 1299 548 1310 q 618 1270 602 1289 q 643 1227 635 1252 q 651 1175 651 1202 q 643 1109 651 1147 q 624 1031 635 1072 q 598 951 612 990 q 572 882 585 911 l 232 882 q 203 965 218 922 q 177 1048 189 1008 q 158 1123 165 1088 q 151 1182 151 1158 q 159 1229 151 1206 q 186 1270 168 1252 q 235 1298 205 1287 q 309 1309 265 1309 q 364 1298 343 1309 q 403 1270 385 1287 m 337 1190 l 282 1190 l 371 960 l 432 960 l 521 1190 l 465 1190 l 401 991 l 337 1190 z "},"":{"ha":803,"x_min":-3,"x_max":806,"o":"m 132 630 l 174 718 l 174 805 l 71 805 l 71 718 l 115 718 l 89 649 l 132 630 m 632 760 l 623 817 l 579 860 l 510 868 l 340 868 l 218 851 l 218 307 l 290 307 l 290 789 l 343 798 l 506 798 l 553 790 l 559 750 l 559 307 l 632 307 l 632 760 m 506 929 q 630 909 574 929 q 725 853 686 888 q 785 771 764 818 q 806 671 806 724 l 806 258 q 785 158 806 205 q 725 76 764 111 q 630 20 686 41 q 506 0 574 0 l 297 0 q 173 20 229 0 q 78 76 117 41 q 18 158 39 111 q -3 258 -3 205 l -3 671 q 18 771 -3 724 q 78 853 39 818 q 173 909 117 888 q 297 929 229 929 l 506 929 z "},"":{"ha":803,"x_min":-3,"x_max":806,"o":"m 623 817 l 579 860 l 510 868 l 340 868 l 218 851 l 218 307 l 290 307 l 290 789 l 343 798 l 506 798 l 553 790 l 559 750 l 559 229 l 551 189 l 507 180 l 406 180 l 406 109 l 511 109 l 579 118 l 632 160 l 632 760 l 623 817 m 506 929 q 630 909 574 929 q 725 853 686 888 q 785 771 764 818 q 806 671 806 724 l 806 258 q 785 158 806 205 q 725 76 764 111 q 630 20 686 41 q 506 0 574 0 l 297 0 q 173 20 229 0 q 78 76 117 41 q 18 158 39 111 q -3 258 -3 205 l -3 671 q 18 771 -3 724 q 78 853 39 818 q 173 909 117 888 q 297 929 229 929 l 506 929 z "},"":{"ha":803,"x_min":-3,"x_max":806,"o":"m 623 817 l 579 860 l 510 868 l 340 868 l 218 851 l 218 307 l 290 307 l 290 789 l 343 798 l 506 798 l 553 790 l 559 750 l 559 229 l 551 189 l 507 180 l 406 180 l 406 109 l 511 109 l 579 118 l 632 160 l 632 760 l 623 817 m 506 929 q 630 909 574 929 q 725 853 686 888 q 785 771 764 818 q 806 671 806 724 l 806 258 q 785 158 806 205 q 725 76 764 111 q 630 20 686 41 q 506 0 574 0 l 297 0 q 173 20 229 0 q 78 76 117 41 q 18 158 39 111 q -3 258 -3 205 l -3 671 q 18 771 -3 724 q 78 853 39 818 q 173 909 117 888 q 297 929 229 929 l 506 929 z "}}}
